<svg xmlns="http://www.w3.org/2000/svg" xmlns:xlink="http://www.w3.org/1999/xlink" width="500" zoomAndPan="magnify" viewBox="0 0 375 374.999991" height="500" preserveAspectRatio="xMidYMid meet" version="1.2"><defs><clipPath id="83eedb5673"><path d="M 168 244.089844 L 194 244.089844 L 194 327 L 168 327 Z M 168 244.089844 "/></clipPath></defs><g id="7d10c815e3"><rect x="0" width="375" y="0" height="374.999991" style="fill:#ffffff;fill-opacity:1;stroke:none;"/><rect x="0" width="375" y="0" height="374.999991" style="fill:#ffffff;fill-opacity:1;stroke:none;"/><path style="fill:none;stroke-width:38.966;stroke-linecap:round;stroke-linejoin:round;stroke:#555555;stroke-opacity:1;stroke-miterlimit:4;" d="M 125.284578 700.908379 L 23.72117 802.474365 L 125.284578 904.025885 " transform="matrix(0.27069,0,0,0.270029,114.110169,-146.359474)"/><path style="fill:none;stroke-width:38.966;stroke-linecap:round;stroke-linejoin:round;stroke:#555555;stroke-opacity:1;stroke-miterlimit:4;" d="M 376.970766 700.908379 L 478.534174 802.474365 L 376.970766 904.025885 " transform="matrix(0.27069,0,0,0.270029,114.110169,-146.359474)"/><path style="fill:none;stroke-width:38.966;stroke-linecap:round;stroke-linejoin:round;stroke:#555555;stroke-opacity:1;stroke-miterlimit:4;" d="M 274.858991 670.225932 L 220.238716 935.995808 " transform="matrix(0.27069,0,0,0.270029,114.110169,-146.359474)"/><g style="fill:#a6a6a6;fill-opacity:1;"><g transform="translate(134.455073, 213.843648)"><path style="stroke:none" d="M 7.15625 -77.015625 L 35.203125 -77.015625 C 37.554688 -77.015625 39.703125 -76.628906 41.640625 -75.859375 C 43.585938 -75.097656 45.273438 -74 46.703125 -72.5625 C 48.140625 -71.132812 49.242188 -69.445312 50.015625 -67.5 C 50.785156 -65.5625 51.171875 -63.414062 51.171875 -61.0625 L 51.171875 -39.0625 C 51.171875 -36.71875 50.785156 -34.570312 50.015625 -32.625 C 49.242188 -30.675781 48.140625 -28.988281 46.703125 -27.5625 C 45.273438 -26.132812 43.585938 -25.035156 41.640625 -24.265625 C 39.703125 -23.492188 37.554688 -23.109375 35.203125 -23.109375 L 22.5625 -23.109375 L 22.5625 0 L 7.15625 0 Z M 30.265625 -37.40625 C 33.929688 -37.40625 35.765625 -39.238281 35.765625 -42.90625 L 35.765625 -57.21875 C 35.765625 -60.882812 33.929688 -62.71875 30.265625 -62.71875 L 22.5625 -62.71875 L 22.5625 -37.40625 Z M 30.265625 -37.40625 "/></g></g><g style="fill:#d9d9d9;fill-opacity:1;"><g transform="translate(182.091789, 227.996762)"><path style="stroke:none" d="M 17.71875 0 C 15.832031 0 14.101562 -0.304688 12.53125 -0.921875 C 10.96875 -1.546875 9.609375 -2.429688 8.453125 -3.578125 C 7.304688 -4.734375 6.421875 -6.09375 5.796875 -7.65625 C 5.179688 -9.226562 4.875 -10.957031 4.875 -12.84375 L 4.875 -49.171875 C 4.875 -51.066406 5.179688 -52.796875 5.796875 -54.359375 C 6.421875 -55.921875 7.304688 -57.28125 8.453125 -58.4375 C 9.609375 -59.59375 10.96875 -60.476562 12.53125 -61.09375 C 14.101562 -61.71875 15.832031 -62.03125 17.71875 -62.03125 L 37.65625 -62.03125 L 37.65625 -53.171875 L 35 -50.5 L 21.703125 -50.5 C 18.753906 -50.5 17.28125 -49.023438 17.28125 -46.078125 L 17.28125 -15.953125 C 17.28125 -12.992188 18.753906 -11.515625 21.703125 -11.515625 L 28.359375 -11.515625 L 28.359375 -34.5625 L 40.3125 -34.5625 L 40.3125 0 Z M 17.71875 0 "/></g></g><g style="fill:#000000;fill-opacity:1;"><g transform="translate(67.228514, 355.749997)"><path style="stroke:none" d="M 4.296875 0 C 3.441406 0 2.757812 -0.25 2.25 -0.75 C 1.75 -1.257812 1.5 -1.941406 1.5 -2.796875 L 1.5 -11.203125 C 1.5 -12.054688 1.75 -12.734375 2.25 -13.234375 C 2.757812 -13.742188 3.441406 -14 4.296875 -14 L 8.203125 -14 L 8.203125 -13.203125 L 7.796875 -12.796875 L 4.40625 -12.796875 C 3.269531 -12.796875 2.703125 -12.226562 2.703125 -11.09375 L 2.703125 -2.90625 C 2.703125 -1.769531 3.269531 -1.203125 4.40625 -1.203125 L 8.203125 -1.203125 L 8.203125 0 Z M 4.296875 0 "/></g></g><g style="fill:#000000;fill-opacity:1;"><g transform="translate(76.125002, 355.749997)"><path style="stroke:none" d="M 3.59375 0.203125 C 2.894531 0.203125 2.320312 -0.015625 1.875 -0.453125 C 1.425781 -0.898438 1.203125 -1.445312 1.203125 -2.09375 L 1.203125 -7.796875 C 1.203125 -8.453125 1.425781 -9 1.875 -9.4375 C 2.320312 -9.875 2.894531 -10.09375 3.59375 -10.09375 L 5.796875 -10.09375 C 6.503906 -10.09375 7.082031 -9.875 7.53125 -9.4375 C 7.976562 -9 8.203125 -8.453125 8.203125 -7.796875 L 8.203125 -2.09375 C 8.203125 -1.445312 7.976562 -0.898438 7.53125 -0.453125 C 7.082031 -0.015625 6.503906 0.203125 5.796875 0.203125 Z M 5.59375 -1 C 6.050781 -1 6.398438 -1.113281 6.640625 -1.34375 C 6.878906 -1.582031 7 -1.898438 7 -2.296875 L 7 -7.59375 C 7 -8 6.878906 -8.316406 6.640625 -8.546875 C 6.398438 -8.785156 6.050781 -8.90625 5.59375 -8.90625 L 3.796875 -8.90625 C 3.347656 -8.90625 3.003906 -8.785156 2.765625 -8.546875 C 2.523438 -8.316406 2.40625 -8 2.40625 -7.59375 L 2.40625 -2.296875 C 2.40625 -1.898438 2.523438 -1.582031 2.765625 -1.34375 C 3.003906 -1.113281 3.347656 -1 3.796875 -1 Z M 5.59375 -1 "/></g></g><g style="fill:#000000;fill-opacity:1;"><g transform="translate(85.521299, 355.749997)"><path style="stroke:none" d="M 3.59375 0.203125 C 2.894531 0.203125 2.320312 -0.015625 1.875 -0.453125 C 1.425781 -0.898438 1.203125 -1.445312 1.203125 -2.09375 L 1.203125 -7.59375 C 1.203125 -8.25 1.425781 -8.796875 1.875 -9.234375 C 2.320312 -9.679688 2.894531 -9.90625 3.59375 -9.90625 L 6.90625 -9.90625 L 6.90625 -13.5 L 8.09375 -13.5 L 8.09375 0 L 7.203125 0 L 7 -1 L 6.90625 -1 C 6.78125 -0.769531 6.617188 -0.570312 6.421875 -0.40625 C 6.242188 -0.257812 6.019531 -0.125 5.75 0 C 5.488281 0.132812 5.171875 0.203125 4.796875 0.203125 Z M 4.90625 -1 C 5.5 -1 5.976562 -1.175781 6.34375 -1.53125 C 6.71875 -1.882812 6.90625 -2.34375 6.90625 -2.90625 L 6.90625 -8.703125 L 3.796875 -8.703125 C 3.347656 -8.703125 3.003906 -8.582031 2.765625 -8.34375 C 2.523438 -8.113281 2.40625 -7.800781 2.40625 -7.40625 L 2.40625 -2.296875 C 2.40625 -1.898438 2.523438 -1.582031 2.765625 -1.34375 C 3.003906 -1.113281 3.347656 -1 3.796875 -1 Z M 4.90625 -1 "/></g></g><g style="fill:#000000;fill-opacity:1;"><g transform="translate(95.017548, 355.749997)"><path style="stroke:none" d="M 1.40625 -9.90625 L 2.59375 -9.90625 L 2.59375 0 L 1.40625 0 Z M 1.40625 -13.703125 L 2.59375 -13.703125 L 2.59375 -11.703125 L 1.40625 -11.703125 Z M 1.40625 -13.703125 "/></g></g><g style="fill:#000000;fill-opacity:1;"><g transform="translate(99.015976, 355.749997)"><path style="stroke:none" d="M 1.40625 -11.40625 C 1.40625 -12.050781 1.625 -12.59375 2.0625 -13.03125 C 2.507812 -13.476562 3.085938 -13.703125 3.796875 -13.703125 L 6.09375 -13.703125 L 6.09375 -12.5 L 4 -12.5 C 3.539062 -12.5 3.191406 -12.378906 2.953125 -12.140625 C 2.710938 -11.910156 2.59375 -11.597656 2.59375 -11.203125 L 2.59375 -8.796875 L 5.296875 -8.796875 L 5.296875 -8.09375 L 5.046875 -7.59375 L 2.59375 -7.59375 L 2.59375 0 L 1.40625 0 Z M 1.40625 -11.40625 "/></g></g><g style="fill:#000000;fill-opacity:1;"><g transform="translate(105.013607, 355.749997)"><path style="stroke:none" d="M 1.40625 -9.90625 L 2.59375 -9.90625 L 2.59375 0 L 1.40625 0 Z M 1.40625 -13.703125 L 2.59375 -13.703125 L 2.59375 -11.703125 L 1.40625 -11.703125 Z M 1.40625 -13.703125 "/></g></g><g style="fill:#000000;fill-opacity:1;"><g transform="translate(109.012035, 355.749997)"><path style="stroke:none" d="M 3.59375 0 C 2.894531 0 2.320312 -0.21875 1.875 -0.65625 C 1.425781 -1.09375 1.203125 -1.640625 1.203125 -2.296875 L 1.203125 -7.59375 C 1.203125 -8.25 1.425781 -8.796875 1.875 -9.234375 C 2.320312 -9.679688 2.894531 -9.90625 3.59375 -9.90625 L 7 -9.90625 L 7 -9.09375 L 6.59375 -8.703125 L 3.796875 -8.703125 C 3.347656 -8.703125 3.003906 -8.582031 2.765625 -8.34375 C 2.523438 -8.113281 2.40625 -7.800781 2.40625 -7.40625 L 2.40625 -2.5 C 2.40625 -2.101562 2.523438 -1.785156 2.765625 -1.546875 C 3.003906 -1.316406 3.347656 -1.203125 3.796875 -1.203125 L 7 -1.203125 L 7 0 Z M 3.59375 0 "/></g></g><g style="fill:#000000;fill-opacity:1;"><g transform="translate(116.708999, 355.749997)"><path style="stroke:none" d="M 3.296875 0.203125 C 2.585938 0.203125 2.007812 -0.015625 1.5625 -0.453125 C 1.125 -0.898438 0.90625 -1.445312 0.90625 -2.09375 L 0.90625 -3.59375 C 0.90625 -4.25 1.125 -4.796875 1.5625 -5.234375 C 2.007812 -5.679688 2.585938 -5.90625 3.296875 -5.90625 L 6.40625 -5.90625 L 6.40625 -7.40625 C 6.40625 -7.800781 6.285156 -8.113281 6.046875 -8.34375 C 5.804688 -8.582031 5.457031 -8.703125 5 -8.703125 L 1.703125 -8.703125 L 1.703125 -9.90625 L 5.203125 -9.90625 C 5.910156 -9.90625 6.484375 -9.679688 6.921875 -9.234375 C 7.367188 -8.796875 7.59375 -8.25 7.59375 -7.59375 L 7.59375 0 L 6.703125 0 L 6.5 -1 L 6.40625 -1 C 6.28125 -0.769531 6.117188 -0.570312 5.921875 -0.40625 C 5.742188 -0.257812 5.519531 -0.125 5.25 0 C 4.988281 0.132812 4.671875 0.203125 4.296875 0.203125 Z M 4.40625 -1 C 5 -1 5.476562 -1.175781 5.84375 -1.53125 C 6.21875 -1.882812 6.40625 -2.34375 6.40625 -2.90625 L 6.40625 -4.703125 L 3.5 -4.703125 C 3.039062 -4.703125 2.691406 -4.582031 2.453125 -4.34375 C 2.210938 -4.113281 2.09375 -3.800781 2.09375 -3.40625 L 2.09375 -2.296875 C 2.09375 -1.898438 2.210938 -1.582031 2.453125 -1.34375 C 2.691406 -1.113281 3.039062 -1 3.5 -1 Z M 4.40625 -1 "/></g></g><g style="fill:#000000;fill-opacity:1;"><g transform="translate(125.70545, 355.749997)"><path style="stroke:none" d="M 1.40625 -9.90625 L 2.296875 -9.90625 L 2.5 -8.90625 L 2.59375 -8.90625 C 2.71875 -9.125 2.878906 -9.320312 3.078125 -9.5 C 3.253906 -9.644531 3.472656 -9.78125 3.734375 -9.90625 C 3.992188 -10.03125 4.316406 -10.09375 4.703125 -10.09375 L 5.796875 -10.09375 C 6.503906 -10.09375 7.082031 -9.875 7.53125 -9.4375 C 7.976562 -9 8.203125 -8.453125 8.203125 -7.796875 L 8.203125 0 L 7 0 L 7 -7.59375 C 7 -8 6.878906 -8.316406 6.640625 -8.546875 C 6.398438 -8.785156 6.050781 -8.90625 5.59375 -8.90625 L 4.59375 -8.90625 C 4 -8.90625 3.515625 -8.726562 3.140625 -8.375 C 2.773438 -8.019531 2.59375 -7.5625 2.59375 -7 L 2.59375 0 L 1.40625 0 Z M 1.40625 -9.90625 "/></g></g><g style="fill:#000000;fill-opacity:1;"><g transform="translate(135.301664, 355.749997)"><path style="stroke:none" d="M 3.59375 0.203125 C 2.894531 0.203125 2.320312 -0.015625 1.875 -0.453125 C 1.425781 -0.898438 1.203125 -1.445312 1.203125 -2.09375 L 1.203125 -7.59375 C 1.203125 -8.25 1.425781 -8.796875 1.875 -9.234375 C 2.320312 -9.679688 2.894531 -9.90625 3.59375 -9.90625 L 6.90625 -9.90625 L 6.90625 -13.5 L 8.09375 -13.5 L 8.09375 0 L 7.203125 0 L 7 -1 L 6.90625 -1 C 6.78125 -0.769531 6.617188 -0.570312 6.421875 -0.40625 C 6.242188 -0.257812 6.019531 -0.125 5.75 0 C 5.488281 0.132812 5.171875 0.203125 4.796875 0.203125 Z M 4.90625 -1 C 5.5 -1 5.976562 -1.175781 6.34375 -1.53125 C 6.71875 -1.882812 6.90625 -2.34375 6.90625 -2.90625 L 6.90625 -8.703125 L 3.796875 -8.703125 C 3.347656 -8.703125 3.003906 -8.582031 2.765625 -8.34375 C 2.523438 -8.113281 2.40625 -7.800781 2.40625 -7.40625 L 2.40625 -2.296875 C 2.40625 -1.898438 2.523438 -1.582031 2.765625 -1.34375 C 3.003906 -1.113281 3.347656 -1 3.796875 -1 Z M 4.90625 -1 "/></g></g><g style="fill:#000000;fill-opacity:1;"><g transform="translate(144.797914, 355.749997)"><path style="stroke:none" d="M 3.59375 0.203125 C 2.894531 0.203125 2.320312 -0.015625 1.875 -0.453125 C 1.425781 -0.898438 1.203125 -1.445312 1.203125 -2.09375 L 1.203125 -7.796875 C 1.203125 -8.453125 1.425781 -9 1.875 -9.4375 C 2.320312 -9.875 2.894531 -10.09375 3.59375 -10.09375 L 5.796875 -10.09375 C 6.503906 -10.09375 7.082031 -9.875 7.53125 -9.4375 C 7.976562 -9 8.203125 -8.453125 8.203125 -7.796875 L 8.203125 -2.09375 C 8.203125 -1.445312 7.976562 -0.898438 7.53125 -0.453125 C 7.082031 -0.015625 6.503906 0.203125 5.796875 0.203125 Z M 5.59375 -1 C 6.050781 -1 6.398438 -1.113281 6.640625 -1.34375 C 6.878906 -1.582031 7 -1.898438 7 -2.296875 L 7 -7.59375 C 7 -8 6.878906 -8.316406 6.640625 -8.546875 C 6.398438 -8.785156 6.050781 -8.90625 5.59375 -8.90625 L 3.796875 -8.90625 C 3.347656 -8.90625 3.003906 -8.785156 2.765625 -8.546875 C 2.523438 -8.316406 2.40625 -8 2.40625 -7.59375 L 2.40625 -2.296875 C 2.40625 -1.898438 2.523438 -1.582031 2.765625 -1.34375 C 3.003906 -1.113281 3.347656 -1 3.796875 -1 Z M 5.59375 -1 "/></g></g><g style="fill:#000000;fill-opacity:1;"><g transform="translate(154.19421, 355.749997)"><path style="stroke:none" d=""/></g></g><g style="fill:#000000;fill-opacity:1;"><g transform="translate(157.99271, 355.749997)"><path style="stroke:none" d="M 3.796875 0.203125 C 3.085938 0.203125 2.507812 -0.015625 2.0625 -0.453125 C 1.625 -0.898438 1.40625 -1.445312 1.40625 -2.09375 L 1.40625 -9.90625 L 2.59375 -9.90625 L 2.59375 -2.296875 C 2.59375 -1.898438 2.710938 -1.582031 2.953125 -1.34375 C 3.191406 -1.113281 3.539062 -1 4 -1 L 5 -1 C 5.601562 -1 6.085938 -1.175781 6.453125 -1.53125 C 6.816406 -1.882812 7 -2.34375 7 -2.90625 L 7 -9.90625 L 8.203125 -9.90625 L 8.203125 0 L 7.296875 0 L 7.09375 -1 L 7 -1 C 6.875 -0.769531 6.710938 -0.570312 6.515625 -0.40625 C 6.347656 -0.257812 6.128906 -0.125 5.859375 0 C 5.585938 0.132812 5.269531 0.203125 4.90625 0.203125 Z M 3.796875 0.203125 "/></g></g><g style="fill:#000000;fill-opacity:1;"><g transform="translate(167.588924, 355.749997)"><path style="stroke:none" d="M 1.40625 -9.90625 L 2.296875 -9.90625 L 2.5 -8.90625 L 2.59375 -8.90625 C 2.71875 -9.125 2.878906 -9.320312 3.078125 -9.5 C 3.253906 -9.644531 3.472656 -9.78125 3.734375 -9.90625 C 3.992188 -10.03125 4.316406 -10.09375 4.703125 -10.09375 L 5.5 -10.09375 C 5.84375 -10.09375 6.140625 -10.03125 6.390625 -9.90625 C 6.640625 -9.78125 6.835938 -9.644531 6.984375 -9.5 C 7.148438 -9.320312 7.289062 -9.125 7.40625 -8.90625 L 7.5 -8.90625 C 7.601562 -9.125 7.742188 -9.320312 7.921875 -9.5 C 8.066406 -9.644531 8.257812 -9.78125 8.5 -9.90625 C 8.75 -10.03125 9.050781 -10.09375 9.40625 -10.09375 L 10.796875 -10.09375 C 11.503906 -10.09375 12.082031 -9.875 12.53125 -9.4375 C 12.976562 -9 13.203125 -8.453125 13.203125 -7.796875 L 13.203125 0 L 12 0 L 12 -7.59375 C 12 -8 11.878906 -8.316406 11.640625 -8.546875 C 11.398438 -8.785156 11.050781 -8.90625 10.59375 -8.90625 L 9.296875 -8.90625 C 8.847656 -8.90625 8.503906 -8.785156 8.265625 -8.546875 C 8.023438 -8.316406 7.90625 -8 7.90625 -7.59375 L 7.90625 0 L 6.703125 0 L 6.703125 -7.59375 C 6.703125 -8 6.582031 -8.316406 6.34375 -8.546875 C 6.101562 -8.785156 5.753906 -8.90625 5.296875 -8.90625 L 4.59375 -8.90625 C 4 -8.90625 3.515625 -8.726562 3.140625 -8.375 C 2.773438 -8.019531 2.59375 -7.5625 2.59375 -7 L 2.59375 0 L 1.40625 0 Z M 1.40625 -9.90625 "/></g></g><g style="fill:#000000;fill-opacity:1;"><g transform="translate(182.183161, 355.749997)"><path style="stroke:none" d=""/></g></g><g style="fill:#000000;fill-opacity:1;"><g transform="translate(185.981661, 355.749997)"><path style="stroke:none" d="M 1.40625 -11.40625 C 1.40625 -12.050781 1.625 -12.59375 2.0625 -13.03125 C 2.507812 -13.476562 3.085938 -13.703125 3.796875 -13.703125 L 6.09375 -13.703125 L 6.09375 -12.5 L 4 -12.5 C 3.539062 -12.5 3.191406 -12.378906 2.953125 -12.140625 C 2.710938 -11.910156 2.59375 -11.597656 2.59375 -11.203125 L 2.59375 -8.796875 L 5.296875 -8.796875 L 5.296875 -8.09375 L 5.046875 -7.59375 L 2.59375 -7.59375 L 2.59375 0 L 1.40625 0 Z M 1.40625 -11.40625 "/></g></g><g style="fill:#000000;fill-opacity:1;"><g transform="translate(191.979291, 355.749997)"><path style="stroke:none" d="M 3.796875 0.203125 C 3.085938 0.203125 2.507812 -0.015625 2.0625 -0.453125 C 1.625 -0.898438 1.40625 -1.445312 1.40625 -2.09375 L 1.40625 -9.90625 L 2.59375 -9.90625 L 2.59375 -2.296875 C 2.59375 -1.898438 2.710938 -1.582031 2.953125 -1.34375 C 3.191406 -1.113281 3.539062 -1 4 -1 L 5 -1 C 5.601562 -1 6.085938 -1.175781 6.453125 -1.53125 C 6.816406 -1.882812 7 -2.34375 7 -2.90625 L 7 -9.90625 L 8.203125 -9.90625 L 8.203125 0 L 7.296875 0 L 7.09375 -1 L 7 -1 C 6.875 -0.769531 6.710938 -0.570312 6.515625 -0.40625 C 6.347656 -0.257812 6.128906 -0.125 5.859375 0 C 5.585938 0.132812 5.269531 0.203125 4.90625 0.203125 Z M 3.796875 0.203125 "/></g></g><g style="fill:#000000;fill-opacity:1;"><g transform="translate(201.575505, 355.749997)"><path style="stroke:none" d="M 4.296875 0 C 3.585938 0 3.007812 -0.21875 2.5625 -0.65625 C 2.125 -1.09375 1.90625 -1.640625 1.90625 -2.296875 L 1.90625 -8.703125 L 0.40625 -8.703125 L 0.40625 -9.90625 L 1.90625 -9.90625 L 2.40625 -13 L 3.09375 -13 L 3.09375 -9.90625 L 5.5 -9.90625 L 5.5 -9.09375 L 5.09375 -8.703125 L 3.09375 -8.703125 L 3.09375 -2.5 C 3.09375 -2.101562 3.210938 -1.785156 3.453125 -1.546875 C 3.691406 -1.316406 4.039062 -1.203125 4.5 -1.203125 L 5.90625 -1.203125 L 5.90625 0 Z M 4.296875 0 "/></g></g><g style="fill:#000000;fill-opacity:1;"><g transform="translate(207.972981, 355.749997)"><path style="stroke:none" d="M 3.796875 0.203125 C 3.085938 0.203125 2.507812 -0.015625 2.0625 -0.453125 C 1.625 -0.898438 1.40625 -1.445312 1.40625 -2.09375 L 1.40625 -9.90625 L 2.59375 -9.90625 L 2.59375 -2.296875 C 2.59375 -1.898438 2.710938 -1.582031 2.953125 -1.34375 C 3.191406 -1.113281 3.539062 -1 4 -1 L 5 -1 C 5.601562 -1 6.085938 -1.175781 6.453125 -1.53125 C 6.816406 -1.882812 7 -2.34375 7 -2.90625 L 7 -9.90625 L 8.203125 -9.90625 L 8.203125 0 L 7.296875 0 L 7.09375 -1 L 7 -1 C 6.875 -0.769531 6.710938 -0.570312 6.515625 -0.40625 C 6.347656 -0.257812 6.128906 -0.125 5.859375 0 C 5.585938 0.132812 5.269531 0.203125 4.90625 0.203125 Z M 3.796875 0.203125 "/></g></g><g style="fill:#000000;fill-opacity:1;"><g transform="translate(217.569195, 355.749997)"><path style="stroke:none" d="M 1.40625 -9.90625 L 2.296875 -9.90625 L 2.5 -8.90625 L 2.59375 -8.90625 C 2.71875 -9.125 2.878906 -9.320312 3.078125 -9.5 C 3.253906 -9.644531 3.472656 -9.78125 3.734375 -9.90625 C 3.992188 -10.03125 4.316406 -10.09375 4.703125 -10.09375 L 6.09375 -10.09375 L 6.09375 -8.90625 L 4.59375 -8.90625 C 4 -8.90625 3.515625 -8.726562 3.140625 -8.375 C 2.773438 -8.019531 2.59375 -7.5625 2.59375 -7 L 2.59375 0 L 1.40625 0 Z M 1.40625 -9.90625 "/></g></g><g style="fill:#000000;fill-opacity:1;"><g transform="translate(223.866706, 355.749997)"><path style="stroke:none" d="M 3.59375 0.203125 C 2.894531 0.203125 2.320312 -0.015625 1.875 -0.453125 C 1.425781 -0.898438 1.203125 -1.445312 1.203125 -2.09375 L 1.203125 -7.796875 C 1.203125 -8.453125 1.425781 -9 1.875 -9.4375 C 2.320312 -9.875 2.894531 -10.09375 3.59375 -10.09375 L 5.796875 -10.09375 C 6.503906 -10.09375 7.082031 -9.875 7.53125 -9.4375 C 7.976562 -9 8.203125 -8.453125 8.203125 -7.796875 L 8.203125 -2.09375 C 8.203125 -1.445312 7.976562 -0.898438 7.53125 -0.453125 C 7.082031 -0.015625 6.503906 0.203125 5.796875 0.203125 Z M 5.59375 -1 C 6.050781 -1 6.398438 -1.113281 6.640625 -1.34375 C 6.878906 -1.582031 7 -1.898438 7 -2.296875 L 7 -7.59375 C 7 -8 6.878906 -8.316406 6.640625 -8.546875 C 6.398438 -8.785156 6.050781 -8.90625 5.59375 -8.90625 L 3.796875 -8.90625 C 3.347656 -8.90625 3.003906 -8.785156 2.765625 -8.546875 C 2.523438 -8.316406 2.40625 -8 2.40625 -7.59375 L 2.40625 -2.296875 C 2.40625 -1.898438 2.523438 -1.582031 2.765625 -1.34375 C 3.003906 -1.113281 3.347656 -1 3.796875 -1 Z M 5.59375 -1 "/></g></g><g style="fill:#000000;fill-opacity:1;"><g transform="translate(233.263003, 355.749997)"><path style="stroke:none" d=""/></g></g><g style="fill:#000000;fill-opacity:1;"><g transform="translate(237.061503, 355.749997)"><path style="stroke:none" d="M 0.90625 -1.203125 L 4.796875 -1.203125 C 5.253906 -1.203125 5.601562 -1.316406 5.84375 -1.546875 C 6.082031 -1.785156 6.203125 -2.101562 6.203125 -2.5 L 6.203125 -2.796875 C 6.203125 -3.203125 6.109375 -3.503906 5.921875 -3.703125 C 5.742188 -3.898438 5.503906 -4.03125 5.203125 -4.09375 L 2.796875 -4.59375 C 2.203125 -4.726562 1.738281 -4.984375 1.40625 -5.359375 C 1.070312 -5.734375 0.90625 -6.25 0.90625 -6.90625 L 0.90625 -7.59375 C 0.90625 -8.25 1.125 -8.796875 1.5625 -9.234375 C 2.007812 -9.679688 2.585938 -9.90625 3.296875 -9.90625 L 7 -9.90625 L 7 -9.09375 L 6.59375 -8.703125 L 3.5 -8.703125 C 3.039062 -8.703125 2.691406 -8.582031 2.453125 -8.34375 C 2.210938 -8.113281 2.09375 -7.800781 2.09375 -7.40625 L 2.09375 -7.09375 C 2.09375 -6.695312 2.179688 -6.398438 2.359375 -6.203125 C 2.546875 -6.003906 2.789062 -5.867188 3.09375 -5.796875 L 5.5 -5.296875 C 6.101562 -5.160156 6.570312 -4.90625 6.90625 -4.53125 C 7.238281 -4.164062 7.40625 -3.65625 7.40625 -3 L 7.40625 -2.296875 C 7.40625 -1.640625 7.179688 -1.09375 6.734375 -0.65625 C 6.285156 -0.21875 5.707031 0 5 0 L 0.90625 0 Z M 0.90625 -1.203125 "/></g></g><g style="fill:#000000;fill-opacity:1;"><g transform="translate(245.058347, 355.749997)"><path style="stroke:none" d="M 3.796875 0.203125 C 3.085938 0.203125 2.507812 -0.015625 2.0625 -0.453125 C 1.625 -0.898438 1.40625 -1.445312 1.40625 -2.09375 L 1.40625 -9.90625 L 2.59375 -9.90625 L 2.59375 -2.296875 C 2.59375 -1.898438 2.710938 -1.582031 2.953125 -1.34375 C 3.191406 -1.113281 3.539062 -1 4 -1 L 5 -1 C 5.601562 -1 6.085938 -1.175781 6.453125 -1.53125 C 6.816406 -1.882812 7 -2.34375 7 -2.90625 L 7 -9.90625 L 8.203125 -9.90625 L 8.203125 0 L 7.296875 0 L 7.09375 -1 L 7 -1 C 6.875 -0.769531 6.710938 -0.570312 6.515625 -0.40625 C 6.347656 -0.257812 6.128906 -0.125 5.859375 0 C 5.585938 0.132812 5.269531 0.203125 4.90625 0.203125 Z M 3.796875 0.203125 "/></g></g><g style="fill:#000000;fill-opacity:1;"><g transform="translate(254.654561, 355.749997)"><path style="stroke:none" d="M 3.59375 0 C 2.894531 0 2.320312 -0.21875 1.875 -0.65625 C 1.425781 -1.09375 1.203125 -1.640625 1.203125 -2.296875 L 1.203125 -7.59375 C 1.203125 -8.25 1.425781 -8.796875 1.875 -9.234375 C 2.320312 -9.679688 2.894531 -9.90625 3.59375 -9.90625 L 7 -9.90625 L 7 -9.09375 L 6.59375 -8.703125 L 3.796875 -8.703125 C 3.347656 -8.703125 3.003906 -8.582031 2.765625 -8.34375 C 2.523438 -8.113281 2.40625 -7.800781 2.40625 -7.40625 L 2.40625 -2.5 C 2.40625 -2.101562 2.523438 -1.785156 2.765625 -1.546875 C 3.003906 -1.316406 3.347656 -1.203125 3.796875 -1.203125 L 7 -1.203125 L 7 0 Z M 3.59375 0 "/></g></g><g style="fill:#000000;fill-opacity:1;"><g transform="translate(262.351525, 355.749997)"><path style="stroke:none" d="M 3.59375 0 C 2.894531 0 2.320312 -0.21875 1.875 -0.65625 C 1.425781 -1.09375 1.203125 -1.640625 1.203125 -2.296875 L 1.203125 -7.796875 C 1.203125 -8.453125 1.425781 -9 1.875 -9.4375 C 2.320312 -9.875 2.894531 -10.09375 3.59375 -10.09375 L 5.703125 -10.09375 C 6.410156 -10.09375 6.984375 -9.875 7.421875 -9.4375 C 7.867188 -9 8.09375 -8.453125 8.09375 -7.796875 L 8.09375 -4.203125 L 2.40625 -4.203125 L 2.40625 -2.5 C 2.40625 -2.101562 2.523438 -1.785156 2.765625 -1.546875 C 3.003906 -1.316406 3.347656 -1.203125 3.796875 -1.203125 L 7.703125 -1.203125 L 7.703125 0 Z M 6.90625 -5.40625 L 6.90625 -7.59375 C 6.90625 -8 6.785156 -8.316406 6.546875 -8.546875 C 6.304688 -8.785156 5.957031 -8.90625 5.5 -8.90625 L 3.796875 -8.90625 C 3.347656 -8.90625 3.003906 -8.785156 2.765625 -8.546875 C 2.523438 -8.316406 2.40625 -8 2.40625 -7.59375 L 2.40625 -5.40625 Z M 6.90625 -5.40625 "/></g></g><g style="fill:#000000;fill-opacity:1;"><g transform="translate(271.547882, 355.749997)"><path style="stroke:none" d="M 0.90625 -1.203125 L 4.796875 -1.203125 C 5.253906 -1.203125 5.601562 -1.316406 5.84375 -1.546875 C 6.082031 -1.785156 6.203125 -2.101562 6.203125 -2.5 L 6.203125 -2.796875 C 6.203125 -3.203125 6.109375 -3.503906 5.921875 -3.703125 C 5.742188 -3.898438 5.503906 -4.03125 5.203125 -4.09375 L 2.796875 -4.59375 C 2.203125 -4.726562 1.738281 -4.984375 1.40625 -5.359375 C 1.070312 -5.734375 0.90625 -6.25 0.90625 -6.90625 L 0.90625 -7.59375 C 0.90625 -8.25 1.125 -8.796875 1.5625 -9.234375 C 2.007812 -9.679688 2.585938 -9.90625 3.296875 -9.90625 L 7 -9.90625 L 7 -9.09375 L 6.59375 -8.703125 L 3.5 -8.703125 C 3.039062 -8.703125 2.691406 -8.582031 2.453125 -8.34375 C 2.210938 -8.113281 2.09375 -7.800781 2.09375 -7.40625 L 2.09375 -7.09375 C 2.09375 -6.695312 2.179688 -6.398438 2.359375 -6.203125 C 2.546875 -6.003906 2.789062 -5.867188 3.09375 -5.796875 L 5.5 -5.296875 C 6.101562 -5.160156 6.570312 -4.90625 6.90625 -4.53125 C 7.238281 -4.164062 7.40625 -3.65625 7.40625 -3 L 7.40625 -2.296875 C 7.40625 -1.640625 7.179688 -1.09375 6.734375 -0.65625 C 6.285156 -0.21875 5.707031 0 5 0 L 0.90625 0 Z M 0.90625 -1.203125 "/></g></g><g style="fill:#000000;fill-opacity:1;"><g transform="translate(279.544738, 355.749997)"><path style="stroke:none" d="M 0.90625 -1.203125 L 4.796875 -1.203125 C 5.253906 -1.203125 5.601562 -1.316406 5.84375 -1.546875 C 6.082031 -1.785156 6.203125 -2.101562 6.203125 -2.5 L 6.203125 -2.796875 C 6.203125 -3.203125 6.109375 -3.503906 5.921875 -3.703125 C 5.742188 -3.898438 5.503906 -4.03125 5.203125 -4.09375 L 2.796875 -4.59375 C 2.203125 -4.726562 1.738281 -4.984375 1.40625 -5.359375 C 1.070312 -5.734375 0.90625 -6.25 0.90625 -6.90625 L 0.90625 -7.59375 C 0.90625 -8.25 1.125 -8.796875 1.5625 -9.234375 C 2.007812 -9.679688 2.585938 -9.90625 3.296875 -9.90625 L 7 -9.90625 L 7 -9.09375 L 6.59375 -8.703125 L 3.5 -8.703125 C 3.039062 -8.703125 2.691406 -8.582031 2.453125 -8.34375 C 2.210938 -8.113281 2.09375 -7.800781 2.09375 -7.40625 L 2.09375 -7.09375 C 2.09375 -6.695312 2.179688 -6.398438 2.359375 -6.203125 C 2.546875 -6.003906 2.789062 -5.867188 3.09375 -5.796875 L 5.5 -5.296875 C 6.101562 -5.160156 6.570312 -4.90625 6.90625 -4.53125 C 7.238281 -4.164062 7.40625 -3.65625 7.40625 -3 L 7.40625 -2.296875 C 7.40625 -1.640625 7.179688 -1.09375 6.734375 -0.65625 C 6.285156 -0.21875 5.707031 0 5 0 L 0.90625 0 Z M 0.90625 -1.203125 "/></g></g><g style="fill:#000000;fill-opacity:1;"><g transform="translate(287.541594, 355.749997)"><path style="stroke:none" d="M 3.59375 0.203125 C 2.894531 0.203125 2.320312 -0.015625 1.875 -0.453125 C 1.425781 -0.898438 1.203125 -1.445312 1.203125 -2.09375 L 1.203125 -7.796875 C 1.203125 -8.453125 1.425781 -9 1.875 -9.4375 C 2.320312 -9.875 2.894531 -10.09375 3.59375 -10.09375 L 5.796875 -10.09375 C 6.503906 -10.09375 7.082031 -9.875 7.53125 -9.4375 C 7.976562 -9 8.203125 -8.453125 8.203125 -7.796875 L 8.203125 -2.09375 C 8.203125 -1.445312 7.976562 -0.898438 7.53125 -0.453125 C 7.082031 -0.015625 6.503906 0.203125 5.796875 0.203125 Z M 5.59375 -1 C 6.050781 -1 6.398438 -1.113281 6.640625 -1.34375 C 6.878906 -1.582031 7 -1.898438 7 -2.296875 L 7 -7.59375 C 7 -8 6.878906 -8.316406 6.640625 -8.546875 C 6.398438 -8.785156 6.050781 -8.90625 5.59375 -8.90625 L 3.796875 -8.90625 C 3.347656 -8.90625 3.003906 -8.785156 2.765625 -8.546875 C 2.523438 -8.316406 2.40625 -8 2.40625 -7.59375 L 2.40625 -2.296875 C 2.40625 -1.898438 2.523438 -1.582031 2.765625 -1.34375 C 3.003906 -1.113281 3.347656 -1 3.796875 -1 Z M 5.59375 -1 "/></g></g><path style="fill:none;stroke-width:38.966;stroke-linecap:round;stroke-linejoin:round;stroke:#555555;stroke-opacity:1;stroke-miterlimit:4;" d="M 125.284578 700.906875 L 23.72117 802.472861 L 125.284578 904.024381 " transform="matrix(0.27069,0,0,0.270029,114.110169,68.85187)"/><path style="fill:none;stroke-width:38.966;stroke-linecap:round;stroke-linejoin:round;stroke:#555555;stroke-opacity:1;stroke-miterlimit:4;" d="M 376.970766 700.906875 L 478.534174 802.472861 L 376.970766 904.024381 " transform="matrix(0.27069,0,0,0.270029,114.110169,68.85187)"/><g clip-rule="nonzero" clip-path="url(#83eedb5673)"><path style="fill:none;stroke-width:38.966;stroke-linecap:round;stroke-linejoin:round;stroke:#555555;stroke-opacity:1;stroke-miterlimit:4;" d="M 274.858991 670.224429 L 220.238716 935.994304 " transform="matrix(0.27069,0,0,0.270029,114.110169,68.85187)"/></g><g style="fill:#000000;fill-opacity:1;"><g transform="translate(29.376228, 175.243623)"><path style="stroke:none" d="M 0.09375 -0.671875 L 2.015625 -6.734375 L 3.84375 -6.734375 L 5.78125 -0.671875 L 5.78125 0 L 4.375 0 L 4.046875 -1.34375 L 1.828125 -1.34375 L 1.484375 0 L 0.09375 0 Z M 3.703125 -2.59375 L 2.984375 -5.4375 L 2.890625 -5.4375 L 2.171875 -2.59375 Z M 3.703125 -2.59375 "/></g></g><g style="fill:#000000;fill-opacity:1;"><g transform="translate(35.246495, 175.243623)"><path style="stroke:none" d="M 0.53125 -4.90625 L 1.484375 -4.90625 L 1.6875 -4.375 L 1.734375 -4.375 C 1.796875 -4.488281 1.878906 -4.59375 1.984375 -4.6875 C 2.078125 -4.757812 2.191406 -4.828125 2.328125 -4.890625 C 2.460938 -4.960938 2.632812 -5 2.84375 -5 L 3.703125 -5 L 3.703125 -3.65625 L 2.5 -3.65625 C 2.113281 -3.65625 1.921875 -3.460938 1.921875 -3.078125 L 1.921875 0 L 0.53125 0 Z M 0.53125 -4.90625 "/></g></g><g style="fill:#000000;fill-opacity:1;"><g transform="translate(39.095851, 175.243623)"><path style="stroke:none" d="M 3.421875 -0.578125 L 3.375 -0.578125 C 3.320312 -0.460938 3.242188 -0.363281 3.140625 -0.28125 C 3.054688 -0.21875 2.945312 -0.15625 2.8125 -0.09375 C 2.6875 -0.03125 2.519531 0 2.3125 0 L 1.6875 0 C 1.519531 0 1.359375 -0.03125 1.203125 -0.09375 C 1.054688 -0.164062 0.925781 -0.257812 0.8125 -0.375 C 0.695312 -0.488281 0.601562 -0.617188 0.53125 -0.765625 C 0.46875 -0.921875 0.4375 -1.082031 0.4375 -1.25 L 0.4375 -3.65625 C 0.4375 -3.832031 0.46875 -3.992188 0.53125 -4.140625 C 0.59375 -4.296875 0.679688 -4.429688 0.796875 -4.546875 C 0.910156 -4.660156 1.039062 -4.75 1.1875 -4.8125 C 1.34375 -4.875 1.507812 -4.90625 1.6875 -4.90625 L 4.8125 -4.90625 L 4.8125 1.640625 L 3.421875 1.640625 Z M 2.75 -1.25 C 2.988281 -1.25 3.160156 -1.300781 3.265625 -1.40625 C 3.367188 -1.507812 3.421875 -1.679688 3.421875 -1.921875 L 3.421875 -3.65625 L 2.3125 -3.65625 C 1.988281 -3.65625 1.828125 -3.492188 1.828125 -3.171875 L 1.828125 -1.734375 C 1.828125 -1.410156 1.988281 -1.25 2.3125 -1.25 Z M 2.75 -1.25 "/></g></g><g style="fill:#000000;fill-opacity:1;"><g transform="translate(44.43683, 175.243623)"><path style="stroke:none" d="M 1.78125 0.09375 C 1.613281 0.09375 1.453125 0.0625 1.296875 0 C 1.148438 -0.0703125 1.019531 -0.164062 0.90625 -0.28125 C 0.789062 -0.394531 0.695312 -0.523438 0.625 -0.671875 C 0.5625 -0.828125 0.53125 -0.988281 0.53125 -1.15625 L 0.53125 -4.90625 L 1.921875 -4.90625 L 1.921875 -1.640625 C 1.921875 -1.316406 2.082031 -1.15625 2.40625 -1.15625 L 2.6875 -1.15625 C 2.9375 -1.15625 3.113281 -1.207031 3.21875 -1.3125 C 3.320312 -1.414062 3.375 -1.585938 3.375 -1.828125 L 3.375 -4.90625 L 4.765625 -4.90625 L 4.765625 0 L 3.796875 0 L 3.609375 -0.53125 L 3.5625 -0.53125 C 3.5 -0.40625 3.414062 -0.300781 3.3125 -0.21875 C 3.21875 -0.132812 3.101562 -0.0625 2.96875 0 C 2.832031 0.0625 2.660156 0.09375 2.453125 0.09375 Z M 1.78125 0.09375 "/></g></g><g style="fill:#000000;fill-opacity:1;"><g transform="translate(49.729693, 175.243623)"><path style="stroke:none" d="M 1.6875 0 C 1.519531 0 1.359375 -0.03125 1.203125 -0.09375 C 1.054688 -0.164062 0.925781 -0.257812 0.8125 -0.375 C 0.695312 -0.488281 0.601562 -0.617188 0.53125 -0.765625 C 0.46875 -0.921875 0.4375 -1.082031 0.4375 -1.25 L 0.4375 -3.75 C 0.4375 -3.914062 0.46875 -4.070312 0.53125 -4.21875 C 0.601562 -4.375 0.695312 -4.507812 0.8125 -4.625 C 0.925781 -4.738281 1.054688 -4.828125 1.203125 -4.890625 C 1.359375 -4.960938 1.519531 -5 1.6875 -5 L 3.515625 -5 C 3.679688 -5 3.835938 -4.960938 3.984375 -4.890625 C 4.140625 -4.828125 4.273438 -4.738281 4.390625 -4.625 C 4.503906 -4.507812 4.59375 -4.375 4.65625 -4.21875 C 4.726562 -4.070312 4.765625 -3.914062 4.765625 -3.75 L 4.765625 -1.921875 L 1.828125 -1.921875 L 1.828125 -1.59375 C 1.828125 -1.269531 1.988281 -1.109375 2.3125 -1.109375 L 4.53125 -1.109375 L 4.53125 0 Z M 3.375 -2.984375 L 3.375 -3.421875 C 3.375 -3.734375 3.210938 -3.890625 2.890625 -3.890625 L 2.3125 -3.890625 C 1.988281 -3.890625 1.828125 -3.734375 1.828125 -3.421875 L 1.828125 -2.984375 Z M 2.796875 -7.21875 L 4.234375 -7.21875 L 3.125 -5.671875 L 2.015625 -5.671875 Z M 2.796875 -7.21875 "/></g></g><g style="fill:#000000;fill-opacity:1;"><g transform="translate(54.878204, 175.243623)"><path style="stroke:none" d="M 2.171875 0 C 2.003906 0 1.84375 -0.03125 1.6875 -0.09375 C 1.539062 -0.164062 1.40625 -0.257812 1.28125 -0.375 C 1.164062 -0.488281 1.078125 -0.617188 1.015625 -0.765625 C 0.953125 -0.921875 0.921875 -1.082031 0.921875 -1.25 L 0.921875 -3.75 L 0.234375 -3.75 L 0.234375 -4.90625 L 1.015625 -4.90625 L 1.484375 -6.25 L 2.3125 -6.25 L 2.3125 -4.90625 L 3.46875 -4.90625 L 3.46875 -4.140625 L 3.078125 -3.75 L 2.3125 -3.75 L 2.3125 -1.734375 C 2.3125 -1.410156 2.472656 -1.25 2.796875 -1.25 L 3.609375 -1.25 L 3.609375 0 Z M 2.171875 0 "/></g></g><g style="fill:#000000;fill-opacity:1;"><g transform="translate(58.823791, 175.243623)"><path style="stroke:none" d="M 0.578125 -4.90625 L 1.96875 -4.90625 L 1.96875 0 L 0.578125 0 Z M 0.578125 -6.9375 L 1.96875 -6.9375 L 1.96875 -5.484375 L 0.578125 -5.484375 Z M 0.578125 -6.9375 "/></g></g><g style="fill:#000000;fill-opacity:1;"><g transform="translate(61.373986, 175.243623)"><path style="stroke:none" d="M 0.53125 -4.90625 L 1.484375 -4.90625 L 1.6875 -4.375 L 1.734375 -4.375 C 1.796875 -4.488281 1.878906 -4.59375 1.984375 -4.6875 C 2.078125 -4.757812 2.191406 -4.828125 2.328125 -4.890625 C 2.460938 -4.960938 2.632812 -5 2.84375 -5 L 3.65625 -5 C 3.820312 -5 3.976562 -4.960938 4.125 -4.890625 C 4.28125 -4.828125 4.414062 -4.738281 4.53125 -4.625 C 4.644531 -4.507812 4.734375 -4.375 4.796875 -4.21875 C 4.867188 -4.070312 4.90625 -3.914062 4.90625 -3.75 L 4.90625 -1.25 C 4.90625 -1.082031 4.867188 -0.921875 4.796875 -0.765625 C 4.734375 -0.617188 4.644531 -0.488281 4.53125 -0.375 C 4.414062 -0.257812 4.28125 -0.164062 4.125 -0.09375 C 3.976562 -0.03125 3.820312 0 3.65625 0 L 1.921875 0 L 1.921875 1.640625 L 0.53125 1.640625 Z M 3.03125 -1.25 C 3.351562 -1.25 3.515625 -1.410156 3.515625 -1.734375 L 3.515625 -3.265625 C 3.515625 -3.585938 3.351562 -3.75 3.03125 -3.75 L 2.59375 -3.75 C 2.351562 -3.75 2.179688 -3.695312 2.078125 -3.59375 C 1.972656 -3.5 1.921875 -3.328125 1.921875 -3.078125 L 1.921875 -1.25 Z M 3.03125 -1.25 "/></g></g><g style="fill:#000000;fill-opacity:1;"><g transform="translate(66.714964, 175.243623)"><path style="stroke:none" d="M 1.6875 0.09375 C 1.519531 0.09375 1.359375 0.0625 1.203125 0 C 1.054688 -0.0703125 0.925781 -0.164062 0.8125 -0.28125 C 0.695312 -0.394531 0.601562 -0.523438 0.53125 -0.671875 C 0.46875 -0.828125 0.4375 -0.988281 0.4375 -1.15625 L 0.4375 -3.75 C 0.4375 -3.914062 0.46875 -4.070312 0.53125 -4.21875 C 0.601562 -4.375 0.695312 -4.507812 0.8125 -4.625 C 0.925781 -4.738281 1.054688 -4.828125 1.203125 -4.890625 C 1.359375 -4.960938 1.519531 -5 1.6875 -5 L 3.609375 -5 C 3.773438 -5 3.929688 -4.960938 4.078125 -4.890625 C 4.234375 -4.828125 4.367188 -4.738281 4.484375 -4.625 C 4.597656 -4.507812 4.6875 -4.375 4.75 -4.21875 C 4.820312 -4.070312 4.859375 -3.914062 4.859375 -3.75 L 4.859375 -1.15625 C 4.859375 -0.988281 4.820312 -0.828125 4.75 -0.671875 C 4.6875 -0.523438 4.597656 -0.394531 4.484375 -0.28125 C 4.367188 -0.164062 4.234375 -0.0703125 4.078125 0 C 3.929688 0.0625 3.773438 0.09375 3.609375 0.09375 Z M 2.984375 -1.15625 C 3.304688 -1.15625 3.46875 -1.316406 3.46875 -1.640625 L 3.46875 -3.265625 C 3.46875 -3.585938 3.304688 -3.75 2.984375 -3.75 L 2.3125 -3.75 C 1.988281 -3.75 1.828125 -3.585938 1.828125 -3.265625 L 1.828125 -1.640625 C 1.828125 -1.316406 1.988281 -1.15625 2.3125 -1.15625 Z M 2.984375 -1.15625 "/></g></g><g style="fill:#000000;fill-opacity:1;"><g transform="translate(72.007828, 175.243623)"><path style="stroke:none" d="M 0.4375 -1.4375 L 1.6875 -1.4375 L 1.6875 0 L 0.4375 0 Z M 0.4375 -4.90625 L 1.6875 -4.90625 L 1.6875 -3.46875 L 0.4375 -3.46875 Z M 0.4375 -4.90625 "/></g></g><g style="fill:#000000;fill-opacity:1;"><g transform="translate(74.124971, 175.243623)"><path style="stroke:none" d=""/></g></g><g style="fill:#000000;fill-opacity:1;"><g transform="translate(76.530819, 175.243623)"><path style="stroke:none" d="M 0.625 -6.734375 L 2.0625 -6.734375 L 2.0625 -4.09375 L 4.28125 -4.09375 L 4.28125 -6.734375 L 5.734375 -6.734375 L 5.734375 0 L 4.28125 0 L 4.28125 -2.75 L 2.0625 -2.75 L 2.0625 0 L 0.625 0 Z M 0.625 -6.734375 "/></g></g><g style="fill:#000000;fill-opacity:1;"><g transform="translate(82.882253, 175.243623)"><path style="stroke:none" d="M 1.6875 0 C 1.519531 0 1.359375 -0.03125 1.203125 -0.09375 C 1.054688 -0.164062 0.925781 -0.257812 0.8125 -0.375 C 0.695312 -0.488281 0.601562 -0.617188 0.53125 -0.765625 C 0.46875 -0.921875 0.4375 -1.082031 0.4375 -1.25 L 0.4375 -3.75 C 0.4375 -3.914062 0.46875 -4.070312 0.53125 -4.21875 C 0.601562 -4.375 0.695312 -4.507812 0.8125 -4.625 C 0.925781 -4.738281 1.054688 -4.828125 1.203125 -4.890625 C 1.359375 -4.960938 1.519531 -5 1.6875 -5 L 3.515625 -5 C 3.679688 -5 3.835938 -4.960938 3.984375 -4.890625 C 4.140625 -4.828125 4.273438 -4.738281 4.390625 -4.625 C 4.503906 -4.507812 4.59375 -4.375 4.65625 -4.21875 C 4.726562 -4.070312 4.765625 -3.914062 4.765625 -3.75 L 4.765625 -1.921875 L 1.828125 -1.921875 L 1.828125 -1.59375 C 1.828125 -1.269531 1.988281 -1.109375 2.3125 -1.109375 L 4.53125 -1.109375 L 4.53125 0 Z M 3.375 -2.984375 L 3.375 -3.421875 C 3.375 -3.734375 3.210938 -3.890625 2.890625 -3.890625 L 2.3125 -3.890625 C 1.988281 -3.890625 1.828125 -3.734375 1.828125 -3.421875 L 1.828125 -2.984375 Z M 3.375 -2.984375 "/></g></g><g style="fill:#000000;fill-opacity:1;"><g transform="translate(88.030764, 175.243623)"><path style="stroke:none" d="M 0.53125 -4.90625 L 1.484375 -4.90625 L 1.6875 -4.375 L 1.734375 -4.375 C 1.796875 -4.488281 1.878906 -4.59375 1.984375 -4.6875 C 2.078125 -4.757812 2.191406 -4.828125 2.328125 -4.890625 C 2.460938 -4.960938 2.632812 -5 2.84375 -5 L 3.703125 -5 L 3.703125 -3.65625 L 2.5 -3.65625 C 2.113281 -3.65625 1.921875 -3.460938 1.921875 -3.078125 L 1.921875 0 L 0.53125 0 Z M 0.53125 -4.90625 "/></g></g><g style="fill:#000000;fill-opacity:1;"><g transform="translate(91.88012, 175.243623)"><path style="stroke:none" d="M 1.6875 0.09375 C 1.519531 0.09375 1.359375 0.0625 1.203125 0 C 1.054688 -0.0703125 0.925781 -0.164062 0.8125 -0.28125 C 0.695312 -0.394531 0.601562 -0.523438 0.53125 -0.671875 C 0.46875 -0.828125 0.4375 -0.988281 0.4375 -1.15625 L 0.4375 -3.75 C 0.4375 -3.914062 0.46875 -4.070312 0.53125 -4.21875 C 0.601562 -4.375 0.695312 -4.507812 0.8125 -4.625 C 0.925781 -4.738281 1.054688 -4.828125 1.203125 -4.890625 C 1.359375 -4.960938 1.519531 -5 1.6875 -5 L 3.609375 -5 C 3.773438 -5 3.929688 -4.960938 4.078125 -4.890625 C 4.234375 -4.828125 4.367188 -4.738281 4.484375 -4.625 C 4.597656 -4.507812 4.6875 -4.375 4.75 -4.21875 C 4.820312 -4.070312 4.859375 -3.914062 4.859375 -3.75 L 4.859375 -1.15625 C 4.859375 -0.988281 4.820312 -0.828125 4.75 -0.671875 C 4.6875 -0.523438 4.597656 -0.394531 4.484375 -0.28125 C 4.367188 -0.164062 4.234375 -0.0703125 4.078125 0 C 3.929688 0.0625 3.773438 0.09375 3.609375 0.09375 Z M 2.984375 -1.15625 C 3.304688 -1.15625 3.46875 -1.316406 3.46875 -1.640625 L 3.46875 -3.265625 C 3.46875 -3.585938 3.304688 -3.75 2.984375 -3.75 L 2.3125 -3.75 C 1.988281 -3.75 1.828125 -3.585938 1.828125 -3.265625 L 1.828125 -1.640625 C 1.828125 -1.316406 1.988281 -1.15625 2.3125 -1.15625 Z M 2.890625 -7.21875 L 4.328125 -7.21875 L 3.21875 -5.671875 L 2.109375 -5.671875 Z M 2.890625 -7.21875 "/></g></g><g style="fill:#000000;fill-opacity:1;"><g transform="translate(97.172983, 175.243623)"><path style="stroke:none" d="M 0.578125 -4.90625 L 1.96875 -4.90625 L 1.96875 0 L 0.578125 0 Z M 0.578125 -6.9375 L 1.96875 -6.9375 L 1.96875 -5.484375 L 0.578125 -5.484375 Z M 0.578125 -6.9375 "/></g></g><g style="fill:#000000;fill-opacity:1;"><g transform="translate(243.385416, 175.243623)"><path style="stroke:none" d="M 0.625 -6.734375 L 4.953125 -6.734375 L 4.953125 -5.828125 L 4.53125 -5.390625 L 2.0625 -5.390625 L 2.0625 -3.75 L 4 -3.75 L 4 -2.40625 L 2.0625 -2.40625 L 2.0625 0 L 0.625 0 Z M 0.625 -6.734375 "/></g></g><g style="fill:#000000;fill-opacity:1;"><g transform="translate(248.582042, 175.243623)"><path style="stroke:none" d="M 1.6875 0.09375 C 1.519531 0.09375 1.359375 0.0625 1.203125 0 C 1.054688 -0.0703125 0.925781 -0.164062 0.8125 -0.28125 C 0.695312 -0.394531 0.601562 -0.523438 0.53125 -0.671875 C 0.46875 -0.828125 0.4375 -0.988281 0.4375 -1.15625 L 0.4375 -3.75 C 0.4375 -3.914062 0.46875 -4.070312 0.53125 -4.21875 C 0.601562 -4.375 0.695312 -4.507812 0.8125 -4.625 C 0.925781 -4.738281 1.054688 -4.828125 1.203125 -4.890625 C 1.359375 -4.960938 1.519531 -5 1.6875 -5 L 3.609375 -5 C 3.773438 -5 3.929688 -4.960938 4.078125 -4.890625 C 4.234375 -4.828125 4.367188 -4.738281 4.484375 -4.625 C 4.597656 -4.507812 4.6875 -4.375 4.75 -4.21875 C 4.820312 -4.070312 4.859375 -3.914062 4.859375 -3.75 L 4.859375 -1.15625 C 4.859375 -0.988281 4.820312 -0.828125 4.75 -0.671875 C 4.6875 -0.523438 4.597656 -0.394531 4.484375 -0.28125 C 4.367188 -0.164062 4.234375 -0.0703125 4.078125 0 C 3.929688 0.0625 3.773438 0.09375 3.609375 0.09375 Z M 2.984375 -1.15625 C 3.304688 -1.15625 3.46875 -1.316406 3.46875 -1.640625 L 3.46875 -3.265625 C 3.46875 -3.585938 3.304688 -3.75 2.984375 -3.75 L 2.3125 -3.75 C 1.988281 -3.75 1.828125 -3.585938 1.828125 -3.265625 L 1.828125 -1.640625 C 1.828125 -1.316406 1.988281 -1.15625 2.3125 -1.15625 Z M 2.984375 -1.15625 "/></g></g><g style="fill:#000000;fill-opacity:1;"><g transform="translate(253.874905, 175.243623)"><path style="stroke:none" d="M 0.53125 -4.90625 L 1.484375 -4.90625 L 1.6875 -4.375 L 1.734375 -4.375 C 1.796875 -4.488281 1.878906 -4.59375 1.984375 -4.6875 C 2.078125 -4.757812 2.191406 -4.828125 2.328125 -4.890625 C 2.460938 -4.960938 2.632812 -5 2.84375 -5 L 3.515625 -5 C 3.679688 -5 3.835938 -4.960938 3.984375 -4.890625 C 4.140625 -4.828125 4.273438 -4.738281 4.390625 -4.625 C 4.503906 -4.507812 4.59375 -4.375 4.65625 -4.21875 C 4.726562 -4.070312 4.765625 -3.914062 4.765625 -3.75 L 4.765625 0 L 3.375 0 L 3.375 -3.265625 C 3.375 -3.585938 3.210938 -3.75 2.890625 -3.75 L 2.59375 -3.75 C 2.351562 -3.75 2.179688 -3.695312 2.078125 -3.59375 C 1.972656 -3.5 1.921875 -3.328125 1.921875 -3.078125 L 1.921875 0 L 0.53125 0 Z M 0.53125 -4.90625 "/></g></g><g style="fill:#000000;fill-opacity:1;"><g transform="translate(259.119653, 175.243623)"><path style="stroke:none" d="M 2.171875 0 C 2.003906 0 1.84375 -0.03125 1.6875 -0.09375 C 1.539062 -0.164062 1.40625 -0.257812 1.28125 -0.375 C 1.164062 -0.488281 1.078125 -0.617188 1.015625 -0.765625 C 0.953125 -0.921875 0.921875 -1.082031 0.921875 -1.25 L 0.921875 -3.75 L 0.234375 -3.75 L 0.234375 -4.90625 L 1.015625 -4.90625 L 1.484375 -6.25 L 2.3125 -6.25 L 2.3125 -4.90625 L 3.46875 -4.90625 L 3.46875 -4.140625 L 3.078125 -3.75 L 2.3125 -3.75 L 2.3125 -1.734375 C 2.3125 -1.410156 2.472656 -1.25 2.796875 -1.25 L 3.609375 -1.25 L 3.609375 0 Z M 2.171875 0 "/></g></g><g style="fill:#000000;fill-opacity:1;"><g transform="translate(263.06524, 175.243623)"><path style="stroke:none" d="M 1.6875 0 C 1.519531 0 1.359375 -0.03125 1.203125 -0.09375 C 1.054688 -0.164062 0.925781 -0.257812 0.8125 -0.375 C 0.695312 -0.488281 0.601562 -0.617188 0.53125 -0.765625 C 0.46875 -0.921875 0.4375 -1.082031 0.4375 -1.25 L 0.4375 -3.75 C 0.4375 -3.914062 0.46875 -4.070312 0.53125 -4.21875 C 0.601562 -4.375 0.695312 -4.507812 0.8125 -4.625 C 0.925781 -4.738281 1.054688 -4.828125 1.203125 -4.890625 C 1.359375 -4.960938 1.519531 -5 1.6875 -5 L 3.515625 -5 C 3.679688 -5 3.835938 -4.960938 3.984375 -4.890625 C 4.140625 -4.828125 4.273438 -4.738281 4.390625 -4.625 C 4.503906 -4.507812 4.59375 -4.375 4.65625 -4.21875 C 4.726562 -4.070312 4.765625 -3.914062 4.765625 -3.75 L 4.765625 -1.921875 L 1.828125 -1.921875 L 1.828125 -1.59375 C 1.828125 -1.269531 1.988281 -1.109375 2.3125 -1.109375 L 4.53125 -1.109375 L 4.53125 0 Z M 3.375 -2.984375 L 3.375 -3.421875 C 3.375 -3.734375 3.210938 -3.890625 2.890625 -3.890625 L 2.3125 -3.890625 C 1.988281 -3.890625 1.828125 -3.734375 1.828125 -3.421875 L 1.828125 -2.984375 Z M 3.375 -2.984375 "/></g></g><g style="fill:#000000;fill-opacity:1;"><g transform="translate(268.21375, 175.243623)"><path style="stroke:none" d="M 0.4375 -1.4375 L 1.6875 -1.4375 L 1.6875 0 L 0.4375 0 Z M 0.4375 -4.90625 L 1.6875 -4.90625 L 1.6875 -3.46875 L 0.4375 -3.46875 Z M 0.4375 -4.90625 "/></g></g><g style="fill:#000000;fill-opacity:1;"><g transform="translate(270.330894, 175.243623)"><path style="stroke:none" d=""/></g></g><g style="fill:#000000;fill-opacity:1;"><g transform="translate(272.736742, 175.243623)"><path style="stroke:none" d="M 0.390625 -1.34375 L 3.328125 -1.34375 C 3.472656 -1.34375 3.585938 -1.382812 3.671875 -1.46875 C 3.753906 -1.5625 3.796875 -1.679688 3.796875 -1.828125 L 3.796875 -2.0625 C 3.796875 -2.226562 3.753906 -2.359375 3.671875 -2.453125 C 3.585938 -2.546875 3.472656 -2.609375 3.328125 -2.640625 L 1.6875 -2.984375 C 1.300781 -3.054688 0.988281 -3.222656 0.75 -3.484375 C 0.507812 -3.753906 0.390625 -4.082031 0.390625 -4.46875 L 0.390625 -5.296875 C 0.390625 -5.734375 0.519531 -6.082031 0.78125 -6.34375 C 1.039062 -6.601562 1.390625 -6.734375 1.828125 -6.734375 L 5.046875 -6.734375 L 5.046875 -5.828125 L 4.625 -5.390625 L 2.3125 -5.390625 C 2.164062 -5.390625 2.046875 -5.34375 1.953125 -5.25 C 1.867188 -5.164062 1.828125 -5.050781 1.828125 -4.90625 L 1.828125 -4.8125 C 1.828125 -4.644531 1.867188 -4.515625 1.953125 -4.421875 C 2.046875 -4.328125 2.164062 -4.265625 2.3125 -4.234375 L 3.953125 -3.890625 C 4.335938 -3.816406 4.648438 -3.644531 4.890625 -3.375 C 5.128906 -3.113281 5.25 -2.789062 5.25 -2.40625 L 5.25 -1.4375 C 5.25 -1.007812 5.113281 -0.660156 4.84375 -0.390625 C 4.582031 -0.128906 4.234375 0 3.796875 0 L 0.390625 0 Z M 0.390625 -1.34375 "/></g></g><g style="fill:#000000;fill-opacity:1;"><g transform="translate(278.318304, 175.243623)"><path style="stroke:none" d="M 1.78125 0.09375 C 1.613281 0.09375 1.453125 0.0625 1.296875 0 C 1.148438 -0.0703125 1.019531 -0.164062 0.90625 -0.28125 C 0.789062 -0.394531 0.695312 -0.523438 0.625 -0.671875 C 0.5625 -0.828125 0.53125 -0.988281 0.53125 -1.15625 L 0.53125 -4.90625 L 1.921875 -4.90625 L 1.921875 -1.640625 C 1.921875 -1.316406 2.082031 -1.15625 2.40625 -1.15625 L 2.6875 -1.15625 C 2.9375 -1.15625 3.113281 -1.207031 3.21875 -1.3125 C 3.320312 -1.414062 3.375 -1.585938 3.375 -1.828125 L 3.375 -4.90625 L 4.765625 -4.90625 L 4.765625 0 L 3.796875 0 L 3.609375 -0.53125 L 3.5625 -0.53125 C 3.5 -0.40625 3.414062 -0.300781 3.3125 -0.21875 C 3.21875 -0.132812 3.101562 -0.0625 2.96875 0 C 2.832031 0.0625 2.660156 0.09375 2.453125 0.09375 Z M 1.78125 0.09375 "/></g></g><g style="fill:#000000;fill-opacity:1;"><g transform="translate(283.611167, 175.243623)"><path style="stroke:none" d="M 0.53125 -4.90625 L 1.484375 -4.90625 L 1.6875 -4.375 L 1.734375 -4.375 C 1.796875 -4.488281 1.878906 -4.59375 1.984375 -4.6875 C 2.078125 -4.757812 2.191406 -4.828125 2.328125 -4.890625 C 2.460938 -4.960938 2.632812 -5 2.84375 -5 L 3.65625 -5 C 3.820312 -5 3.976562 -4.960938 4.125 -4.890625 C 4.28125 -4.828125 4.414062 -4.738281 4.53125 -4.625 C 4.644531 -4.507812 4.734375 -4.375 4.796875 -4.21875 C 4.867188 -4.070312 4.90625 -3.914062 4.90625 -3.75 L 4.90625 -1.25 C 4.90625 -1.082031 4.867188 -0.921875 4.796875 -0.765625 C 4.734375 -0.617188 4.644531 -0.488281 4.53125 -0.375 C 4.414062 -0.257812 4.28125 -0.164062 4.125 -0.09375 C 3.976562 -0.03125 3.820312 0 3.65625 0 L 1.921875 0 L 1.921875 1.640625 L 0.53125 1.640625 Z M 3.03125 -1.25 C 3.351562 -1.25 3.515625 -1.410156 3.515625 -1.734375 L 3.515625 -3.265625 C 3.515625 -3.585938 3.351562 -3.75 3.03125 -3.75 L 2.59375 -3.75 C 2.351562 -3.75 2.179688 -3.695312 2.078125 -3.59375 C 1.972656 -3.5 1.921875 -3.328125 1.921875 -3.078125 L 1.921875 -1.25 Z M 3.03125 -1.25 "/></g></g><g style="fill:#000000;fill-opacity:1;"><g transform="translate(288.952146, 175.243623)"><path style="stroke:none" d="M 1.6875 0 C 1.519531 0 1.359375 -0.03125 1.203125 -0.09375 C 1.054688 -0.164062 0.925781 -0.257812 0.8125 -0.375 C 0.695312 -0.488281 0.601562 -0.617188 0.53125 -0.765625 C 0.46875 -0.921875 0.4375 -1.082031 0.4375 -1.25 L 0.4375 -3.75 C 0.4375 -3.914062 0.46875 -4.070312 0.53125 -4.21875 C 0.601562 -4.375 0.695312 -4.507812 0.8125 -4.625 C 0.925781 -4.738281 1.054688 -4.828125 1.203125 -4.890625 C 1.359375 -4.960938 1.519531 -5 1.6875 -5 L 3.515625 -5 C 3.679688 -5 3.835938 -4.960938 3.984375 -4.890625 C 4.140625 -4.828125 4.273438 -4.738281 4.390625 -4.625 C 4.503906 -4.507812 4.59375 -4.375 4.65625 -4.21875 C 4.726562 -4.070312 4.765625 -3.914062 4.765625 -3.75 L 4.765625 -1.921875 L 1.828125 -1.921875 L 1.828125 -1.59375 C 1.828125 -1.269531 1.988281 -1.109375 2.3125 -1.109375 L 4.53125 -1.109375 L 4.53125 0 Z M 3.375 -2.984375 L 3.375 -3.421875 C 3.375 -3.734375 3.210938 -3.890625 2.890625 -3.890625 L 2.3125 -3.890625 C 1.988281 -3.890625 1.828125 -3.734375 1.828125 -3.421875 L 1.828125 -2.984375 Z M 3.375 -2.984375 "/></g></g><g style="fill:#000000;fill-opacity:1;"><g transform="translate(294.100657, 175.243623)"><path style="stroke:none" d="M 0.53125 -4.90625 L 1.484375 -4.90625 L 1.6875 -4.375 L 1.734375 -4.375 C 1.796875 -4.488281 1.878906 -4.59375 1.984375 -4.6875 C 2.078125 -4.757812 2.191406 -4.828125 2.328125 -4.890625 C 2.460938 -4.960938 2.632812 -5 2.84375 -5 L 3.703125 -5 L 3.703125 -3.65625 L 2.5 -3.65625 C 2.113281 -3.65625 1.921875 -3.460938 1.921875 -3.078125 L 1.921875 0 L 0.53125 0 Z M 0.53125 -4.90625 "/></g></g><g style="fill:#000000;fill-opacity:1;"><g transform="translate(297.950012, 175.243623)"><path style="stroke:none" d="M 0.53125 -4.90625 L 1.484375 -4.90625 L 1.6875 -4.375 L 1.734375 -4.375 C 1.796875 -4.488281 1.878906 -4.59375 1.984375 -4.6875 C 2.078125 -4.757812 2.191406 -4.828125 2.328125 -4.890625 C 2.460938 -4.960938 2.632812 -5 2.84375 -5 L 3.328125 -5 C 3.515625 -5 3.671875 -4.960938 3.796875 -4.890625 C 3.929688 -4.828125 4.046875 -4.757812 4.140625 -4.6875 C 4.234375 -4.59375 4.3125 -4.488281 4.375 -4.375 L 4.421875 -4.375 C 4.492188 -4.488281 4.578125 -4.59375 4.671875 -4.6875 C 4.765625 -4.757812 4.878906 -4.828125 5.015625 -4.890625 C 5.148438 -4.960938 5.320312 -5 5.53125 -5 L 6.359375 -5 C 6.523438 -5 6.679688 -4.960938 6.828125 -4.890625 C 6.984375 -4.828125 7.117188 -4.738281 7.234375 -4.625 C 7.347656 -4.507812 7.4375 -4.375 7.5 -4.21875 C 7.570312 -4.070312 7.609375 -3.914062 7.609375 -3.75 L 7.609375 0 L 6.203125 0 L 6.203125 -3.265625 C 6.203125 -3.585938 6.046875 -3.75 5.734375 -3.75 L 5.25 -3.75 C 4.925781 -3.75 4.765625 -3.585938 4.765625 -3.265625 L 4.765625 0 L 3.375 0 L 3.375 -3.265625 C 3.375 -3.585938 3.210938 -3.75 2.890625 -3.75 L 2.59375 -3.75 C 2.351562 -3.75 2.179688 -3.695312 2.078125 -3.59375 C 1.972656 -3.5 1.921875 -3.328125 1.921875 -3.078125 L 1.921875 0 L 0.53125 0 Z M 0.53125 -4.90625 "/></g></g><g style="fill:#000000;fill-opacity:1;"><g transform="translate(306.033654, 175.243623)"><path style="stroke:none" d="M 1.6875 0.09375 C 1.519531 0.09375 1.359375 0.0625 1.203125 0 C 1.054688 -0.0703125 0.925781 -0.164062 0.8125 -0.28125 C 0.695312 -0.394531 0.601562 -0.523438 0.53125 -0.671875 C 0.46875 -0.828125 0.4375 -0.988281 0.4375 -1.15625 L 0.4375 -3.75 C 0.4375 -3.914062 0.46875 -4.070312 0.53125 -4.21875 C 0.601562 -4.375 0.695312 -4.507812 0.8125 -4.625 C 0.925781 -4.738281 1.054688 -4.828125 1.203125 -4.890625 C 1.359375 -4.960938 1.519531 -5 1.6875 -5 L 3.609375 -5 C 3.773438 -5 3.929688 -4.960938 4.078125 -4.890625 C 4.234375 -4.828125 4.367188 -4.738281 4.484375 -4.625 C 4.597656 -4.507812 4.6875 -4.375 4.75 -4.21875 C 4.820312 -4.070312 4.859375 -3.914062 4.859375 -3.75 L 4.859375 -1.15625 C 4.859375 -0.988281 4.820312 -0.828125 4.75 -0.671875 C 4.6875 -0.523438 4.597656 -0.394531 4.484375 -0.28125 C 4.367188 -0.164062 4.234375 -0.0703125 4.078125 0 C 3.929688 0.0625 3.773438 0.09375 3.609375 0.09375 Z M 2.984375 -1.15625 C 3.304688 -1.15625 3.46875 -1.316406 3.46875 -1.640625 L 3.46875 -3.265625 C 3.46875 -3.585938 3.304688 -3.75 2.984375 -3.75 L 2.3125 -3.75 C 1.988281 -3.75 1.828125 -3.585938 1.828125 -3.265625 L 1.828125 -1.640625 C 1.828125 -1.316406 1.988281 -1.15625 2.3125 -1.15625 Z M 2.984375 -1.15625 "/></g></g><g style="fill:#000000;fill-opacity:1;"><g transform="translate(311.326518, 175.243623)"><path style="stroke:none" d="M 0.578125 -6.640625 L 1.96875 -6.640625 L 1.96875 0 L 0.578125 0 Z M 0.578125 -6.640625 "/></g></g><g style="fill:#000000;fill-opacity:1;"><g transform="translate(313.876713, 175.243623)"><path style="stroke:none" d="M 0.578125 -6.640625 L 1.96875 -6.640625 L 1.96875 0 L 0.578125 0 Z M 0.578125 -6.640625 "/></g></g><g style="fill:#000000;fill-opacity:1;"><g transform="translate(316.426908, 175.243623)"><path style="stroke:none" d="M 1.6875 0.09375 C 1.519531 0.09375 1.359375 0.0625 1.203125 0 C 1.054688 -0.0703125 0.925781 -0.164062 0.8125 -0.28125 C 0.695312 -0.394531 0.601562 -0.523438 0.53125 -0.671875 C 0.46875 -0.828125 0.4375 -0.988281 0.4375 -1.15625 L 0.4375 -3.75 C 0.4375 -3.914062 0.46875 -4.070312 0.53125 -4.21875 C 0.601562 -4.375 0.695312 -4.507812 0.8125 -4.625 C 0.925781 -4.738281 1.054688 -4.828125 1.203125 -4.890625 C 1.359375 -4.960938 1.519531 -5 1.6875 -5 L 3.609375 -5 C 3.773438 -5 3.929688 -4.960938 4.078125 -4.890625 C 4.234375 -4.828125 4.367188 -4.738281 4.484375 -4.625 C 4.597656 -4.507812 4.6875 -4.375 4.75 -4.21875 C 4.820312 -4.070312 4.859375 -3.914062 4.859375 -3.75 L 4.859375 -1.15625 C 4.859375 -0.988281 4.820312 -0.828125 4.75 -0.671875 C 4.6875 -0.523438 4.597656 -0.394531 4.484375 -0.28125 C 4.367188 -0.164062 4.234375 -0.0703125 4.078125 0 C 3.929688 0.0625 3.773438 0.09375 3.609375 0.09375 Z M 2.984375 -1.15625 C 3.304688 -1.15625 3.46875 -1.316406 3.46875 -1.640625 L 3.46875 -3.265625 C 3.46875 -3.585938 3.304688 -3.75 2.984375 -3.75 L 2.3125 -3.75 C 1.988281 -3.75 1.828125 -3.585938 1.828125 -3.265625 L 1.828125 -1.640625 C 1.828125 -1.316406 1.988281 -1.15625 2.3125 -1.15625 Z M 2.984375 -1.15625 "/></g></g><g style="fill:#000000;fill-opacity:1;"><g transform="translate(321.719771, 175.243623)"><path style="stroke:none" d="M 2.171875 0 C 2.003906 0 1.84375 -0.03125 1.6875 -0.09375 C 1.539062 -0.164062 1.40625 -0.257812 1.28125 -0.375 C 1.164062 -0.488281 1.078125 -0.617188 1.015625 -0.765625 C 0.953125 -0.921875 0.921875 -1.082031 0.921875 -1.25 L 0.921875 -3.75 L 0.234375 -3.75 L 0.234375 -4.90625 L 1.015625 -4.90625 L 1.484375 -6.25 L 2.3125 -6.25 L 2.3125 -4.90625 L 3.46875 -4.90625 L 3.46875 -4.140625 L 3.078125 -3.75 L 2.3125 -3.75 L 2.3125 -1.734375 C 2.3125 -1.410156 2.472656 -1.25 2.796875 -1.25 L 3.609375 -1.25 L 3.609375 0 Z M 2.171875 0 "/></g></g><g style="fill:#000000;fill-opacity:1;"><g transform="translate(325.665358, 175.243623)"><path style="stroke:none" d=""/></g></g><g style="fill:#000000;fill-opacity:1;"><g transform="translate(328.071205, 175.243623)"><path style="stroke:none" d="M 0.625 -6.734375 L 2.21875 -6.734375 L 4.46875 -2.5 L 4.53125 -2.5 L 4.375 -3.703125 L 4.375 -6.734375 L 5.828125 -6.734375 L 5.828125 0 L 4.234375 0 L 1.96875 -4.234375 L 1.921875 -4.234375 L 2.0625 -3.03125 L 2.0625 0 L 0.625 0 Z M 0.625 -6.734375 "/></g></g><g style="fill:#000000;fill-opacity:1;"><g transform="translate(334.518877, 175.243623)"><path style="stroke:none" d="M 1.6875 0 C 1.519531 0 1.359375 -0.03125 1.203125 -0.09375 C 1.054688 -0.164062 0.925781 -0.257812 0.8125 -0.375 C 0.695312 -0.488281 0.601562 -0.617188 0.53125 -0.765625 C 0.46875 -0.921875 0.4375 -1.082031 0.4375 -1.25 L 0.4375 -3.75 C 0.4375 -3.914062 0.46875 -4.070312 0.53125 -4.21875 C 0.601562 -4.375 0.695312 -4.507812 0.8125 -4.625 C 0.925781 -4.738281 1.054688 -4.828125 1.203125 -4.890625 C 1.359375 -4.960938 1.519531 -5 1.6875 -5 L 3.515625 -5 C 3.679688 -5 3.835938 -4.960938 3.984375 -4.890625 C 4.140625 -4.828125 4.273438 -4.738281 4.390625 -4.625 C 4.503906 -4.507812 4.59375 -4.375 4.65625 -4.21875 C 4.726562 -4.070312 4.765625 -3.914062 4.765625 -3.75 L 4.765625 -1.921875 L 1.828125 -1.921875 L 1.828125 -1.59375 C 1.828125 -1.269531 1.988281 -1.109375 2.3125 -1.109375 L 4.53125 -1.109375 L 4.53125 0 Z M 3.375 -2.984375 L 3.375 -3.421875 C 3.375 -3.734375 3.210938 -3.890625 2.890625 -3.890625 L 2.3125 -3.890625 C 1.988281 -3.890625 1.828125 -3.734375 1.828125 -3.421875 L 1.828125 -2.984375 Z M 3.375 -2.984375 "/></g></g><g style="fill:#000000;fill-opacity:1;"><g transform="translate(339.667382, 175.243623)"><path style="stroke:none" d="M 1.78125 0.09375 C 1.613281 0.09375 1.453125 0.0625 1.296875 0 C 1.148438 -0.0703125 1.019531 -0.164062 0.90625 -0.28125 C 0.789062 -0.394531 0.695312 -0.523438 0.625 -0.671875 C 0.5625 -0.828125 0.53125 -0.988281 0.53125 -1.15625 L 0.53125 -4.90625 L 1.921875 -4.90625 L 1.921875 -1.640625 C 1.921875 -1.316406 2.082031 -1.15625 2.40625 -1.15625 L 2.6875 -1.15625 C 2.9375 -1.15625 3.113281 -1.207031 3.21875 -1.3125 C 3.320312 -1.414062 3.375 -1.585938 3.375 -1.828125 L 3.375 -4.90625 L 4.765625 -4.90625 L 4.765625 0 L 3.796875 0 L 3.609375 -0.53125 L 3.5625 -0.53125 C 3.5 -0.40625 3.414062 -0.300781 3.3125 -0.21875 C 3.21875 -0.132812 3.101562 -0.0625 2.96875 0 C 2.832031 0.0625 2.660156 0.09375 2.453125 0.09375 Z M 1.78125 0.09375 "/></g></g><g style="fill:#000000;fill-opacity:1;"><g transform="translate(344.960245, 175.243623)"><path style="stroke:none" d="M 1.6875 0 C 1.519531 0 1.359375 -0.03125 1.203125 -0.09375 C 1.054688 -0.164062 0.925781 -0.257812 0.8125 -0.375 C 0.695312 -0.488281 0.601562 -0.617188 0.53125 -0.765625 C 0.46875 -0.921875 0.4375 -1.082031 0.4375 -1.25 L 0.4375 -3.75 C 0.4375 -3.914062 0.46875 -4.070312 0.53125 -4.21875 C 0.601562 -4.375 0.695312 -4.507812 0.8125 -4.625 C 0.925781 -4.738281 1.054688 -4.828125 1.203125 -4.890625 C 1.359375 -4.960938 1.519531 -5 1.6875 -5 L 3.515625 -5 C 3.679688 -5 3.835938 -4.960938 3.984375 -4.890625 C 4.140625 -4.828125 4.273438 -4.738281 4.390625 -4.625 C 4.503906 -4.507812 4.59375 -4.375 4.65625 -4.21875 C 4.726562 -4.070312 4.765625 -3.914062 4.765625 -3.75 L 4.765625 -1.921875 L 1.828125 -1.921875 L 1.828125 -1.59375 C 1.828125 -1.269531 1.988281 -1.109375 2.3125 -1.109375 L 4.53125 -1.109375 L 4.53125 0 Z M 3.375 -2.984375 L 3.375 -3.421875 C 3.375 -3.734375 3.210938 -3.890625 2.890625 -3.890625 L 2.3125 -3.890625 C 1.988281 -3.890625 1.828125 -3.734375 1.828125 -3.421875 L 1.828125 -2.984375 Z M 3.375 -2.984375 "/></g></g></g></svg>