<svg width="412" height="917" viewBox="0 0 412 917" fill="none" xmlns="http://www.w3.org/2000/svg">
<g clip-path="url(#clip0_2027_61)">
<rect width="412" height="917" fill="black"/>
<rect x="2" width="412" height="262" fill="#004AAD"/>
<path d="M219.746 337.514L219.511 337.541L218.118 338.012L217.726 338.066L217.451 338.012L216.058 337.528C215.849 337.492 215.692 337.519 215.587 337.609L215.509 337.743L215.175 343.506L215.273 343.775L215.47 343.95L217.51 344.946L217.804 345L218.04 344.946L220.08 343.95L220.315 343.734L220.394 343.506L220.06 337.757C220.008 337.613 219.903 337.532 219.746 337.514ZM224.926 335.993L224.651 336.02L221.041 337.272L220.845 337.407L220.786 337.555L221.139 343.344L221.237 343.506L221.394 343.613L225.338 344.852C225.586 344.897 225.776 344.861 225.907 344.744L225.985 344.556L225.318 336.289C225.253 336.119 225.122 336.02 224.926 335.993ZM210.898 336.02C210.812 335.984 210.709 335.972 210.61 335.987C210.511 336.002 210.425 336.043 210.369 336.101L210.251 336.289L209.584 344.556C209.597 344.717 209.708 344.825 209.917 344.879L210.212 344.852L214.155 343.6L214.351 343.492L214.41 343.344L214.763 337.555L214.704 337.393L214.508 337.258L210.898 336.02Z" fill="#004AAD"/>
<path d="M328.689 115.029C294.071 111.417 258.683 113.862 225.809 122.138L219.021 123.915C174.533 136.288 126.004 140.195 78.5511 135.225C58.187 133.07 36.9595 129.597 18.361 123.228C11.584 120.924 6.36022 116.917 3.7739 112.039C1.18758 107.161 1.43728 101.787 4.47116 97.0326C7.50505 92.2779 13.0902 88.5073 20.0674 86.5035C27.0447 84.4997 34.8783 84.4164 41.9427 86.2711L44.5323 87.0519C57.9123 91.3603 72.9794 93.7703 87.4973 95.3051C113.865 98.0786 149.944 98.2671 190.378 88.1829L197.166 86.4057C241.654 74.0329 290.182 70.1259 337.636 75.0963C358 77.2505 379.208 80.7375 397.786 87.0789C404.727 89.5086 409.999 93.7127 412.465 98.785C414.931 103.857 414.394 109.391 410.97 114.194C403.731 124.131 388.958 126.406 371.635 123.269L328.689 115.029ZM328.689 195.81C294.071 192.198 258.683 194.643 225.809 202.919L219.021 204.696C174.533 217.069 126.004 220.976 78.5511 216.006C58.187 213.852 36.9595 210.378 18.361 204.01C11.584 201.705 6.36022 197.698 3.7739 192.82C1.18758 187.942 1.43728 182.569 4.47116 177.814C7.50505 173.059 13.0902 169.289 20.0674 167.285C27.0447 165.281 34.8783 165.198 41.9427 167.052L44.5323 167.833C57.9123 172.142 72.9794 174.552 87.4973 176.086C113.865 178.86 149.944 179.048 190.378 168.964L197.166 167.187C241.654 154.814 290.182 150.907 337.636 155.878C358 158.032 379.208 161.519 397.786 167.86C404.727 170.29 409.999 174.494 412.465 179.566C414.931 184.638 414.394 190.173 410.97 194.976C403.731 204.925 388.958 207.187 371.635 204.05L328.689 195.81ZM211.88 287.363L219.021 285.478C253.742 275.787 291.634 272.717 328.689 276.592L371.654 284.831C388.958 287.968 403.731 285.707 410.99 275.757C414.406 270.954 414.937 265.422 412.467 260.352C409.998 255.283 404.726 251.082 397.786 248.655C379.208 242.3 358 238.826 337.636 236.672C292.742 231.975 246.844 235.219 204.287 246.097L197.166 247.982C153.965 259.83 115.317 259.803 87.4973 256.868C75.059 255.548 62.1892 253.596 50.3591 250.351L44.5323 248.601C37.5392 246.219 29.4539 245.842 22.055 247.551C14.6561 249.26 8.54971 252.917 5.07917 257.716C1.60864 262.515 1.05825 268.064 3.54908 273.141C6.03991 278.219 11.3679 282.409 18.361 284.791C36.9399 291.159 58.187 294.633 78.5511 296.774C112.923 300.409 159.831 300.543 211.88 287.349V287.363Z" fill="#004AAD"/>
<ellipse cx="207" cy="133.5" rx="116" ry="117.5" fill="#004AAD"/>
<rect x="168" y="311" width="100" height="100" fill="black"/>
<path d="M178.904 153.512C176.259 153.512 173.912 152.872 171.864 151.592C169.816 150.312 168.792 148.179 168.792 145.192C168.792 140.499 169.773 135.72 171.736 130.856C173.784 125.992 176.259 121.213 179.16 116.52C182.147 111.741 185.091 107.091 187.992 102.568C190.979 98.0453 193.453 93.736 195.416 89.64C197.464 85.544 198.488 81.7467 198.488 78.248C198.488 75.432 197.805 74.024 196.44 74.024C195.501 74.024 194.435 74.792 193.24 76.328C192.045 77.7787 191.192 79.9547 190.68 82.856L189.272 82.6C189.272 77.736 190.424 73.64 192.728 70.312C195.032 66.8987 197.976 64.3387 201.56 62.632C205.144 60.9253 208.813 60.072 212.568 60.072C216.92 60.072 220.973 61.3093 224.728 63.784C228.568 66.2587 231.213 70.184 232.664 75.56C233.261 77.6933 233.688 80.0827 233.944 82.728C234.285 85.3733 234.499 87.6773 234.584 89.64C234.669 91.5173 234.712 92.456 234.712 92.456C234.883 99.368 235.011 105.213 235.096 109.992C235.267 114.771 235.523 118.781 235.864 122.024C236.205 125.267 236.675 127.997 237.272 130.216C237.869 132.349 238.637 134.099 239.576 135.464C240.6 136.744 241.88 137.384 243.416 137.384C244.867 137.384 246.104 136.957 247.128 136.104C248.237 135.251 248.963 134.44 249.304 133.672L250.2 134.312C250.2 138.237 249.432 141.651 247.896 144.552C246.36 147.453 244.355 149.672 241.88 151.208C239.405 152.744 236.803 153.512 234.072 153.512C231.427 153.512 228.824 152.744 226.264 151.208C223.789 149.587 221.613 147.112 219.736 143.784C217.859 140.456 216.621 136.147 216.024 130.856C213.379 130.685 210.776 130.557 208.216 130.472C205.741 130.301 203.48 130.216 201.432 130.216C200.067 130.216 198.744 130.259 197.464 130.344C196.269 130.344 195.075 130.387 193.88 130.472C193.112 133.117 192.472 135.805 191.96 138.536C191.533 141.181 191.32 143.784 191.32 146.344C191.32 148.307 190.04 150.013 187.48 151.464C184.92 152.829 182.061 153.512 178.904 153.512ZM198.104 118.568C200.237 117.971 202.499 117.587 204.888 117.416C207.277 117.16 209.837 117.032 212.568 117.032H215.384C215.213 110.717 214.957 104.232 214.616 97.576C214.36 90.92 213.293 84.7333 211.416 79.016C210.733 85.16 209.027 91.6027 206.296 98.344C203.565 105.085 200.835 111.827 198.104 118.568Z" fill="black"/>
<path d="M154.917 82.3542V79.125C154.917 47.0271 178.05 21 206.583 21C235.116 21 258.25 47.0271 258.25 79.125V82.3542" stroke="black" stroke-width="1.5" stroke-linecap="round" stroke-linejoin="round"/>
<path d="M142 107.787V95.6648C142 92.7844 142.964 89.9869 144.736 87.7167C146.509 85.4466 148.99 83.8341 151.784 83.1356L154.917 82.3542L163.015 80.3262C163.587 80.1829 164.183 80.1717 164.76 80.2936C165.336 80.4155 165.877 80.6672 166.342 81.0296C166.806 81.392 167.182 81.8555 167.441 82.385C167.699 82.9144 167.833 83.4958 167.833 84.085V119.367C167.833 119.956 167.699 120.537 167.441 121.067C167.182 121.596 166.806 122.06 166.342 122.422C165.877 122.785 165.336 123.036 164.76 123.158C164.183 123.28 163.587 123.269 163.015 123.126L151.778 120.323C148.984 119.623 146.504 118.009 144.732 115.737C142.96 113.466 141.999 110.668 142 107.787ZM271.167 107.787V95.6648C271.166 92.7844 270.203 89.9869 268.43 87.7167C266.657 85.4466 264.177 83.8341 261.382 83.1356L258.25 82.3542L250.145 80.3262C249.574 80.184 248.978 80.1737 248.402 80.2962C247.827 80.4186 247.287 80.6705 246.823 81.0327C246.359 81.395 245.984 81.8581 245.726 82.387C245.468 82.9158 245.334 83.4965 245.333 84.085V119.367C245.334 119.955 245.468 120.536 245.726 121.065C245.984 121.594 246.359 122.057 246.823 122.419C247.287 122.781 247.827 123.033 248.402 123.156C248.978 123.278 249.574 123.268 250.145 123.126L261.382 120.323C264.178 119.624 266.659 118.011 268.432 115.739C270.205 113.468 271.168 110.669 271.167 107.787Z" fill="black" stroke="black" stroke-width="1.5" stroke-linecap="round" stroke-linejoin="round"/>
<path d="M144.879 220L149.859 168.438H167.35L172.242 220H162.486L161.754 211.68H155.543L154.898 220H144.879ZM156.275 203.447H160.963L158.707 177.227H158.238L156.275 203.447ZM174.059 220V210.625L185.865 177.93H175.201V168.438H196.734V177.461L184.723 210.508H196.236V220H174.059ZM200.016 220V168.438H220.641V178.398H210.504V188.447H220.23V198.145H210.504V209.951H221.314V220H200.016ZM224.742 220V168.438H245.367V178.398H235.23V188.447H244.957V198.145H235.23V209.951H246.041V220H224.742ZM249.469 220V168.438H259.781V211.211H270.387V220H249.469Z" fill="white"/>
<path d="M57.3359 394.473H73.6445C75.6367 394.473 77.3685 394.688 78.8398 395.117C80.3242 395.534 81.5547 396.113 82.5312 396.855C83.5078 397.598 84.2305 398.483 84.6992 399.512C85.181 400.527 85.4219 401.628 85.4219 402.812C85.4219 404.753 84.8099 406.452 83.5859 407.91C84.9922 408.743 86.0404 409.824 86.7305 411.152C87.4206 412.48 87.7656 413.991 87.7656 415.684C87.7656 417.103 87.5247 418.385 87.043 419.531C86.5742 420.677 85.8516 421.66 84.875 422.48C83.9115 423.288 82.6875 423.913 81.2031 424.355C79.7318 424.785 77.9935 425 75.9883 425H57.3359V394.473ZM76.0273 406.191C76.5612 406.191 77.082 406.211 77.5898 406.25C78.4622 405.417 78.8984 404.466 78.8984 403.398C78.8984 402.292 78.4622 401.439 77.5898 400.84C76.7305 400.228 75.4674 399.922 73.8008 399.922H63.5273V406.191H76.0273ZM76.1445 419.609C77.8112 419.609 79.0742 419.251 79.9336 418.535C80.806 417.819 81.2422 416.81 81.2422 415.508C81.2422 414.206 80.806 413.19 79.9336 412.461C79.0742 411.732 77.8112 411.367 76.1445 411.367H63.5273V419.609H76.1445ZM94.0547 394.473H120.051V399.902H100.246V405.996H117.785V411.094H100.246V419.59H120.461V425H94.0547V394.473ZM127.355 394.473H133.547L144.641 405.605L155.734 394.473H161.926V425H155.734V403.047L144.641 413.73L133.547 403.047V425H127.355V394.473ZM179.816 394.473H186.672L196.262 417.754L205.852 394.473H212.707L199.328 425H193.195L179.816 394.473ZM216.516 394.473H222.746V425H216.516V394.473ZM230.617 394.473H236.809L255.832 404.434V394.473H262.023V425H255.832V410.996L236.809 401.094V425H230.617V394.473ZM270.656 394.473H281.848C285.116 394.473 287.954 394.824 290.363 395.527C292.772 396.23 294.764 397.24 296.34 398.555C297.928 399.857 299.107 401.445 299.875 403.32C300.656 405.182 301.047 407.279 301.047 409.609C301.047 411.823 300.663 413.874 299.895 415.762C299.126 417.637 297.954 419.264 296.379 420.645C294.803 422.012 292.811 423.086 290.402 423.867C287.993 424.635 285.155 425.02 281.887 425.02L270.656 425V394.473ZM283.371 419.648C285.22 419.648 286.841 419.414 288.234 418.945C289.628 418.464 290.786 417.786 291.711 416.914C292.648 416.042 293.352 414.987 293.82 413.75C294.289 412.513 294.523 411.133 294.523 409.609C294.523 408.112 294.289 406.764 293.82 405.566C293.352 404.355 292.648 403.333 291.711 402.5C290.786 401.654 289.628 401.003 288.234 400.547C286.841 400.091 285.22 399.863 283.371 399.863H276.848V419.648H283.371ZM305.461 409.648C305.461 407.344 305.884 405.234 306.73 403.32C307.577 401.406 308.762 399.766 310.285 398.398C311.822 397.018 313.658 395.951 315.793 395.195C317.941 394.44 320.318 394.062 322.922 394.062C325.513 394.062 327.883 394.44 330.031 395.195C332.18 395.951 334.016 397.018 335.539 398.398C337.076 399.766 338.267 401.406 339.113 403.32C339.96 405.234 340.383 407.344 340.383 409.648C340.383 411.966 339.96 414.095 339.113 416.035C338.267 417.962 337.076 419.622 335.539 421.016C334.016 422.409 332.18 423.496 330.031 424.277C327.883 425.046 325.513 425.43 322.922 425.43C320.318 425.43 317.941 425.046 315.793 424.277C313.658 423.496 311.822 422.409 310.285 421.016C308.762 419.622 307.577 417.962 306.73 416.035C305.884 414.095 305.461 411.966 305.461 409.648ZM311.652 409.648C311.652 411.224 311.932 412.643 312.492 413.906C313.065 415.169 313.853 416.25 314.855 417.148C315.871 418.034 317.062 418.717 318.43 419.199C319.81 419.681 321.307 419.922 322.922 419.922C324.536 419.922 326.027 419.681 327.395 419.199C328.775 418.717 329.966 418.034 330.969 417.148C331.971 416.25 332.759 415.169 333.332 413.906C333.905 412.643 334.191 411.224 334.191 409.648C334.191 408.073 333.905 406.66 333.332 405.41C332.759 404.16 331.971 403.105 330.969 402.246C329.966 401.374 328.775 400.71 327.395 400.254C326.027 399.798 324.536 399.57 322.922 399.57C321.307 399.57 319.81 399.798 318.43 400.254C317.062 400.71 315.871 401.374 314.855 402.246C313.853 403.105 313.065 404.16 312.492 405.41C311.932 406.66 311.652 408.073 311.652 409.648ZM348.195 394.473H354.387V413.887H348.195V394.473ZM346.652 421.621C346.652 421.1 346.757 420.612 346.965 420.156C347.186 419.688 347.499 419.284 347.902 418.945C348.306 418.594 348.794 418.32 349.367 418.125C349.94 417.93 350.585 417.832 351.301 417.832C352.017 417.832 352.661 417.93 353.234 418.125C353.807 418.32 354.289 418.594 354.68 418.945C355.083 419.284 355.389 419.688 355.598 420.156C355.819 420.612 355.93 421.1 355.93 421.621C355.93 422.142 355.819 422.637 355.598 423.105C355.389 423.561 355.083 423.958 354.68 424.297C354.289 424.635 353.807 424.902 353.234 425.098C352.661 425.306 352.017 425.41 351.301 425.41C350.585 425.41 349.94 425.306 349.367 425.098C348.794 424.902 348.306 424.635 347.902 424.297C347.499 423.958 347.186 423.561 346.965 423.105C346.757 422.637 346.652 422.142 346.652 421.621Z" fill="white"/>
<rect x="53.5" y="503.5" width="299" height="45" rx="9.5" stroke="#847E7E"/>
<rect width="109" height="26" transform="translate(73 490)" fill="black"/>
<path d="M83.25 502.092C83.4273 502.092 83.516 502.419 83.516 503.072C83.516 503.268 83.4927 503.501 83.446 503.772C83.4087 504.033 83.334 504.164 83.222 504.164H81.444V505.564H84.02C84.1787 505.564 84.286 505.769 84.342 506.18C84.37 506.357 84.384 506.549 84.384 506.754C84.384 506.95 84.356 507.207 84.3 507.524C84.244 507.841 84.1507 508 84.02 508H79.232C78.8773 508 78.7 507.855 78.7 507.566V498.564C78.7 498.321 78.8073 498.2 79.022 498.2H84.034C84.23 498.2 84.328 498.615 84.328 499.446C84.328 500.267 84.23 500.678 84.034 500.678H81.444V502.092H83.25ZM91.8763 507.93C91.8763 507.995 91.475 508.028 90.6723 508.028C89.879 508.028 89.4823 507.986 89.4823 507.902V503.828C89.4823 503.361 89.3283 503.128 89.0203 503.128C88.8616 503.128 88.6516 503.231 88.3903 503.436V507.916C88.3903 508.009 87.989 508.056 87.1863 508.056C86.393 508.056 85.9963 508.005 85.9963 507.902V503.324H85.6463C85.3383 503.324 85.1843 503.002 85.1843 502.358C85.1843 502.069 85.2403 501.775 85.3523 501.476C85.5016 501.065 85.7443 500.86 86.0803 500.86C86.4163 500.86 86.7383 500.949 87.0463 501.126C87.3636 501.303 87.555 501.471 87.6203 501.63C88.199 501.117 88.8383 500.86 89.5383 500.86C90.2476 500.86 90.817 501.079 91.2463 501.518C91.7503 501.079 92.357 500.86 93.0663 500.86C94.6063 500.86 95.3763 501.798 95.3763 503.674V507.93C95.3763 507.995 94.975 508.028 94.1723 508.028C93.379 508.028 92.9823 507.986 92.9823 507.902V503.828C92.9823 503.361 92.8283 503.128 92.5203 503.128C92.3523 503.128 92.1376 503.231 91.8763 503.436V507.93ZM97.4495 502.918C97.1882 502.451 97.0575 502.073 97.0575 501.784C97.0575 501.485 97.1368 501.294 97.2955 501.21C97.8275 500.977 98.5555 500.86 99.4795 500.86C100.413 500.86 101.071 501.079 101.454 501.518C101.836 501.947 102.028 502.587 102.028 503.436V505.648H102.504C102.662 505.648 102.784 505.741 102.868 505.928C102.961 506.115 103.007 506.371 103.007 506.698C103.007 507.025 102.924 507.347 102.756 507.664C102.597 507.981 102.378 508.14 102.098 508.14C101.594 508.14 101.188 508.005 100.88 507.734C100.74 507.622 100.632 507.487 100.558 507.328C100.128 507.869 99.4608 508.14 98.5555 508.14C97.8742 508.14 97.3002 507.897 96.8335 507.412C96.3668 506.927 96.1335 506.353 96.1335 505.69C96.1335 504.169 97.0435 503.408 98.8635 503.408H99.6335V503.268C99.6335 503.025 99.5915 502.871 99.5075 502.806C99.4328 502.731 99.2508 502.694 98.9615 502.694C98.6068 502.694 98.1028 502.769 97.4495 502.918ZM98.5695 505.494C98.5695 505.699 98.6255 505.858 98.7375 505.97C98.8495 506.073 98.9895 506.124 99.1575 506.124C99.3348 506.124 99.4935 506.054 99.6335 505.914V504.836H99.2415C98.7935 504.836 98.5695 505.055 98.5695 505.494ZM106.362 507.916C106.362 507.991 105.933 508.028 105.074 508.028C104.225 508.028 103.8 507.995 103.8 507.93V501.056C103.8 500.991 104.225 500.958 105.074 500.958C105.933 500.958 106.362 500.986 106.362 501.042V507.916ZM106.362 500.216C106.362 500.281 105.933 500.314 105.074 500.314C104.225 500.314 103.8 500.286 103.8 500.23V498.214C103.8 498.121 104.225 498.074 105.074 498.074C105.933 498.074 106.362 498.102 106.362 498.158V500.216ZM110.176 507.888C110.176 507.972 109.7 508.014 108.748 508.014C108.001 508.005 107.628 507.967 107.628 507.902V498.368C107.628 498.228 108.081 498.158 108.986 498.158C109.779 498.186 110.176 498.233 110.176 498.298V507.888ZM114.683 507.174C114.105 506.53 113.815 505.639 113.815 504.5C113.815 503.361 114.105 502.47 114.683 501.826C115.271 501.182 116.06 500.86 117.049 500.86C118.039 500.86 118.823 501.182 119.401 501.826C119.98 502.47 120.269 503.361 120.269 504.5C120.269 505.639 119.98 506.53 119.401 507.174C118.823 507.818 118.039 508.14 117.049 508.14C116.06 508.14 115.271 507.818 114.683 507.174ZM117.049 503.198C116.527 503.198 116.265 503.627 116.265 504.486C116.265 505.345 116.527 505.774 117.049 505.774C117.581 505.774 117.847 505.345 117.847 504.486C117.847 503.627 117.581 503.198 117.049 503.198ZM121.189 501.084C121.189 500.981 121.59 500.93 122.393 500.93C123.196 500.93 123.597 500.981 123.597 501.084V505.172C123.597 505.639 123.746 505.872 124.045 505.872C124.269 505.872 124.521 505.774 124.801 505.578V501.084C124.801 500.991 125.198 500.944 125.991 500.944C126.784 500.944 127.181 500.991 127.181 501.084V505.676H127.545C127.862 505.676 128.021 505.979 128.021 506.586C128.021 506.894 127.956 507.207 127.825 507.524C127.638 507.935 127.386 508.14 127.069 508.14C126.444 508.14 125.982 507.883 125.683 507.37L125.669 507.384C125.1 507.888 124.488 508.14 123.835 508.14C122.93 508.14 122.262 507.916 121.833 507.468C121.404 507.011 121.189 506.259 121.189 505.214V501.084ZM131.443 501.084C131.443 500.981 131.844 500.93 132.647 500.93C133.449 500.93 133.851 500.981 133.851 501.084V505.172C133.851 505.639 134 505.872 134.299 505.872C134.523 505.872 134.775 505.774 135.055 505.578V501.084C135.055 500.991 135.451 500.944 136.245 500.944C137.038 500.944 137.435 500.991 137.435 501.084V505.676H137.799C138.116 505.676 138.275 505.979 138.275 506.586C138.275 506.894 138.209 507.207 138.079 507.524C137.892 507.935 137.64 508.14 137.323 508.14C136.697 508.14 136.235 507.883 135.937 507.37L135.923 507.384C135.353 507.888 134.742 508.14 134.089 508.14C133.183 508.14 132.516 507.916 132.087 507.468C131.657 507.011 131.443 506.259 131.443 505.214V501.084ZM139.422 505.48C140.178 505.937 140.775 506.166 141.214 506.166C141.494 506.166 141.634 506.068 141.634 505.872C141.634 505.732 141.391 505.55 140.906 505.326C139.739 504.85 139.156 504.071 139.156 502.988C139.156 502.297 139.408 501.77 139.912 501.406C140.416 501.042 141.018 500.86 141.718 500.86C142.427 500.86 143.025 500.935 143.51 501.084C144.005 501.233 144.252 501.429 144.252 501.672C144.252 501.877 144.149 502.148 143.944 502.484C143.748 502.82 143.613 503.002 143.538 503.03C143.137 502.806 142.703 502.694 142.236 502.694C141.984 502.694 141.858 502.783 141.858 502.96C141.858 503.072 141.905 503.17 141.998 503.254C142.101 503.329 142.283 503.427 142.544 503.548C142.805 503.66 143.02 503.763 143.188 503.856C143.365 503.949 143.561 504.08 143.776 504.248C144.224 504.603 144.448 505.065 144.448 505.634C144.448 506.381 144.201 506.987 143.706 507.454C143.211 507.911 142.465 508.14 141.466 508.14C140.803 508.14 140.201 508.028 139.66 507.804C139.119 507.58 138.848 507.272 138.848 506.88C138.848 506.619 138.909 506.343 139.03 506.054C139.161 505.765 139.291 505.573 139.422 505.48ZM145.361 501.084C145.361 500.981 145.762 500.93 146.565 500.93C147.367 500.93 147.769 500.981 147.769 501.084V505.172C147.769 505.639 147.918 505.872 148.217 505.872C148.441 505.872 148.693 505.774 148.973 505.578V501.084C148.973 500.991 149.369 500.944 150.163 500.944C150.956 500.944 151.353 500.991 151.353 501.084V505.676H151.717C152.034 505.676 152.193 505.979 152.193 506.586C152.193 506.894 152.127 507.207 151.997 507.524C151.81 507.935 151.558 508.14 151.241 508.14C150.615 508.14 150.153 507.883 149.855 507.37L149.841 507.384C149.271 507.888 148.66 508.14 148.007 508.14C147.101 508.14 146.434 507.916 146.005 507.468C145.575 507.011 145.361 506.259 145.361 505.214V501.084ZM153.928 502.918C153.667 502.451 153.536 502.073 153.536 501.784C153.536 501.485 153.615 501.294 153.774 501.21C154.306 500.977 155.034 500.86 155.958 500.86C156.891 500.86 157.549 501.079 157.932 501.518C158.315 501.947 158.506 502.587 158.506 503.436V505.648H158.982C159.141 505.648 159.262 505.741 159.346 505.928C159.439 506.115 159.486 506.371 159.486 506.698C159.486 507.025 159.402 507.347 159.234 507.664C159.075 507.981 158.856 508.14 158.576 508.14C158.072 508.14 157.666 508.005 157.358 507.734C157.218 507.622 157.111 507.487 157.036 507.328C156.607 507.869 155.939 508.14 155.034 508.14C154.353 508.14 153.779 507.897 153.312 507.412C152.845 506.927 152.612 506.353 152.612 505.69C152.612 504.169 153.522 503.408 155.342 503.408H156.112V503.268C156.112 503.025 156.07 502.871 155.986 502.806C155.911 502.731 155.729 502.694 155.44 502.694C155.085 502.694 154.581 502.769 153.928 502.918ZM155.048 505.494C155.048 505.699 155.104 505.858 155.216 505.97C155.328 506.073 155.468 506.124 155.636 506.124C155.813 506.124 155.972 506.054 156.112 505.914V504.836H155.72C155.272 504.836 155.048 505.055 155.048 505.494ZM154.894 500.594C154.81 500.594 154.703 500.501 154.572 500.314C154.404 500.053 154.32 499.833 154.32 499.656C154.32 499.479 154.348 499.362 154.404 499.306C155.925 498.466 156.7 498.046 156.728 498.046C156.821 498.046 156.938 498.158 157.078 498.382C157.293 498.709 157.4 499.017 157.4 499.306C157.4 499.409 157.377 499.483 157.33 499.53C155.725 500.239 154.913 500.594 154.894 500.594ZM163.344 507.986C163.344 508.051 162.92 508.084 162.07 508.084C161.221 508.065 160.796 508.028 160.796 507.972V503.324H160.418C160.269 503.324 160.148 503.235 160.054 503.058C159.97 502.871 159.928 502.643 159.928 502.372C159.928 501.364 160.227 500.86 160.824 500.86C161.244 500.86 161.594 500.991 161.874 501.252C162.154 501.504 162.294 501.793 162.294 502.12C162.49 501.737 162.752 501.434 163.078 501.21C163.414 500.977 163.755 500.86 164.1 500.86C164.642 500.86 164.968 501 165.08 501.28C165.108 501.355 165.122 501.467 165.122 501.616C165.122 501.756 165.076 502.013 164.982 502.386C164.898 502.759 164.81 503.03 164.716 503.198C164.623 503.366 164.567 503.45 164.548 503.45C164.53 503.45 164.441 503.417 164.282 503.352C164.133 503.277 163.998 503.24 163.876 503.24C163.522 503.24 163.344 503.52 163.344 504.08V507.986ZM168.391 507.916C168.391 507.991 167.962 508.028 167.103 508.028C166.254 508.028 165.829 507.995 165.829 507.93V501.056C165.829 500.991 166.254 500.958 167.103 500.958C167.962 500.958 168.391 500.986 168.391 501.042V507.916ZM168.391 500.216C168.391 500.281 167.962 500.314 167.103 500.314C166.254 500.314 165.829 500.286 165.829 500.23V498.214C165.829 498.121 166.254 498.074 167.103 498.074C167.962 498.074 168.391 498.102 168.391 498.158V500.216ZM170.259 507.174C169.681 506.53 169.391 505.639 169.391 504.5C169.391 503.361 169.681 502.47 170.259 501.826C170.847 501.182 171.636 500.86 172.625 500.86C173.615 500.86 174.399 501.182 174.977 501.826C175.556 502.47 175.845 503.361 175.845 504.5C175.845 505.639 175.556 506.53 174.977 507.174C174.399 507.818 173.615 508.14 172.625 508.14C171.636 508.14 170.847 507.818 170.259 507.174ZM172.625 503.198C172.103 503.198 171.841 503.627 171.841 504.486C171.841 505.345 172.103 505.774 172.625 505.774C173.157 505.774 173.423 505.345 173.423 504.486C173.423 503.627 173.157 503.198 172.625 503.198Z" fill="white"/>
<rect x="53.5" y="605.5" width="299" height="45" rx="9.5" stroke="#847E7E"/>
<rect width="47" height="26" transform="translate(73 592)" fill="black"/>
<path d="M79.064 606.584C79.2413 606.724 79.5447 606.915 79.974 607.158C80.4127 607.401 80.828 607.522 81.22 607.522C81.6213 607.522 81.822 607.368 81.822 607.06C81.822 606.92 81.766 606.799 81.654 606.696C81.542 606.584 81.3367 606.458 81.038 606.318C80.7393 606.178 80.5153 606.071 80.366 605.996C80.2167 605.912 80.016 605.781 79.764 605.604C79.5213 605.417 79.3347 605.226 79.204 605.03C78.8307 604.498 78.644 603.821 78.644 603C78.644 602.179 78.9473 601.488 79.554 600.928C80.17 600.359 80.9727 600.074 81.962 600.074C82.634 600.074 83.2547 600.149 83.824 600.298C84.3933 600.438 84.6873 600.625 84.706 600.858C84.706 600.886 84.706 600.914 84.706 600.942C84.706 601.269 84.6033 601.684 84.398 602.188C84.1927 602.683 84.048 602.958 83.964 603.014C83.3667 602.706 82.83 602.552 82.354 602.552C81.8873 602.552 81.654 602.72 81.654 603.056C81.654 603.261 81.8267 603.443 82.172 603.602C82.2467 603.639 82.354 603.691 82.494 603.756C82.634 603.821 82.7927 603.901 82.97 603.994C83.1567 604.078 83.3527 604.19 83.558 604.33C83.7727 604.461 84.0013 604.638 84.244 604.862C84.7387 605.329 84.986 605.945 84.986 606.71C84.986 607.709 84.7107 608.525 84.16 609.16C83.6093 609.795 82.76 610.121 81.612 610.14C81.052 610.14 80.5433 610.093 80.086 610C79.638 609.907 79.246 609.725 78.91 609.454C78.574 609.183 78.406 608.857 78.406 608.474C78.406 608.091 78.476 607.713 78.616 607.34C78.756 606.957 78.9053 606.705 79.064 606.584ZM91.3595 609.622C90.7715 609.967 90.0155 610.14 89.0915 610.14C88.1675 610.14 87.3882 609.827 86.7535 609.202C86.1188 608.567 85.8015 607.695 85.8015 606.584C85.8015 605.464 86.1048 604.563 86.7115 603.882C87.3275 603.201 88.1022 602.86 89.0355 602.86C89.9688 602.86 90.6875 603.098 91.1915 603.574C91.7048 604.05 91.9615 604.629 91.9615 605.31C91.9615 606.822 91.0935 607.578 89.3575 607.578H88.3915C88.3915 607.858 88.4662 608.054 88.6155 608.166C88.7742 608.269 89.0028 608.32 89.3015 608.32C89.9548 608.32 90.5755 608.171 91.1635 607.872C91.1728 607.863 91.2148 607.928 91.2895 608.068C91.5135 608.469 91.6255 608.81 91.6255 609.09C91.6255 609.361 91.5368 609.538 91.3595 609.622ZM89.6095 605.576C89.6095 605.184 89.4182 604.988 89.0355 604.988C88.8582 604.988 88.7042 605.044 88.5735 605.156C88.4522 605.259 88.3915 605.413 88.3915 605.618V606.052H89.1475C89.4555 606.052 89.6095 605.893 89.6095 605.576ZM95.8021 609.916C95.8021 609.981 95.4661 610.014 94.7941 610.014C93.8608 609.986 93.3941 609.935 93.3941 609.86V605.324H93.0301C92.7874 605.324 92.6288 605.119 92.5541 604.708C92.5354 604.587 92.5261 604.465 92.5261 604.344C92.5261 604.055 92.5821 603.765 92.6941 603.476C92.8621 603.065 93.1234 602.86 93.4781 602.86C93.8328 602.86 94.1501 602.944 94.4301 603.112C94.7101 603.28 94.8968 603.448 94.9901 603.616C95.5781 603.112 96.2781 602.86 97.0901 602.86C97.9021 602.86 98.4901 603.079 98.8541 603.518C99.2181 603.957 99.4001 604.675 99.4001 605.674V609.874C99.4001 609.986 98.9988 610.042 98.1961 610.042C97.4028 610.042 97.0061 609.986 97.0061 609.874V605.828C97.0061 605.361 96.8428 605.128 96.5161 605.128C96.4228 605.128 96.2921 605.17 96.1241 605.254C95.9561 605.329 95.8488 605.385 95.8021 605.422V609.916ZM102.925 609.902C102.925 609.986 102.533 610.028 101.749 610.028C100.974 610.028 100.587 609.963 100.587 609.832V600.242C100.587 600.177 100.732 600.13 101.021 600.102C101.31 600.074 101.553 600.06 101.749 600.06C102.533 600.06 102.925 600.144 102.925 600.312V603.112C103.448 602.953 103.844 602.874 104.115 602.874C104.824 602.874 105.384 603.065 105.795 603.448C106.206 603.821 106.411 604.521 106.411 605.548V609.888C106.411 609.972 106.047 610.014 105.319 610.014C104.498 609.986 104.087 609.939 104.087 609.874V605.758C104.087 605.301 103.938 605.072 103.639 605.072C103.434 605.072 103.196 605.17 102.925 605.366V609.902ZM108.483 604.918C108.221 604.451 108.091 604.073 108.091 603.784C108.091 603.485 108.17 603.294 108.329 603.21C108.861 602.977 109.589 602.86 110.513 602.86C111.446 602.86 112.104 603.079 112.487 603.518C112.869 603.947 113.061 604.587 113.061 605.436V607.648H113.537C113.695 607.648 113.817 607.741 113.901 607.928C113.994 608.115 114.041 608.371 114.041 608.698C114.041 609.025 113.957 609.347 113.789 609.664C113.63 609.981 113.411 610.14 113.131 610.14C112.627 610.14 112.221 610.005 111.913 609.734C111.773 609.622 111.665 609.487 111.591 609.328C111.161 609.869 110.494 610.14 109.589 610.14C108.907 610.14 108.333 609.897 107.867 609.412C107.4 608.927 107.167 608.353 107.167 607.69C107.167 606.169 108.077 605.408 109.897 605.408H110.667V605.268C110.667 605.025 110.625 604.871 110.541 604.806C110.466 604.731 110.284 604.694 109.995 604.694C109.64 604.694 109.136 604.769 108.483 604.918ZM109.603 607.494C109.603 607.699 109.659 607.858 109.771 607.97C109.883 608.073 110.023 608.124 110.191 608.124C110.368 608.124 110.527 608.054 110.667 607.914V606.836H110.275C109.827 606.836 109.603 607.055 109.603 607.494Z" fill="white"/>
<path d="M84.72 715.82C85.6933 715.82 86.5467 715.96 87.28 716.24C88.0267 716.507 88.4 716.873 88.4 717.34C88.4 717.807 88.22 718.387 87.86 719.08C87.5133 719.76 87.22 720.1 86.98 720.1C86.9133 720.1 86.8333 720.067 86.74 720C86.66 719.92 86.46 719.84 86.14 719.76C85.8333 719.667 85.5667 719.62 85.34 719.62C84.5667 719.62 83.94 719.893 83.46 720.44C82.9933 720.987 82.76 721.827 82.76 722.96C82.76 724.08 83 724.913 83.48 725.46C83.9733 726.007 84.5933 726.28 85.34 726.28C85.6467 726.28 85.9867 726.24 86.36 726.16C86.7467 726.067 87.02 725.94 87.18 725.78C87.2067 725.753 87.26 725.74 87.34 725.74C87.42 725.74 87.5667 725.893 87.78 726.2C88.0067 726.493 88.2133 726.887 88.4 727.38C88.5867 727.86 88.68 728.233 88.68 728.5C88.68 729.02 88.28 729.433 87.48 729.74C86.68 730.047 85.7333 730.2 84.64 730.2C82.88 730.2 81.4333 729.58 80.3 728.34C79.1667 727.1 78.6 725.353 78.6 723.1C78.6 720.833 79.18 719.053 80.34 717.76C81.5133 716.467 82.9733 715.82 84.72 715.82ZM91.3709 722.74C90.9976 722.073 90.8109 721.533 90.8109 721.12C90.8109 720.693 90.9243 720.42 91.1509 720.3C91.9109 719.967 92.9509 719.8 94.2709 719.8C95.6043 719.8 96.5443 720.113 97.0909 720.74C97.6376 721.353 97.9109 722.267 97.9109 723.48V726.64H98.5909C98.8176 726.64 98.9909 726.773 99.1109 727.04C99.2443 727.307 99.3109 727.673 99.3109 728.14C99.3109 728.607 99.1909 729.067 98.9509 729.52C98.7243 729.973 98.4109 730.2 98.0109 730.2C97.2909 730.2 96.7109 730.007 96.2709 729.62C96.0709 729.46 95.9176 729.267 95.8109 729.04C95.1976 729.813 94.2443 730.2 92.9509 730.2C91.9776 730.2 91.1576 729.853 90.4909 729.16C89.8243 728.467 89.4909 727.647 89.4909 726.7C89.4909 724.527 90.7909 723.44 93.3909 723.44H94.4909V723.24C94.4909 722.893 94.4309 722.673 94.3109 722.58C94.2043 722.473 93.9443 722.42 93.5309 722.42C93.0243 722.42 92.3043 722.527 91.3709 722.74ZM92.9709 726.42C92.9709 726.713 93.0509 726.94 93.2109 727.1C93.3709 727.247 93.5709 727.32 93.8109 727.32C94.0643 727.32 94.2909 727.22 94.4909 727.02V725.48H93.9309C93.2909 725.48 92.9709 725.793 92.9709 726.42ZM105.503 716.12C105.503 715.92 106.03 715.82 107.083 715.82C107.443 715.82 107.856 715.847 108.323 715.9C108.803 715.94 109.043 716 109.043 716.08V726.62H109.743C110.076 726.62 110.296 726.92 110.403 727.52C110.43 727.693 110.443 727.933 110.443 728.24C110.443 728.533 110.35 728.893 110.163 729.32C109.896 729.907 109.47 730.2 108.883 730.2C108.443 730.2 108.05 730.113 107.703 729.94C107.37 729.767 107.143 729.587 107.023 729.4L106.843 729.14C106.11 729.847 105.19 730.2 104.083 730.2C102.976 730.2 102.03 729.74 101.243 728.82C100.456 727.9 100.063 726.62 100.063 724.98C100.063 723.327 100.476 722.053 101.303 721.16C102.13 720.253 103.163 719.8 104.403 719.8C104.763 719.8 105.13 719.84 105.503 719.92V716.12ZM104.843 723C104.096 723 103.723 723.673 103.723 725.02C103.723 725.7 103.83 726.193 104.043 726.5C104.256 726.793 104.49 726.94 104.743 726.94C105.01 726.94 105.263 726.827 105.503 726.6V723.2C105.276 723.067 105.056 723 104.843 723ZM113.012 722.74C112.638 722.073 112.452 721.533 112.452 721.12C112.452 720.693 112.565 720.42 112.792 720.3C113.552 719.967 114.592 719.8 115.912 719.8C117.245 719.8 118.185 720.113 118.732 720.74C119.278 721.353 119.552 722.267 119.552 723.48V726.64H120.232C120.458 726.64 120.632 726.773 120.752 727.04C120.885 727.307 120.952 727.673 120.952 728.14C120.952 728.607 120.832 729.067 120.592 729.52C120.365 729.973 120.052 730.2 119.652 730.2C118.932 730.2 118.352 730.007 117.912 729.62C117.712 729.46 117.558 729.267 117.452 729.04C116.838 729.813 115.885 730.2 114.592 730.2C113.618 730.2 112.798 729.853 112.132 729.16C111.465 728.467 111.132 727.647 111.132 726.7C111.132 724.527 112.432 723.44 115.032 723.44H116.132V723.24C116.132 722.893 116.072 722.673 115.952 722.58C115.845 722.473 115.585 722.42 115.172 722.42C114.665 722.42 113.945 722.527 113.012 722.74ZM114.612 726.42C114.612 726.713 114.692 726.94 114.852 727.1C115.012 727.247 115.212 727.32 115.452 727.32C115.705 727.32 115.932 727.22 116.132 727.02V725.48H115.572C114.932 725.48 114.612 725.793 114.612 726.42ZM122.504 726.4C123.584 727.053 124.437 727.38 125.064 727.38C125.464 727.38 125.664 727.24 125.664 726.96C125.664 726.76 125.317 726.5 124.624 726.18C122.957 725.5 122.124 724.387 122.124 722.84C122.124 721.853 122.484 721.1 123.204 720.58C123.924 720.06 124.784 719.8 125.784 719.8C126.797 719.8 127.65 719.907 128.344 720.12C129.05 720.333 129.404 720.613 129.404 720.96C129.404 721.253 129.257 721.64 128.964 722.12C128.684 722.6 128.49 722.86 128.384 722.9C127.81 722.58 127.19 722.42 126.524 722.42C126.164 722.42 125.984 722.547 125.984 722.8C125.984 722.96 126.05 723.1 126.184 723.22C126.33 723.327 126.59 723.467 126.964 723.64C127.337 723.8 127.644 723.947 127.884 724.08C128.137 724.213 128.417 724.4 128.724 724.64C129.364 725.147 129.684 725.807 129.684 726.62C129.684 727.687 129.33 728.553 128.624 729.22C127.917 729.873 126.85 730.2 125.424 730.2C124.477 730.2 123.617 730.04 122.844 729.72C122.07 729.4 121.684 728.96 121.684 728.4C121.684 728.027 121.77 727.633 121.944 727.22C122.13 726.807 122.317 726.533 122.504 726.4ZM135.688 729.88C135.688 730.04 135.128 730.12 134.008 730.12C132.674 730.067 132.008 729.98 132.008 729.86V722.78H130.988C130.721 722.78 130.588 722.32 130.588 721.4C130.588 721.16 130.608 720.867 130.648 720.52C130.701 720.173 130.801 720 130.948 720H132.008V718.24C132.008 717.973 132.568 717.84 133.688 717.84C134.821 717.84 135.388 717.947 135.388 718.16V719.44L135.408 720H137.108C137.334 720 137.448 720.467 137.448 721.4C137.448 722.333 137.334 722.8 137.108 722.8H135.688V729.88ZM142.831 729.98C142.831 730.073 142.224 730.12 141.011 730.12C139.797 730.093 139.191 730.04 139.191 729.96V723.32H138.651C138.437 723.32 138.264 723.193 138.131 722.94C138.011 722.673 137.951 722.347 137.951 721.96C137.951 720.52 138.377 719.8 139.231 719.8C139.831 719.8 140.331 719.987 140.731 720.36C141.131 720.72 141.331 721.133 141.331 721.6C141.611 721.053 141.984 720.62 142.451 720.3C142.931 719.967 143.417 719.8 143.911 719.8C144.684 719.8 145.151 720 145.311 720.4C145.351 720.507 145.371 720.667 145.371 720.88C145.371 721.08 145.304 721.447 145.171 721.98C145.051 722.513 144.924 722.9 144.791 723.14C144.657 723.38 144.577 723.5 144.551 723.5C144.524 723.5 144.397 723.453 144.171 723.36C143.957 723.253 143.764 723.2 143.591 723.2C143.084 723.2 142.831 723.6 142.831 724.4V729.98ZM153.94 729.46C153.1 729.953 152.02 730.2 150.7 730.2C149.38 730.2 148.267 729.753 147.36 728.86C146.454 727.953 146 726.707 146 725.12C146 723.52 146.434 722.233 147.3 721.26C148.18 720.287 149.287 719.8 150.62 719.8C151.954 719.8 152.98 720.14 153.7 720.82C154.434 721.5 154.8 722.327 154.8 723.3C154.8 725.46 153.56 726.54 151.08 726.54H149.7C149.7 726.94 149.807 727.22 150.02 727.38C150.247 727.527 150.574 727.6 151 727.6C151.934 727.6 152.82 727.387 153.66 726.96C153.674 726.947 153.734 727.04 153.84 727.24C154.16 727.813 154.32 728.3 154.32 728.7C154.32 729.087 154.194 729.34 153.94 729.46ZM151.44 723.68C151.44 723.12 151.167 722.84 150.62 722.84C150.367 722.84 150.147 722.92 149.96 723.08C149.787 723.227 149.7 723.447 149.7 723.74V724.36H150.78C151.22 724.36 151.44 724.133 151.44 723.68ZM164.407 726.2H156.507C156.267 726.2 156.094 726.007 155.987 725.62C155.934 725.42 155.907 725.227 155.907 725.04C155.907 724.853 155.934 724.66 155.987 724.46C156.094 724.073 156.267 723.88 156.507 723.88H164.407C164.647 723.88 164.82 724.073 164.927 724.46C164.98 724.66 165.007 724.853 165.007 725.04C165.007 725.227 164.98 725.42 164.927 725.62C164.82 726.007 164.647 726.2 164.407 726.2ZM167.035 726.4C168.115 727.053 168.968 727.38 169.595 727.38C169.995 727.38 170.195 727.24 170.195 726.96C170.195 726.76 169.848 726.5 169.155 726.18C167.488 725.5 166.655 724.387 166.655 722.84C166.655 721.853 167.015 721.1 167.735 720.58C168.455 720.06 169.315 719.8 170.315 719.8C171.328 719.8 172.182 719.907 172.875 720.12C173.582 720.333 173.935 720.613 173.935 720.96C173.935 721.253 173.788 721.64 173.495 722.12C173.215 722.6 173.022 722.86 172.915 722.9C172.342 722.58 171.722 722.42 171.055 722.42C170.695 722.42 170.515 722.547 170.515 722.8C170.515 722.96 170.582 723.1 170.715 723.22C170.862 723.327 171.122 723.467 171.495 723.64C171.868 723.8 172.175 723.947 172.415 724.08C172.668 724.213 172.948 724.4 173.255 724.64C173.895 725.147 174.215 725.807 174.215 726.62C174.215 727.687 173.862 728.553 173.155 729.22C172.448 729.873 171.382 730.2 169.955 730.2C169.008 730.2 168.148 730.04 167.375 729.72C166.602 729.4 166.215 728.96 166.215 728.4C166.215 728.027 166.302 727.633 166.475 727.22C166.662 726.807 166.848 726.533 167.035 726.4ZM183.179 729.46C182.339 729.953 181.259 730.2 179.939 730.2C178.619 730.2 177.505 729.753 176.599 728.86C175.692 727.953 175.239 726.707 175.239 725.12C175.239 723.52 175.672 722.233 176.539 721.26C177.419 720.287 178.525 719.8 179.859 719.8C181.192 719.8 182.219 720.14 182.939 720.82C183.672 721.5 184.039 722.327 184.039 723.3C184.039 725.46 182.799 726.54 180.319 726.54H178.939C178.939 726.94 179.045 727.22 179.259 727.38C179.485 727.527 179.812 727.6 180.239 727.6C181.172 727.6 182.059 727.387 182.899 726.96C182.912 726.947 182.972 727.04 183.079 727.24C183.399 727.813 183.559 728.3 183.559 728.7C183.559 729.087 183.432 729.34 183.179 729.46ZM180.679 723.68C180.679 723.12 180.405 722.84 179.859 722.84C179.605 722.84 179.385 722.92 179.199 723.08C179.025 723.227 178.939 723.447 178.939 723.74V724.36H180.019C180.459 724.36 180.679 724.133 180.679 723.68Z" fill="white"/>
<g filter="url(#filter0_d_2027_61)">
<rect x="62" y="671" width="281" height="40" rx="20" fill="#004AAD"/>
</g>
<g filter="url(#filter1_d_2027_61)">
<path d="M165.504 679.2H177.984L178.224 683.952H177.792C177.12 682.336 176.416 681.232 175.68 680.64C174.944 680.032 173.864 679.728 172.44 679.728H171.6V687.144H172.416C173.168 687.144 173.8 686.864 174.312 686.304C174.824 685.728 175.184 684.96 175.392 684H175.752V691.104H175.344C175.056 689.904 174.664 689.048 174.168 688.536C173.688 688.024 173.024 687.768 172.176 687.768H171.6V695.472H172.512C173.984 695.472 175.232 695.032 176.256 694.152C177.296 693.272 178.008 692.144 178.392 690.768H178.872L178.68 696H165.504V695.472H166.92V679.728H165.504V679.2ZM180.265 684.576H186.049V686.784C186.305 686.048 186.697 685.456 187.225 685.008C187.753 684.56 188.553 684.336 189.625 684.336C192.105 684.336 193.345 685.672 193.345 688.344V695.568H194.689V696H187.897V695.568H188.881V687.768C188.881 686.808 188.817 686.192 188.689 685.92C188.561 685.632 188.329 685.488 187.993 685.488C187.481 685.488 187.025 685.824 186.625 686.496C186.241 687.168 186.049 687.984 186.049 688.944V695.568H187.081V696H180.265V695.568H181.585V685.008H180.265V684.576ZM196.088 692.568V685.008H194.768V684.576H196.088V681.48L200.552 680.376V684.576H203.672V685.008H200.552V693.096C200.552 693.848 200.624 694.4 200.768 694.752C200.928 695.104 201.248 695.28 201.728 695.28C202.208 695.28 202.624 695.04 202.976 694.56C203.344 694.08 203.584 693.424 203.696 692.592L204.104 692.64C203.976 693.744 203.624 694.624 203.048 695.28C202.472 695.92 201.52 696.24 200.192 696.24C198.864 696.24 197.848 695.976 197.144 695.448C196.44 694.92 196.088 693.96 196.088 692.568ZM212.35 685.248C211.758 685.248 211.238 685.632 210.79 686.4C210.342 687.168 210.118 688.08 210.118 689.136V695.568H211.822V696H204.334V695.568H205.654V685.008H204.334V684.576H210.118V686.88C210.326 686.064 210.726 685.44 211.318 685.008C211.91 684.56 212.582 684.336 213.334 684.336C214.086 684.336 214.694 684.552 215.158 684.984C215.638 685.4 215.878 686 215.878 686.784C215.878 687.552 215.702 688.144 215.35 688.56C214.998 688.976 214.454 689.184 213.718 689.184C212.998 689.184 212.462 688.944 212.11 688.464C211.774 687.984 211.734 687.32 211.99 686.472H212.854C213.254 685.656 213.086 685.248 212.35 685.248ZM221.625 690.36H222.321V688.512C222.321 686.992 222.233 685.976 222.057 685.464C221.897 684.936 221.577 684.672 221.097 684.672C220.809 684.672 220.545 684.752 220.305 684.912C220.081 685.056 219.969 685.264 219.969 685.536C219.969 685.792 220.017 686.056 220.113 686.328H220.713C220.841 686.664 220.905 687.072 220.905 687.552C220.905 688.016 220.705 688.424 220.305 688.776C219.905 689.112 219.401 689.28 218.793 689.28C217.417 689.28 216.729 688.616 216.729 687.288C216.729 685.32 218.401 684.336 221.745 684.336C223.649 684.336 224.961 684.664 225.681 685.32C226.417 685.96 226.785 687.144 226.785 688.872V693.744C226.785 694.576 227.017 694.992 227.481 694.992C228.025 694.992 228.345 694.168 228.441 692.52L228.801 692.544C228.737 693.952 228.473 694.92 228.009 695.448C227.545 695.976 226.785 696.24 225.729 696.24C223.809 696.24 222.705 695.648 222.417 694.464C222.209 695.072 221.897 695.52 221.481 695.808C221.065 696.096 220.457 696.24 219.657 696.24C217.289 696.24 216.105 695.272 216.105 693.336C216.105 692.2 216.553 691.424 217.449 691.008C218.361 690.576 219.753 690.36 221.625 690.36ZM220.665 693.312C220.665 694.144 220.705 694.68 220.785 694.92C220.881 695.16 221.049 695.28 221.289 695.28C221.545 695.28 221.777 695.08 221.985 694.68C222.209 694.264 222.321 693.696 222.321 692.976V690.744H222.153C221.161 690.744 220.665 691.472 220.665 692.928V693.312ZM237.053 685.248C236.461 685.248 235.941 685.632 235.493 686.4C235.045 687.168 234.821 688.08 234.821 689.136V695.568H236.525V696H229.037V695.568H230.357V685.008H229.037V684.576H234.821V686.88C235.029 686.064 235.429 685.44 236.021 685.008C236.613 684.56 237.285 684.336 238.037 684.336C238.789 684.336 239.397 684.552 239.861 684.984C240.341 685.4 240.581 686 240.581 686.784C240.581 687.552 240.405 688.144 240.053 688.56C239.701 688.976 239.157 689.184 238.421 689.184C237.701 689.184 237.165 688.944 236.813 688.464C236.477 687.984 236.437 687.32 236.693 686.472H237.557C237.957 685.656 237.789 685.248 237.053 685.248Z" fill="white"/>
</g>
</g>
<defs>
<filter id="filter0_d_2027_61" x="58" y="671" width="289" height="48" filterUnits="userSpaceOnUse" color-interpolation-filters="sRGB">
<feFlood flood-opacity="0" result="BackgroundImageFix"/>
<feColorMatrix in="SourceAlpha" type="matrix" values="0 0 0 0 0 0 0 0 0 0 0 0 0 0 0 0 0 0 127 0" result="hardAlpha"/>
<feOffset dy="4"/>
<feGaussianBlur stdDeviation="2"/>
<feComposite in2="hardAlpha" operator="out"/>
<feColorMatrix type="matrix" values="0 0 0 0 0 0 0 0 0 0 0 0 0 0 0 0 0 0 0.25 0"/>
<feBlend mode="normal" in2="BackgroundImageFix" result="effect1_dropShadow_2027_61"/>
<feBlend mode="normal" in="SourceGraphic" in2="effect1_dropShadow_2027_61" result="shape"/>
</filter>
<filter id="filter1_d_2027_61" x="161.504" y="679.2" width="83.0769" height="25.04" filterUnits="userSpaceOnUse" color-interpolation-filters="sRGB">
<feFlood flood-opacity="0" result="BackgroundImageFix"/>
<feColorMatrix in="SourceAlpha" type="matrix" values="0 0 0 0 0 0 0 0 0 0 0 0 0 0 0 0 0 0 127 0" result="hardAlpha"/>
<feOffset dy="4"/>
<feGaussianBlur stdDeviation="2"/>
<feComposite in2="hardAlpha" operator="out"/>
<feColorMatrix type="matrix" values="0 0 0 0 0 0 0 0 0 0 0 0 0 0 0 0 0 0 0.25 0"/>
<feBlend mode="normal" in2="BackgroundImageFix" result="effect1_dropShadow_2027_61"/>
<feBlend mode="normal" in="SourceGraphic" in2="effect1_dropShadow_2027_61" result="shape"/>
</filter>
<clipPath id="clip0_2027_61">
<rect width="412" height="917" fill="white"/>
</clipPath>
</defs>
</svg>
