<svg xmlns="http://www.w3.org/2000/svg" xmlns:xlink="http://www.w3.org/1999/xlink" width="500" zoomAndPan="magnify" viewBox="0 0 375 374.999991" height="500" preserveAspectRatio="xMidYMid meet" version="1.2"><defs><clipPath id="b0980bba2f"><path d="M 130.355469 114.96875 L 242 114.96875 L 242 217.71875 L 130.355469 217.71875 Z M 130.355469 114.96875 "/></clipPath><clipPath id="ad62d29e17"><path d="M 182 107 L 237 107 L 237 151 L 182 151 Z M 182 107 "/></clipPath><clipPath id="fc2d7974a0"><path d="M 180.976562 152.167969 L 175.835938 110.484375 L 234.640625 103.234375 L 239.78125 144.917969 Z M 180.976562 152.167969 "/></clipPath><clipPath id="2d4df807c4"><path d="M 180.976562 152.167969 L 175.835938 110.484375 L 234.640625 103.234375 L 239.78125 144.917969 Z M 180.976562 152.167969 "/></clipPath><clipPath id="ecf5336c99"><path d="M 180 105 L 239 105 L 239 152 L 180 152 Z M 180 105 "/></clipPath><clipPath id="be2859f707"><path d="M 180.976562 152.167969 L 175.835938 110.484375 L 234.640625 103.234375 L 239.78125 144.917969 Z M 180.976562 152.167969 "/></clipPath><clipPath id="13a9e312d5"><path d="M 180.976562 152.167969 L 175.835938 110.484375 L 234.640625 103.234375 L 239.78125 144.917969 Z M 180.976562 152.167969 "/></clipPath><clipPath id="a6d351a5da"><path d="M 127.320312 95.476562 L 161.757812 95.476562 L 161.757812 126.863281 L 127.320312 126.863281 Z M 127.320312 95.476562 "/></clipPath><clipPath id="8969d70392"><path d="M 135.203125 105.46875 C 134.378906 119.269531 133.402344 123.769531 132.277344 125.417969 C 131.753906 126.246094 131.152344 126.695312 130.554688 126.769531 C 129.953125 126.917969 129.277344 126.769531 128.828125 126.46875 C 128.304688 126.09375 127.929688 125.496094 127.703125 124.519531 C 127.179688 122.417969 127.554688 116.570312 128.152344 113.34375 C 128.601562 110.871094 129.203125 107.792969 130.253906 106.820312 C 130.851562 106.371094 131.753906 106.292969 132.351562 106.445312 C 132.953125 106.667969 133.402344 107.121094 133.851562 107.945312 C 134.976562 109.96875 137.078125 117.320312 136.628906 119.644531 C 136.402344 120.769531 135.726562 121.59375 135.128906 121.894531 C 134.601562 122.195312 133.851562 122.121094 133.402344 121.894531 C 132.804688 121.667969 132.128906 121.070312 131.902344 120.246094 C 131.378906 118.820312 131.828125 115.292969 132.351562 113.417969 C 132.726562 112.070312 133.179688 110.644531 134.003906 110.042969 C 134.601562 109.59375 135.503906 109.445312 136.253906 109.667969 C 137.226562 109.96875 138.429688 111.320312 139.027344 112.292969 C 139.476562 113.121094 139.703125 113.945312 139.777344 114.996094 C 139.851562 116.269531 139.777344 118.519531 139.179688 119.34375 C 138.804688 119.871094 138.128906 120.09375 137.601562 120.167969 C 137.003906 120.246094 136.328125 120.09375 135.804688 119.71875 C 135.277344 119.34375 134.679688 118.371094 134.753906 117.621094 C 134.828125 116.871094 136.476562 116.121094 136.554688 115.445312 C 136.554688 114.84375 135.578125 114.394531 135.503906 113.871094 C 135.351562 113.195312 135.652344 111.996094 136.179688 111.542969 C 136.777344 111.019531 138.351562 110.71875 139.101562 111.09375 C 139.929688 111.394531 141.054688 113.34375 140.828125 113.871094 C 140.527344 114.394531 137.753906 114.621094 137.003906 113.945312 C 135.953125 112.894531 136.402344 108.09375 136.703125 106.519531 C 136.777344 105.695312 136.851562 105.167969 137.304688 104.792969 C 137.902344 104.269531 139.476562 103.820312 140.226562 104.042969 C 140.902344 104.269531 141.503906 104.871094 141.804688 105.84375 C 142.554688 108.019531 142.101562 115.667969 141.203125 117.84375 C 140.753906 118.820312 140.152344 119.34375 139.554688 119.644531 C 138.953125 119.871094 138.203125 119.871094 137.679688 119.644531 C 137.003906 119.34375 136.402344 118.667969 136.027344 117.769531 C 135.503906 116.417969 135.726562 113.195312 136.027344 111.621094 C 136.179688 110.644531 136.328125 109.894531 136.929688 109.292969 C 137.679688 108.542969 139.628906 107.570312 140.453125 107.871094 C 141.203125 108.167969 141.726562 109.445312 141.878906 110.570312 C 142.101562 112.445312 141.277344 116.644531 140.226562 117.996094 C 139.476562 118.894531 138.277344 119.269531 137.453125 119.269531 C 136.851562 119.195312 136.253906 118.746094 135.878906 118.292969 C 135.503906 117.769531 135.351562 117.246094 135.351562 116.496094 C 135.351562 114.84375 136.253906 110.417969 137.453125 109.21875 C 138.203125 108.394531 139.476562 108.019531 140.304688 108.246094 C 141.054688 108.46875 142.027344 109.820312 142.179688 110.570312 C 142.328125 111.167969 141.726562 112.371094 141.652344 112.371094 C 141.503906 112.371094 141.578125 109.445312 141.652344 109.445312 C 141.726562 109.445312 142.402344 113.570312 142.253906 114.996094 C 142.179688 115.96875 141.953125 116.644531 141.578125 117.320312 C 141.277344 117.917969 140.902344 118.445312 140.378906 118.746094 C 139.929688 119.042969 139.101562 119.269531 138.578125 119.042969 C 137.828125 118.746094 136.851562 117.84375 136.476562 116.871094 C 135.953125 115.371094 136.027344 112.144531 136.777344 110.71875 C 137.304688 109.667969 138.578125 108.996094 139.554688 108.621094 C 140.527344 108.320312 141.878906 108.394531 142.703125 108.542969 C 143.453125 108.695312 144.054688 108.84375 144.503906 109.21875 C 144.953125 109.59375 145.328125 110.269531 145.402344 110.871094 C 145.476562 111.46875 145.328125 112.21875 144.953125 112.667969 C 144.503906 113.269531 143.304688 113.195312 142.703125 113.871094 C 142.027344 114.695312 141.953125 116.945312 141.277344 117.769531 C 140.828125 118.292969 140.226562 118.59375 139.628906 118.667969 C 139.027344 118.746094 138.277344 118.519531 137.753906 118.21875 C 137.304688 117.84375 136.929688 117.320312 136.703125 116.644531 C 136.328125 115.519531 136.402344 113.417969 136.402344 112.070312 C 136.328125 110.871094 136.179688 109.894531 136.402344 108.84375 C 136.554688 107.71875 136.929688 106.371094 137.601562 105.621094 C 138.203125 104.871094 138.953125 104.496094 140.078125 104.042969 C 141.953125 103.21875 145.554688 103.144531 148.402344 101.945312 C 151.628906 100.59375 156.054688 96.167969 158.226562 95.71875 C 159.277344 95.496094 160.027344 95.644531 160.628906 96.019531 C 161.152344 96.46875 161.679688 97.519531 161.679688 98.195312 C 161.601562 98.871094 161.078125 99.84375 160.476562 100.21875 C 159.878906 100.59375 158.679688 100.746094 158.078125 100.445312 C 157.402344 100.070312 156.503906 98.570312 156.578125 97.746094 C 156.652344 97.070312 157.402344 96.167969 158.003906 95.792969 C 158.453125 95.570312 159.054688 95.417969 159.578125 95.570312 C 160.253906 95.792969 161.226562 96.46875 161.453125 97.144531 C 161.679688 97.894531 161.453125 99.019531 160.703125 100.070312 C 159.128906 102.320312 152.902344 106.371094 149.304688 107.71875 C 146.601562 108.769531 142.703125 107.417969 141.503906 108.84375 C 140.378906 110.269531 142.328125 114.320312 141.953125 115.96875 C 141.726562 116.945312 141.351562 117.769531 140.828125 118.21875 C 140.304688 118.59375 139.554688 118.746094 138.953125 118.667969 C 138.277344 118.519531 137.304688 117.917969 136.929688 117.246094 C 136.402344 116.34375 136.476562 114.542969 136.628906 113.496094 C 136.851562 112.519531 137.078125 111.695312 137.753906 110.945312 C 138.804688 109.96875 141.429688 108.46875 142.703125 108.542969 C 143.753906 108.621094 144.953125 109.519531 145.253906 110.269531 C 145.476562 111.019531 145.101562 112.519531 144.503906 113.195312 C 143.902344 113.871094 142.101562 113.570312 141.578125 114.246094 C 141.128906 114.917969 141.878906 116.496094 141.578125 117.320312 C 141.351562 117.917969 140.976562 118.519531 140.378906 118.746094 C 139.777344 119.042969 138.578125 119.121094 137.976562 118.820312 C 137.304688 118.519531 136.703125 117.769531 136.476562 116.871094 C 136.101562 115.144531 136.777344 109.894531 137.828125 108.769531 C 138.503906 108.09375 139.554688 108.019531 140.304688 108.246094 C 141.054688 108.542969 141.953125 109.519531 142.179688 110.570312 C 142.554688 112.21875 141.128906 116.042969 140.453125 117.46875 C 140.078125 118.144531 139.777344 118.59375 139.328125 118.894531 C 138.804688 119.195312 138.054688 119.34375 137.453125 119.269531 C 136.929688 119.121094 136.179688 118.820312 135.878906 118.292969 C 135.351562 117.394531 135.277344 114.996094 135.726562 114.019531 C 136.101562 113.195312 137.003906 112.667969 137.828125 112.292969 C 138.726562 111.84375 140.601562 111.09375 141.203125 111.621094 C 142.101562 112.371094 141.726562 116.417969 141.203125 117.84375 C 140.828125 118.667969 140.226562 119.417969 139.554688 119.644531 C 138.878906 119.871094 137.679688 119.71875 137.078125 119.34375 C 136.554688 119.042969 136.253906 118.59375 136.027344 117.769531 C 135.503906 115.59375 135.953125 106.519531 137.304688 104.792969 C 137.902344 103.96875 138.878906 103.820312 139.628906 103.894531 C 140.304688 103.96875 141.128906 104.417969 141.578125 105.320312 C 142.476562 106.820312 142.179688 111.769531 141.804688 113.792969 C 141.503906 114.996094 141.277344 116.195312 140.453125 116.570312 C 139.554688 116.945312 137.226562 116.121094 136.402344 115.445312 C 135.804688 114.84375 135.429688 113.871094 135.429688 113.195312 C 135.429688 112.59375 135.804688 111.917969 136.179688 111.542969 C 136.628906 111.167969 137.304688 110.871094 137.902344 110.792969 C 138.429688 110.792969 139.179688 110.945312 139.628906 111.394531 C 140.226562 111.996094 140.753906 113.644531 140.828125 114.695312 C 140.902344 115.667969 140.828125 116.570312 140.453125 117.394531 C 140.003906 118.292969 138.429688 119.871094 138.429688 119.792969 C 138.351562 119.792969 139.777344 117.621094 139.851562 117.621094 C 139.851562 117.695312 139.628906 118.894531 139.179688 119.34375 C 138.726562 119.792969 137.679688 120.320312 137.003906 120.167969 C 136.179688 120.019531 135.128906 119.121094 134.828125 118.21875 C 134.453125 117.246094 134.902344 114.996094 135.578125 114.167969 C 136.027344 113.496094 137.226562 112.820312 137.601562 113.121094 C 138.277344 113.570312 137.226562 118.667969 136.554688 120.167969 C 136.179688 121.070312 135.652344 121.59375 135.128906 121.894531 C 134.601562 122.121094 133.851562 122.121094 133.402344 121.894531 C 132.804688 121.667969 132.351562 121.144531 131.902344 120.246094 C 130.777344 118.144531 129.054688 110.269531 129.429688 108.246094 C 129.578125 107.496094 129.804688 107.121094 130.253906 106.820312 C 130.777344 106.519531 131.753906 106.21875 132.351562 106.445312 C 133.027344 106.746094 133.777344 107.644531 133.929688 108.542969 C 134.226562 109.820312 132.953125 111.621094 132.726562 113.644531 C 132.277344 116.644531 133.402344 122.792969 132.503906 124.894531 C 132.054688 125.945312 131.226562 126.621094 130.554688 126.769531 C 129.953125 126.996094 129.277344 126.769531 128.828125 126.46875 C 128.304688 126.09375 127.851562 125.417969 127.703125 124.519531 C 127.476562 122.792969 129.503906 119.34375 129.953125 116.34375 C 130.554688 112.894531 130.027344 106.820312 130.703125 104.945312 C 130.929688 104.195312 131.226562 103.894531 131.601562 103.59375 C 132.054688 103.292969 132.652344 103.144531 133.179688 103.21875 C 133.703125 103.292969 134.304688 103.59375 134.601562 103.96875 C 134.976562 104.34375 135.203125 105.46875 135.203125 105.46875 "/></clipPath><clipPath id="b959963440"><path d="M 130.863281 207.664062 L 173.070312 207.664062 L 173.070312 227.5625 L 130.863281 227.5625 Z M 130.863281 207.664062 "/></clipPath><clipPath id="7c27c40b72"><path d="M 169.425781 209.023438 C 171.375 214.199219 171.300781 215.023438 170.773438 215.699219 C 170.023438 216.601562 167.324219 217.949219 166.273438 217.5 C 165.375 217.125 164.398438 214.875 164.625 214.050781 C 164.699219 213.375 165.601562 212.925781 166.351562 212.625 C 167.25 212.25 168.75 211.800781 169.648438 212.101562 C 170.324219 212.398438 171 213.226562 171.148438 213.898438 C 171.300781 214.574219 171.148438 215.550781 170.550781 216.226562 C 169.5 217.425781 165 219.074219 163.199219 219 C 162.074219 218.925781 161.023438 218.25 160.574219 217.648438 C 160.273438 217.125 160.273438 216.375 160.351562 215.851562 C 160.5 215.25 160.726562 214.800781 161.398438 214.273438 C 162.824219 213.300781 168.375 211.648438 170.324219 211.800781 C 171.375 211.949219 172.125 212.25 172.574219 212.851562 C 173.023438 213.523438 173.023438 215.175781 172.648438 215.851562 C 172.425781 216.449219 171.898438 216.675781 171.148438 216.976562 C 169.726562 217.574219 165.675781 218.25 163.800781 218.023438 C 162.675781 217.875 161.175781 217.273438 161.175781 216.976562 C 161.175781 216.601562 163.949219 215.476562 164.476562 215.925781 C 165.074219 216.449219 164.101562 219.898438 163.5 221.101562 C 163.050781 221.851562 162.375 222.523438 161.699219 222.75 C 161.175781 222.976562 160.425781 222.898438 159.898438 222.601562 C 159.226562 222.148438 158.550781 221.25 158.398438 220.050781 C 158.175781 217.726562 160.425781 210.601562 162 209.324219 C 162.675781 208.726562 163.726562 208.800781 164.398438 209.101562 C 165.074219 209.324219 165.898438 210.226562 166.050781 210.898438 C 166.199219 211.726562 165.300781 212.550781 165.148438 213.601562 C 164.925781 215.023438 165.675781 217.574219 165.226562 218.851562 C 164.925781 219.675781 164.324219 220.5 163.574219 220.726562 C 162.824219 220.949219 161.324219 220.648438 160.648438 219.976562 C 159.675781 219 159.300781 216 159.375 214.574219 C 159.449219 213.601562 159.75 212.773438 160.351562 212.25 C 160.875 211.800781 162.074219 211.574219 162.75 211.726562 C 163.351562 211.875 163.949219 212.25 164.324219 212.851562 C 164.925781 214.199219 164.699219 218.324219 164.324219 220.199219 C 164.101562 221.476562 163.800781 222.375 163.050781 223.199219 C 162.074219 224.25 160.574219 225.375 158.398438 225.675781 C 154.425781 226.351562 142.875 223.949219 140.101562 222.523438 C 139.125 221.925781 138.898438 221.550781 138.449219 220.726562 C 137.699219 219.523438 137.175781 215.851562 136.949219 215.851562 C 136.800781 215.925781 137.25 217.574219 136.875 218.101562 C 136.351562 218.773438 134.550781 219 133.648438 218.925781 C 132.976562 218.925781 132.375 218.699219 131.925781 218.324219 C 131.398438 217.800781 130.949219 216.75 130.949219 216 C 131.023438 215.324219 131.550781 214.5 132.300781 213.976562 C 133.800781 213 138.523438 212.175781 140.550781 212.476562 C 141.675781 212.625 142.574219 213 143.25 213.824219 C 144 214.800781 143.851562 217.273438 144.449219 218.398438 C 144.824219 219.226562 145.800781 219.449219 145.949219 220.125 C 146.101562 220.949219 145.648438 222.824219 144.898438 223.199219 C 143.925781 223.648438 140.851562 221.851562 139.648438 220.875 C 138.824219 220.199219 138.300781 219.601562 138 218.550781 C 137.550781 216.976562 137.773438 213.449219 138.375 212.175781 C 138.675781 211.5 139.199219 211.125 139.726562 210.898438 C 140.398438 210.675781 141.449219 210.523438 142.199219 211.050781 C 143.699219 212.101562 145.425781 216.300781 146.101562 218.851562 C 146.625 221.023438 146.699219 223.800781 146.398438 225.148438 C 146.25 225.898438 146.023438 226.425781 145.5 226.800781 C 144.976562 227.25 143.773438 227.550781 143.101562 227.398438 C 142.425781 227.175781 141.75 226.648438 141.300781 225.675781 C 140.175781 223.648438 138.75 216.148438 139.574219 213.898438 C 140.023438 212.773438 141.148438 211.875 141.976562 211.800781 C 142.800781 211.726562 144.300781 212.773438 144.675781 213.523438 C 144.976562 214.199219 144.75 215.398438 144.300781 216 C 143.773438 216.601562 142.050781 217.125 141.226562 216.898438 C 140.550781 216.675781 139.726562 215.773438 139.574219 215.023438 C 139.425781 214.351562 139.800781 213.148438 140.175781 212.625 C 140.550781 212.175781 141.148438 211.800781 141.675781 211.800781 C 142.5 211.800781 143.773438 212.25 144.523438 213.300781 C 145.949219 215.25 146.773438 223.050781 146.398438 225.148438 C 146.25 225.976562 145.949219 226.425781 145.5 226.800781 C 145.050781 227.175781 144.375 227.550781 143.773438 227.476562 C 142.949219 227.324219 141.898438 226.726562 141.300781 225.675781 C 140.101562 223.800781 140.398438 217.574219 139.648438 215.324219 C 139.199219 214.125 138.148438 213.523438 138.148438 212.851562 C 138.148438 212.25 138.675781 211.574219 139.199219 211.199219 C 139.800781 210.824219 140.925781 210.523438 141.675781 210.824219 C 142.425781 211.125 143.398438 212.398438 143.476562 213.226562 C 143.550781 214.125 141.601562 215.25 141.824219 216.226562 C 142.273438 217.726562 147.976562 219 149.023438 220.5 C 149.550781 221.324219 149.699219 222.226562 149.398438 222.976562 C 149.101562 223.875 147.601562 224.851562 146.625 225.148438 C 145.800781 225.449219 144.898438 225.300781 144.074219 225.074219 C 143.175781 224.699219 142.273438 224.023438 141.523438 223.125 C 140.476562 222 139.273438 219.898438 138.824219 218.550781 C 138.523438 217.648438 138.226562 216.300781 138.523438 216.148438 C 138.824219 215.925781 140.625 217.125 140.550781 217.574219 C 140.476562 218.101562 137.476562 218.851562 136.050781 219 C 134.773438 219.148438 133.273438 219.074219 132.449219 218.625 C 131.851562 218.324219 131.324219 217.875 131.175781 217.273438 C 130.949219 216.523438 131.101562 215.175781 131.851562 214.351562 C 132.898438 213.074219 137.023438 211.5 138.601562 211.574219 C 139.5 211.574219 140.023438 211.949219 140.625 212.625 C 141.601562 213.675781 141.601562 216.824219 143.175781 217.949219 C 145.199219 219.375 150.226562 218.476562 153.074219 219 C 155.324219 219.375 157.875 221.324219 158.925781 220.574219 C 160.199219 219.675781 158.699219 214.800781 159.601562 213.300781 C 160.125 212.324219 161.324219 211.726562 162.148438 211.648438 C 162.75 211.574219 163.425781 211.949219 163.875 212.398438 C 164.398438 212.925781 164.773438 214.050781 165 215.023438 C 165.226562 216.148438 165.601562 217.875 165.226562 218.851562 C 164.925781 219.675781 164.25 220.425781 163.574219 220.726562 C 163.050781 220.949219 162.226562 220.875 161.699219 220.726562 C 161.175781 220.5 160.574219 220.050781 160.273438 219.449219 C 159.75 218.398438 159.898438 216.074219 160.050781 214.5 C 160.199219 213.074219 160.351562 211.199219 161.101562 210.300781 C 161.773438 209.476562 162.976562 208.875 163.800781 208.949219 C 164.550781 208.949219 165.375 209.625 165.824219 210.300781 C 166.273438 211.199219 166.273438 212.699219 166.050781 214.125 C 165.75 216.226562 164.175781 220.273438 163.199219 221.625 C 162.75 222.300781 162.300781 222.601562 161.699219 222.75 C 161.023438 222.898438 159.898438 222.675781 159.375 222.226562 C 158.851562 221.925781 158.550781 221.398438 158.398438 220.648438 C 158.25 219.449219 158.773438 216.976562 159.300781 215.476562 C 159.75 214.273438 159.976562 213.148438 161.101562 212.398438 C 162.976562 211.273438 169.050781 211.273438 171 211.875 C 171.976562 212.175781 172.574219 212.773438 172.875 213.449219 C 173.175781 214.125 173.023438 215.25 172.648438 215.851562 C 172.351562 216.375 171.898438 216.601562 171.148438 216.976562 C 169.648438 217.726562 165.148438 219.226562 163.199219 219 C 162.074219 218.851562 161.023438 218.25 160.574219 217.648438 C 160.273438 217.125 160.273438 216.375 160.351562 215.851562 C 160.5 215.25 160.800781 214.800781 161.398438 214.273438 C 162.675781 213.375 166.648438 211.800781 168.375 211.949219 C 169.5 212.101562 170.550781 212.625 170.925781 213.375 C 171.300781 214.050781 171.148438 215.476562 170.550781 216.226562 C 169.726562 217.199219 166.949219 217.726562 165.375 217.800781 C 164.175781 217.949219 162.675781 217.875 162 217.351562 C 161.476562 216.824219 161.175781 215.550781 161.324219 214.875 C 161.476562 214.125 162.148438 213.375 162.824219 213 C 163.648438 212.550781 165.75 213.148438 166.050781 212.625 C 166.351562 212.101562 165 210.824219 165.074219 210 C 165.074219 209.324219 165.601562 208.5 166.050781 208.125 C 166.5 207.824219 167.175781 207.675781 167.699219 207.75 C 168.300781 207.898438 169.425781 209.023438 169.425781 209.023438 "/></clipPath><clipPath id="944dd079f6"><path d="M 157.746094 208.425781 L 168.300781 208.425781 L 168.300781 224.953125 L 157.746094 224.953125 Z M 157.746094 208.425781 "/></clipPath><clipPath id="85b9dfa099"><path d="M 167.851562 212.101562 C 162.148438 220.125 163.125 222.976562 162.226562 224.023438 C 161.625 224.699219 160.050781 224.925781 159.375 224.773438 C 158.851562 224.625 158.398438 224.175781 158.175781 223.726562 C 157.875 223.125 157.726562 222 158.101562 221.398438 C 158.476562 220.726562 159.976562 219.976562 160.726562 220.050781 C 161.398438 220.125 162.300781 220.800781 162.523438 221.476562 C 162.824219 222.226562 162.449219 223.875 161.851562 224.398438 C 161.398438 224.851562 160.273438 225 159.601562 224.851562 C 158.925781 224.625 158.25 224.023438 157.949219 223.199219 C 157.5 222 157.875 219.675781 158.476562 217.800781 C 159.300781 215.550781 161.851562 212.476562 162.976562 210.898438 C 163.648438 210 163.875 209.324219 164.550781 208.949219 C 165.148438 208.574219 166.050781 208.351562 166.648438 208.5 C 167.25 208.726562 168 209.398438 168.226562 210 C 168.375 210.601562 167.851562 212.101562 167.851562 212.101562 "/></clipPath><clipPath id="4bf3350f04"><path d="M 204.652344 156.84375 L 218.152344 156.84375 L 218.152344 180.769531 L 204.652344 180.769531 Z M 204.652344 156.84375 "/></clipPath><clipPath id="4461dd0642"><path d="M 206.976562 166.371094 C 213.578125 166.96875 214.179688 167.496094 214.777344 168.320312 C 215.601562 169.445312 216.203125 171.621094 216.503906 173.34375 C 216.804688 175.144531 216.953125 177.695312 216.578125 178.894531 C 216.351562 179.570312 216.054688 180.019531 215.601562 180.320312 C 215.003906 180.621094 213.953125 180.84375 213.351562 180.621094 C 212.679688 180.394531 212.152344 179.871094 211.777344 178.894531 C 210.953125 176.496094 212.226562 168.167969 212.753906 164.195312 C 213.128906 161.570312 213.203125 158.644531 214.101562 157.59375 C 214.628906 156.996094 215.453125 156.84375 216.054688 156.917969 C 216.726562 156.996094 217.476562 157.59375 217.777344 158.121094 C 218.003906 158.644531 218.003906 159.695312 217.703125 160.21875 C 217.402344 160.746094 216.578125 161.269531 215.976562 161.269531 C 215.304688 161.34375 214.402344 160.96875 214.027344 160.445312 C 213.652344 159.996094 213.429688 159.019531 213.652344 158.417969 C 213.953125 157.746094 215.226562 156.996094 215.828125 156.84375 C 216.351562 156.84375 216.804688 157.070312 217.179688 157.371094 C 217.554688 157.746094 217.851562 158.269531 218.003906 159.320312 C 218.527344 162.394531 217.476562 176.121094 216.578125 178.894531 C 216.277344 179.71875 216.054688 180.019531 215.601562 180.320312 C 215.152344 180.621094 214.476562 180.84375 213.878906 180.695312 C 213.203125 180.542969 212.304688 179.871094 211.777344 178.894531 C 210.953125 177.246094 212.527344 171.84375 211.253906 170.71875 C 210.277344 169.820312 207.578125 171.320312 206.453125 170.945312 C 205.703125 170.644531 205.027344 170.121094 204.804688 169.519531 C 204.578125 168.917969 204.726562 167.871094 205.101562 167.34375 C 205.476562 166.820312 206.976562 166.371094 206.976562 166.371094 "/></clipPath><clipPath id="cde6c6dfd9"><path d="M 213.523438 159.769531 L 222.242188 159.769531 L 222.242188 183.226562 L 213.523438 183.226562 Z M 213.523438 159.769531 "/></clipPath><clipPath id="9bf86ecda3"><path d="M 218.003906 169.070312 C 219.429688 175.371094 219.351562 175.820312 219.054688 176.269531 C 218.679688 176.71875 217.851562 177.320312 217.179688 177.320312 C 216.503906 177.246094 215.527344 176.792969 215.078125 175.894531 C 214.179688 174.019531 215.078125 167.871094 215.902344 165.09375 C 216.503906 162.996094 217.554688 160.667969 218.601562 160.070312 C 219.277344 159.695312 220.179688 159.769531 220.777344 160.144531 C 221.304688 160.445312 221.679688 161.042969 221.976562 161.871094 C 222.503906 163.820312 222.054688 168.246094 221.601562 171.46875 C 221.078125 174.84375 219.878906 180.019531 218.902344 181.746094 C 218.527344 182.417969 218.226562 182.71875 217.777344 182.945312 C 217.253906 183.167969 216.578125 183.320312 216.054688 183.09375 C 215.378906 182.792969 214.703125 182.042969 214.328125 180.917969 C 213.503906 178.59375 213.578125 170.792969 214.402344 168.769531 C 214.777344 167.945312 215.378906 167.496094 215.976562 167.269531 C 216.429688 167.121094 216.953125 167.121094 217.402344 167.34375 C 218.003906 167.71875 218.828125 168.996094 218.828125 169.746094 C 218.828125 170.34375 218.152344 171.167969 217.628906 171.46875 C 217.253906 171.769531 216.652344 171.84375 216.203125 171.695312 C 215.679688 171.542969 214.777344 170.945312 214.554688 170.417969 C 214.253906 170.042969 214.253906 169.445312 214.328125 168.996094 C 214.554688 168.394531 215.226562 167.644531 215.753906 167.34375 C 216.203125 167.121094 216.726562 167.121094 217.179688 167.269531 C 217.777344 167.570312 218.453125 168.320312 218.828125 169.445312 C 219.652344 171.84375 220.027344 179.71875 218.902344 181.746094 C 218.378906 182.71875 217.328125 183.167969 216.578125 183.167969 C 216.054688 183.246094 215.453125 182.871094 215.078125 182.496094 C 214.628906 182.121094 214.402344 181.667969 214.328125 180.917969 C 214.101562 179.570312 214.777344 176.644531 215.304688 174.621094 C 215.828125 172.59375 217.027344 170.792969 217.402344 168.695312 C 217.851562 166.445312 216.726562 162.695312 217.476562 161.269531 C 217.929688 160.445312 218.976562 159.917969 219.652344 159.84375 C 220.253906 159.769531 220.851562 160.070312 221.226562 160.445312 C 221.601562 160.746094 221.828125 161.121094 221.976562 161.871094 C 222.277344 164.269531 220.101562 174.996094 218.679688 176.71875 C 218.226562 177.246094 217.703125 177.320312 217.179688 177.320312 C 216.578125 177.246094 215.828125 177.019531 215.304688 176.34375 C 214.328125 175.070312 213.277344 170.195312 213.652344 168.769531 C 213.804688 168.09375 214.179688 167.792969 214.628906 167.496094 C 215.078125 167.269531 215.753906 167.042969 216.203125 167.269531 C 216.878906 167.417969 218.003906 169.070312 218.003906 169.070312 "/></clipPath><clipPath id="54a8f52a0e"><path d="M 156.394531 203.613281 L 163.085938 203.613281 L 163.085938 222.125 L 156.394531 222.125 Z M 156.394531 203.613281 "/></clipPath><clipPath id="a20d0484cf"><path d="M 158.398438 210.300781 C 159.148438 215.023438 159.148438 221.324219 158.25 222 C 157.949219 222.226562 157.273438 222 156.976562 221.625 C 156.449219 221.023438 156.675781 219.148438 156.976562 217.425781 C 157.5 214.125 160.125 205.125 161.550781 204.074219 C 162.074219 203.699219 162.824219 203.773438 162.976562 204 C 163.050781 204.148438 162.601562 205.050781 162.375 205.050781 C 162.148438 205.125 161.476562 204.375 161.550781 204.148438 C 161.625 203.925781 162.300781 203.550781 162.523438 203.625 C 162.75 203.699219 162.976562 203.925781 163.050781 204.375 C 163.273438 206.023438 159.074219 214.125 158.476562 217.425781 C 158.101562 219.300781 158.773438 221.625 158.25 222 C 157.949219 222.148438 157.273438 221.925781 156.976562 221.476562 C 156.074219 220.199219 156.449219 212.023438 156.976562 210.601562 C 157.050781 210.226562 157.199219 210 157.425781 209.925781 C 157.648438 209.851562 158.398438 210.300781 158.398438 210.300781 "/></clipPath><clipPath id="5521535dfb"><path d="M 127.917969 207.046875 L 134.382812 207.046875 L 134.382812 224.96875 L 127.917969 224.96875 Z M 127.917969 207.046875 "/></clipPath><clipPath id="c2921295c2"><path d="M 129.824219 215.25 C 130.125 222.074219 131.851562 223.425781 131.773438 224.101562 C 131.699219 224.476562 131.25 224.925781 131.023438 224.925781 C 130.800781 225 130.5 224.773438 130.351562 224.476562 C 129.824219 223.5 130.351562 219.601562 130.574219 216.976562 C 130.800781 214.050781 130.800781 208.5 131.851562 207.601562 C 132.300781 207.226562 133.050781 207.226562 133.5 207.601562 C 134.398438 208.425781 134.398438 213.375 134.324219 215.550781 C 134.324219 217.199219 134.25 219.300781 133.726562 219.75 C 133.351562 219.976562 132.75 219.976562 132.375 219.601562 C 131.398438 218.625 131.175781 209.476562 131.851562 209.101562 C 132.148438 208.949219 132.675781 209.324219 132.898438 209.773438 C 133.351562 210.75 132.523438 214.648438 132.074219 215.851562 C 131.925781 216.449219 131.699219 216.976562 131.398438 217.050781 C 131.101562 217.199219 130.648438 217.125 130.351562 216.75 C 129.523438 215.773438 129.148438 208.800781 129.675781 207.601562 C 129.898438 207.226562 130.273438 207 130.5 207.074219 C 130.800781 207.074219 131.023438 207.375 131.175781 207.824219 C 131.625 209.101562 131.476562 215.476562 130.875 216.601562 C 130.726562 216.976562 130.351562 217.125 130.125 217.125 C 129.898438 217.050781 129.375 216.523438 129.449219 216.300781 C 129.449219 216 130.050781 215.550781 130.273438 215.625 C 130.574219 215.699219 130.949219 216.300781 130.949219 216.523438 C 130.875 216.75 130.050781 217.199219 129.75 216.976562 C 129 216.449219 129 208.5 129.75 207.449219 C 130.050781 207.148438 130.574219 207.074219 130.875 207.226562 C 131.175781 207.375 131.324219 207.898438 131.476562 208.648438 C 131.851562 210.148438 132.449219 215.398438 131.773438 216.449219 C 131.476562 216.898438 130.800781 217.199219 130.574219 217.050781 C 129.976562 216.601562 130.800781 210.375 131.476562 209.398438 C 131.773438 209.101562 132.148438 209.023438 132.375 209.101562 C 132.75 209.175781 132.976562 209.476562 133.199219 210 C 133.800781 211.5 134.324219 218.101562 133.800781 219.375 C 133.648438 219.824219 133.351562 220.050781 133.125 220.050781 C 132.824219 220.125 132.449219 219.824219 132.300781 219.449219 C 132.074219 218.773438 132.824219 217.125 132.824219 215.625 C 132.898438 213.449219 131.550781 208.875 132 207.75 C 132.148438 207.375 132.523438 207.148438 132.75 207.148438 C 133.050781 207.148438 133.425781 207.449219 133.5 207.824219 C 133.648438 208.5 132.824219 209.625 132.523438 211.125 C 132.074219 213.824219 132.523438 220.875 131.925781 223.125 C 131.699219 224.023438 131.398438 224.925781 131.023438 224.925781 C 130.351562 225 128.773438 222.375 128.324219 220.800781 C 127.800781 219.074219 127.875 215.925781 128.324219 215.023438 C 128.476562 214.648438 128.851562 214.425781 129.148438 214.5 C 129.375 214.5 129.824219 215.25 129.824219 215.25 "/></clipPath><clipPath id="d64b5add9b"><path d="M 140.851562 208.472656 L 155.527344 208.472656 L 155.527344 218.234375 L 140.851562 218.234375 Z M 140.851562 208.472656 "/></clipPath><clipPath id="b6b8e7751c"><path d="M 142.949219 211.5 C 143.699219 215.023438 143.925781 215.398438 144 215.324219 C 144.148438 215.324219 144.449219 214.800781 144.375 214.574219 C 144.226562 214.199219 142.800781 214.050781 142.574219 213.675781 C 142.425781 213.375 142.425781 212.925781 142.648438 212.773438 C 142.875 212.550781 144.148438 212.550781 144.675781 212.925781 C 145.351562 213.375 145.875 215.25 145.800781 215.925781 C 145.800781 216.300781 145.5 216.675781 145.273438 216.75 C 145.050781 216.824219 144.601562 216.675781 144.375 216.300781 C 143.773438 215.476562 143.023438 210.898438 143.476562 210.523438 C 143.699219 210.375 144.375 210.601562 144.601562 210.976562 C 145.125 211.726562 145.050781 214.726562 144.601562 215.925781 C 144.375 216.675781 143.625 217.648438 143.324219 217.574219 C 142.800781 217.425781 142.5 213.976562 142.648438 212.699219 C 142.800781 211.726562 143.25 210.449219 143.625 210.375 C 143.851562 210.226562 144.226562 210.523438 144.449219 210.824219 C 145.050781 211.648438 145.648438 215.101562 145.800781 216.375 C 145.800781 216.976562 145.875 217.5 145.648438 217.800781 C 145.5 217.949219 144.898438 218.101562 144.675781 217.949219 C 144.375 217.726562 144.300781 216.601562 144.449219 216.226562 C 144.601562 215.925781 144.824219 215.773438 145.273438 215.550781 C 146.25 215.175781 149.851562 214.875 150.824219 215.175781 C 151.199219 215.324219 151.5 215.550781 151.574219 215.851562 C 151.574219 216.074219 151.351562 216.449219 150.976562 216.675781 C 149.925781 217.125 145.199219 217.351562 143.625 216.300781 C 142.273438 215.476562 141.675781 213.449219 141.226562 212.101562 C 140.925781 211.125 140.773438 209.851562 141 209.25 C 141.074219 208.875 141.375 208.425781 141.601562 208.5 C 142.351562 208.574219 142.800781 213.375 144.601562 214.648438 C 146.925781 216.226562 155.101562 214.800781 155.476562 215.625 C 155.550781 215.851562 154.875 216.601562 154.648438 216.523438 C 154.425781 216.523438 153.976562 215.625 154.050781 215.476562 C 154.199219 215.25 155.175781 215.175781 155.324219 215.324219 C 155.398438 215.476562 155.175781 216.300781 154.726562 216.523438 C 153.375 217.351562 145.726562 216.976562 143.625 215.773438 C 142.5 215.175781 142.125 214.050781 141.675781 213 C 141.148438 211.875 140.773438 210 141 209.25 C 141.074219 208.875 141.375 208.425781 141.601562 208.5 C 142.351562 208.574219 143.023438 214.425781 144.523438 215.324219 C 145.800781 216.074219 147.976562 214.875 149.25 215.023438 C 150.226562 215.175781 151.425781 215.476562 151.574219 215.851562 C 151.648438 216.074219 151.273438 216.523438 150.824219 216.824219 C 149.773438 217.425781 145.949219 218.773438 144.675781 217.949219 C 143.398438 217.125 143.101562 213.300781 143.101562 211.949219 C 143.101562 211.199219 143.324219 210.449219 143.625 210.375 C 143.851562 210.300781 144.300781 210.601562 144.523438 211.050781 C 144.976562 212.023438 144.824219 216.074219 144.300781 216.976562 C 144.074219 217.425781 143.550781 217.726562 143.324219 217.574219 C 142.800781 217.273438 142.648438 211.273438 143.324219 210.675781 C 143.625 210.375 144.226562 210.523438 144.601562 210.824219 C 145.199219 211.351562 145.574219 214.125 145.648438 215.175781 C 145.726562 215.773438 145.800781 216.375 145.574219 216.601562 C 145.351562 216.75 144.75 216.75 144.449219 216.449219 C 143.925781 216 143.324219 213 143.625 212.773438 C 143.925781 212.625 145.574219 213.824219 145.800781 214.5 C 146.023438 215.023438 145.648438 216 145.273438 216.375 C 144.824219 216.675781 143.925781 216.976562 143.398438 216.675781 C 142.5 216.148438 141.300781 212.625 141.449219 211.726562 C 141.523438 211.351562 141.824219 210.976562 142.125 210.976562 C 142.351562 210.898438 142.949219 211.5 142.949219 211.5 "/></clipPath><clipPath id="29c1982b57"><path d="M 140.46875 214.304688 L 149.207031 214.304688 L 149.207031 218.964844 L 140.46875 218.964844 Z M 140.46875 214.304688 "/></clipPath><clipPath id="1989712d75"><path d="M 148.351562 218.925781 C 141.675781 217.199219 140.550781 215.925781 140.476562 215.25 C 140.476562 214.875 141.074219 214.273438 141.300781 214.351562 C 141.523438 214.351562 141.976562 215.175781 141.898438 215.398438 C 141.824219 215.625 141.074219 215.851562 140.851562 215.699219 C 140.625 215.625 140.476562 214.875 140.625 214.648438 C 140.699219 214.425781 141.148438 214.273438 141.449219 214.351562 C 142.125 214.5 142.949219 216.226562 144.074219 216.75 C 145.351562 217.351562 148.273438 216.976562 148.875 217.574219 C 149.175781 217.875 149.25 218.324219 149.101562 218.550781 C 149.023438 218.773438 148.351562 218.925781 148.351562 218.925781 "/></clipPath><clipPath id="e10679d8d6"><path d="M 138.472656 202.480469 L 141.316406 202.480469 L 141.316406 219.929688 L 138.472656 219.929688 Z M 138.472656 202.480469 "/></clipPath><clipPath id="c28bcf0ede"><path d="M 140.773438 203.25 C 140.25 216.601562 141.675781 218.625 141.226562 219.226562 C 141 219.601562 139.949219 219.675781 139.800781 219.449219 C 139.726562 219.300781 140.023438 218.550781 140.25 218.476562 C 140.476562 218.398438 141.148438 218.699219 141.226562 218.925781 C 141.300781 219.148438 140.925781 219.824219 140.699219 219.898438 C 140.476562 219.976562 140.101562 219.824219 139.875 219.523438 C 139.199219 218.773438 138.75 215.699219 138.523438 213.375 C 138.375 210.375 138.601562 204.375 139.273438 203.101562 C 139.5 202.726562 139.875 202.5 140.101562 202.5 C 140.398438 202.574219 140.773438 203.25 140.773438 203.25 "/></clipPath><clipPath id="e14681f586"><path d="M 138.605469 201.582031 L 141.480469 201.582031 L 141.480469 221.125 L 138.605469 221.125 Z M 138.605469 201.582031 "/></clipPath><clipPath id="a7c607f0ab"><path d="M 141.449219 202.648438 C 140.550781 220.875 140.25 221.101562 139.949219 221.101562 C 139.726562 221.101562 139.273438 220.574219 139.273438 220.273438 C 139.273438 220.050781 139.949219 219.601562 140.175781 219.601562 C 140.398438 219.675781 140.773438 220.648438 140.699219 220.726562 C 140.550781 220.875 139.648438 220.875 139.273438 220.351562 C 138.074219 218.851562 138.824219 207.824219 139.273438 204.675781 C 139.5 203.324219 139.726562 202.199219 140.175781 201.824219 C 140.476562 201.601562 140.925781 201.523438 141.148438 201.675781 C 141.375 201.824219 141.449219 202.648438 141.449219 202.648438 "/></clipPath><clipPath id="6a135297e7"><path d="M 138 199.371094 L 141.800781 199.371094 L 141.800781 215.132812 L 138 215.132812 Z M 138 199.371094 "/></clipPath><clipPath id="caf5288d74"><path d="M 140.25 200.25 C 139.726562 207.976562 142.050781 212.925781 141.75 214.273438 C 141.601562 214.726562 141.226562 215.101562 141 215.101562 C 140.773438 215.101562 140.25 214.574219 140.25 214.351562 C 140.25 214.050781 140.773438 213.601562 141.074219 213.601562 C 141.300781 213.601562 141.824219 214.273438 141.75 214.425781 C 141.675781 214.648438 140.625 214.949219 140.324219 214.648438 C 139.648438 214.125 140.023438 211.125 139.648438 209.476562 C 139.273438 208.050781 138.226562 206.851562 138.074219 205.351562 C 137.851562 203.699219 138.300781 200.625 138.824219 199.800781 C 139.125 199.5 139.5 199.351562 139.726562 199.425781 C 140.023438 199.5 140.25 200.25 140.25 200.25 "/></clipPath><clipPath id="998b24eb44"><path d="M 140.277344 217.414062 L 149.652344 217.414062 L 149.652344 220.886719 L 140.277344 220.886719 Z M 140.277344 217.414062 "/></clipPath><clipPath id="69a08b47f9"><path d="M 148.949219 220.875 C 144 220.425781 141 219.601562 140.550781 218.851562 C 140.398438 218.398438 140.773438 217.5 141 217.425781 C 141.226562 217.425781 141.75 218.023438 141.75 218.25 C 141.675781 218.550781 140.851562 219 140.625 218.851562 C 140.398438 218.773438 140.25 218.101562 140.324219 217.800781 C 140.476562 217.648438 140.773438 217.5 141.148438 217.5 C 142.050781 217.5 144 218.851562 145.351562 219.148438 C 146.699219 219.449219 148.726562 219 149.324219 219.449219 C 149.625 219.675781 149.699219 220.125 149.625 220.425781 C 149.550781 220.648438 148.949219 220.875 148.949219 220.875 "/></clipPath><clipPath id="fcfefe979e"><path d="M 134.929688 201.082031 L 147.746094 201.082031 L 147.746094 221.957031 L 134.929688 221.957031 Z M 134.929688 201.082031 "/></clipPath><clipPath id="0dc5d26e52"><path d="M 138.601562 201.375 C 144.226562 219.300781 147.75 220.726562 147.675781 221.398438 C 147.601562 221.699219 147.074219 222 146.699219 221.925781 C 145.800781 221.773438 144.75 219.375 143.25 218.476562 C 141.226562 217.273438 136.351562 216.898438 135.375 216 C 135.074219 215.699219 134.925781 215.175781 135 214.949219 C 135.148438 214.726562 135.898438 214.5 136.050781 214.648438 C 136.273438 214.800781 136.351562 215.773438 136.125 215.925781 C 135.976562 216.074219 135 215.773438 135 215.550781 C 134.925781 215.324219 135.300781 214.726562 135.75 214.574219 C 137.101562 214.199219 142.800781 216.148438 144.824219 217.648438 C 146.25 218.625 147.824219 220.800781 147.675781 221.398438 C 147.601562 221.699219 147.074219 221.925781 146.699219 221.925781 C 145.574219 221.773438 143.023438 220.050781 141.601562 218.023438 C 139.5 214.875 137.851562 206.101562 137.324219 203.398438 C 137.175781 202.351562 136.875 201.523438 137.175781 201.226562 C 137.398438 201 138.601562 201.375 138.601562 201.375 "/></clipPath><clipPath id="6436e7401d"><path d="M 137.710938 197.914062 L 141.15625 197.914062 L 141.15625 218.515625 L 137.710938 218.515625 Z M 137.710938 197.914062 "/></clipPath><clipPath id="bd16cd86ce"><path d="M 139.574219 198.675781 C 139.800781 207.148438 140.773438 208.125 141 209.851562 C 141.300781 212.101562 141.074219 216.976562 140.476562 218.023438 C 140.25 218.324219 139.949219 218.550781 139.726562 218.476562 C 139.425781 218.398438 138.976562 217.800781 139.050781 217.574219 C 139.125 217.351562 140.25 217.125 140.324219 217.199219 C 140.476562 217.351562 140.023438 218.398438 139.800781 218.476562 C 139.574219 218.476562 139.199219 218.175781 139.050781 217.726562 C 138.601562 216.375 139.949219 211.425781 139.574219 209.175781 C 139.273438 207.675781 138.375 206.925781 138.074219 205.5 C 137.699219 203.625 137.550781 199.800781 138.074219 198.675781 C 138.300781 198.226562 138.675781 197.925781 138.898438 197.925781 C 139.125 197.925781 139.574219 198.675781 139.574219 198.675781 "/></clipPath><clipPath id="5d55393ea6"><path d="M 140.246094 216 L 159.839844 216 L 159.839844 220.65625 L 140.246094 220.65625 Z M 140.246094 216 "/></clipPath><clipPath id="970e28055d"><path d="M 159.375 217.425781 C 153.976562 220.648438 153.523438 220.648438 152.476562 220.648438 C 150.375 220.648438 145.273438 219.75 143.101562 219.226562 C 141.976562 218.925781 140.773438 218.773438 140.476562 218.25 C 140.25 217.949219 140.476562 217.125 140.699219 217.050781 C 140.851562 216.976562 141.75 217.425781 141.75 217.648438 C 141.75 217.875 141 218.476562 140.773438 218.476562 C 140.550781 218.398438 140.25 217.949219 140.25 217.726562 C 140.25 217.425781 140.550781 217.125 141.074219 216.976562 C 142.648438 216.523438 150.601562 219.074219 152.773438 219.148438 C 153.523438 219.148438 153.75 219.148438 154.425781 218.925781 C 155.625 218.476562 158.023438 216 158.925781 216 C 159.375 216 159.75 216.300781 159.824219 216.601562 C 159.824219 216.824219 159.375 217.425781 159.375 217.425781 "/></clipPath><clipPath id="d02592dcc9"><path d="M 153 212.347656 L 159.328125 212.347656 L 159.328125 222.742188 L 153 222.742188 Z M 153 212.347656 "/></clipPath><clipPath id="c44ab90981"><path d="M 159.300781 213.226562 C 155.550781 221.324219 154.800781 222.601562 154.199219 222.675781 C 153.75 222.75 153 222.226562 153 222 C 153 221.773438 153.675781 221.25 153.898438 221.324219 C 154.125 221.398438 154.5 222.226562 154.425781 222.449219 C 154.273438 222.675781 153.601562 222.824219 153.375 222.675781 C 153.148438 222.601562 153 222.226562 153.074219 221.851562 C 153.226562 220.800781 155.851562 218.476562 156.675781 216.824219 C 157.425781 215.398438 157.425781 213.300781 157.949219 212.699219 C 158.25 212.476562 158.550781 212.324219 158.773438 212.398438 C 159 212.476562 159.300781 213.226562 159.300781 213.226562 "/></clipPath><clipPath id="9e71e156b1"><path d="M 119.230469 208.933594 L 153.121094 208.933594 L 153.121094 221.125 L 119.230469 221.125 Z M 119.230469 208.933594 "/></clipPath><clipPath id="4a0ad588b3"><path d="M 152.324219 221.101562 C 134.476562 217.875 122.023438 219.074219 120 218.175781 C 119.550781 218.023438 119.398438 217.875 119.324219 217.574219 C 119.101562 216.976562 119.398438 216 119.773438 215.101562 C 120.375 213.523438 122.175781 209.851562 123.148438 209.175781 C 123.601562 208.875 123.898438 208.949219 124.425781 209.023438 C 125.398438 209.175781 127.648438 210.226562 128.175781 210.898438 C 128.398438 211.125 128.550781 211.574219 128.398438 211.726562 C 128.25 211.949219 127.125 211.949219 127.050781 211.800781 C 126.976562 211.648438 127.726562 210.675781 127.875 210.75 C 128.101562 210.75 128.398438 211.875 128.175781 212.023438 C 127.800781 212.398438 125.25 209.925781 124.125 210.300781 C 122.625 210.824219 120 215.398438 120.824219 216.75 C 122.175781 219 134.851562 216.449219 140.550781 217.050781 C 145.050781 217.574219 151.125 218.699219 152.476562 219.675781 C 152.925781 219.898438 153.074219 220.199219 153.074219 220.5 C 153 220.726562 152.324219 221.101562 152.324219 221.101562 "/></clipPath><clipPath id="9bc1a9b767"><path d="M 138.230469 199.839844 L 141.855469 199.839844 L 141.855469 216.175781 L 138.230469 216.175781 Z M 138.230469 199.839844 "/></clipPath><clipPath id="6e8472be40"><path d="M 139.800781 200.625 C 141.601562 215.851562 141.300781 216.074219 141.074219 216.148438 C 140.851562 216.148438 140.550781 215.925781 140.25 215.550781 C 139.5 214.273438 138.226562 207.074219 138.601562 205.648438 C 138.675781 205.199219 138.976562 204.898438 139.199219 204.824219 C 139.425781 204.824219 139.800781 205.050781 140.023438 205.425781 C 140.699219 206.25 141.300781 209.851562 141.449219 211.125 C 141.523438 211.800781 141.601562 212.25 141.449219 212.550781 C 141.226562 212.851562 140.699219 213.074219 140.476562 212.925781 C 139.875 212.550781 139.351562 207.074219 140.023438 206.398438 C 140.324219 206.101562 141.375 206.25 141.449219 206.476562 C 141.601562 206.625 141.148438 207.375 140.925781 207.375 C 140.625 207.375 139.949219 206.773438 140.023438 206.476562 C 140.023438 206.25 140.699219 205.800781 140.925781 205.875 C 141.375 206.101562 141.675781 207.976562 141.675781 209.023438 C 141.75 210.300781 141.300781 212.773438 140.851562 213 C 140.625 213.074219 140.25 212.773438 140.023438 212.398438 C 139.425781 211.574219 138.898438 208.273438 138.75 207 C 138.601562 206.175781 138.449219 205.351562 138.75 205.125 C 138.976562 204.898438 139.648438 204.976562 140.023438 205.425781 C 141.074219 206.476562 142.199219 214.273438 141.75 215.550781 C 141.601562 215.925781 141.300781 216.074219 141.074219 216.148438 C 140.851562 216.148438 140.476562 215.925781 140.25 215.550781 C 139.574219 214.425781 140.101562 209.101562 139.648438 206.851562 C 139.425781 205.351562 138.75 204.375 138.523438 203.25 C 138.375 202.199219 138.074219 200.773438 138.375 200.25 C 138.523438 200.023438 138.898438 199.800781 139.125 199.875 C 139.425781 199.949219 139.800781 200.625 139.800781 200.625 "/></clipPath></defs><g id="a2c779cc52"><rect x="0" width="375" y="0" height="374.999991" style="fill:#ffffff;fill-opacity:1;stroke:none;"/><rect x="0" width="375" y="0" height="374.999991" style="fill:#d9d9d9;fill-opacity:1;stroke:none;"/><g style="fill:#ffffff;fill-opacity:1;"><g transform="translate(167.563857, 246.193753)"><path style="stroke:none" d="M 3.125 -21.859375 L 11.40625 -21.859375 C 12.90625 -21.859375 14.082031 -21.4375 14.9375 -20.59375 C 15.800781 -19.75 16.234375 -18.660156 16.234375 -17.328125 L 16.234375 -11.875 C 16.234375 -10.539062 15.800781 -9.453125 14.9375 -8.609375 C 14.082031 -7.765625 12.90625 -7.34375 11.40625 -7.34375 L 5.46875 -7.34375 L 5.46875 0 L 3.125 0 Z M 11.40625 -9.375 C 12.113281 -9.375 12.707031 -9.613281 13.1875 -10.09375 C 13.664062 -10.570312 13.90625 -11.164062 13.90625 -11.875 L 13.90625 -17.328125 C 13.90625 -18.035156 13.664062 -18.628906 13.1875 -19.109375 C 12.707031 -19.585938 12.113281 -19.828125 11.40625 -19.828125 L 5.46875 -19.828125 L 5.46875 -9.375 Z M 11.40625 -9.375 "/></g></g><g style="fill:#ffffff;fill-opacity:1;"><g transform="translate(189.301713, 246.193753)"><path style="stroke:none" d="M 7.34375 0 C 5.84375 0 4.660156 -0.421875 3.796875 -1.265625 C 2.929688 -2.109375 2.5 -3.195312 2.5 -4.53125 L 2.5 -17.328125 C 2.5 -18.660156 2.929688 -19.75 3.796875 -20.59375 C 4.660156 -21.4375 5.84375 -21.859375 7.34375 -21.859375 L 15 -21.859375 L 15 -20.453125 L 14.375 -19.828125 L 7.34375 -19.828125 C 6.632812 -19.828125 6.039062 -19.585938 5.5625 -19.109375 C 5.082031 -18.628906 4.84375 -18.035156 4.84375 -17.328125 L 4.84375 -4.53125 C 4.84375 -3.820312 5.082031 -3.226562 5.5625 -2.75 C 6.039062 -2.269531 6.632812 -2.03125 7.34375 -2.03125 L 13.28125 -2.03125 L 13.28125 -11.875 L 15.609375 -11.875 L 15.609375 0 Z M 7.34375 0 "/></g></g><g style="fill:#737373;fill-opacity:1;"><g transform="translate(144.102973, 268.528518)"><path style="stroke:none" d="M 2.15625 -7.03125 L 0.109375 -7.03125 L 0.109375 -7.75 L 5.046875 -7.75 L 5.046875 -7.25 L 4.8125 -7.03125 L 2.984375 -7.03125 L 2.984375 0 L 2.15625 0 Z M 2.15625 -7.03125 "/></g></g><g style="fill:#737373;fill-opacity:1;"><g transform="translate(152.089473, 268.528518)"><path style="stroke:none" d="M 1.109375 -7.75 L 5.421875 -7.75 L 5.421875 -7.25 L 5.203125 -7.03125 L 1.9375 -7.03125 L 1.9375 -4.328125 L 4.546875 -4.328125 L 4.546875 -3.59375 L 1.9375 -3.59375 L 1.9375 -0.71875 L 5.421875 -0.71875 L 5.421875 0 L 1.109375 0 Z M 1.109375 -7.75 "/></g></g><g style="fill:#737373;fill-opacity:1;"><g transform="translate(160.685061, 268.528518)"><path style="stroke:none" d="M 2.609375 0 C 2.078125 0 1.65625 -0.144531 1.34375 -0.4375 C 1.039062 -0.738281 0.890625 -1.128906 0.890625 -1.609375 L 0.890625 -6.140625 C 0.890625 -6.617188 1.039062 -7.003906 1.34375 -7.296875 C 1.65625 -7.597656 2.078125 -7.75 2.609375 -7.75 L 5.3125 -7.75 L 5.3125 -7.25 L 5.09375 -7.03125 L 2.609375 -7.03125 C 2.359375 -7.03125 2.144531 -6.945312 1.96875 -6.78125 C 1.800781 -6.613281 1.71875 -6.398438 1.71875 -6.140625 L 1.71875 -1.609375 C 1.71875 -1.359375 1.800781 -1.144531 1.96875 -0.96875 C 2.144531 -0.800781 2.359375 -0.71875 2.609375 -0.71875 L 5.3125 -0.71875 L 5.3125 0 Z M 2.609375 0 "/></g></g><g style="fill:#737373;fill-opacity:1;"><g transform="translate(169.225271, 268.528518)"><path style="stroke:none" d="M 1.109375 -7.75 L 1.9375 -7.75 L 1.9375 -4.328125 L 4.984375 -4.328125 L 4.984375 -7.75 L 5.8125 -7.75 L 5.8125 0 L 4.984375 0 L 4.984375 -3.59375 L 1.9375 -3.59375 L 1.9375 0 L 1.109375 0 Z M 1.109375 -7.75 "/></g></g><g style="fill:#737373;fill-opacity:1;"><g transform="translate(178.983659, 268.528518)"><path style="stroke:none" d="M 1.109375 -7.75 L 2 -7.75 L 5.046875 -1.546875 L 5.09375 -1.546875 L 4.984375 -2.984375 L 4.984375 -7.75 L 5.8125 -7.75 L 5.8125 0 L 4.9375 0 L 1.890625 -6.203125 L 1.828125 -6.203125 L 1.9375 -4.765625 L 1.9375 0 L 1.109375 0 Z M 1.109375 -7.75 "/></g></g><g style="fill:#737373;fill-opacity:1;"><g transform="translate(188.742047, 268.528518)"><path style="stroke:none" d="M 2.609375 0.109375 C 2.078125 0.109375 1.65625 -0.0351562 1.34375 -0.328125 C 1.039062 -0.628906 0.890625 -1.019531 0.890625 -1.5 L 0.890625 -6.265625 C 0.890625 -6.734375 1.039062 -7.113281 1.34375 -7.40625 C 1.65625 -7.707031 2.078125 -7.859375 2.609375 -7.859375 L 4.15625 -7.859375 C 4.6875 -7.859375 5.101562 -7.707031 5.40625 -7.40625 C 5.71875 -7.113281 5.875 -6.734375 5.875 -6.265625 L 5.875 -1.5 C 5.875 -1.019531 5.71875 -0.628906 5.40625 -0.328125 C 5.101562 -0.0351562 4.6875 0.109375 4.15625 0.109375 Z M 4.15625 -0.609375 C 4.40625 -0.609375 4.613281 -0.691406 4.78125 -0.859375 C 4.957031 -1.035156 5.046875 -1.25 5.046875 -1.5 L 5.046875 -6.265625 C 5.046875 -6.515625 4.957031 -6.722656 4.78125 -6.890625 C 4.613281 -7.054688 4.40625 -7.140625 4.15625 -7.140625 L 2.609375 -7.140625 C 2.359375 -7.140625 2.144531 -7.054688 1.96875 -6.890625 C 1.800781 -6.722656 1.71875 -6.515625 1.71875 -6.265625 L 1.71875 -1.5 C 1.71875 -1.25 1.800781 -1.035156 1.96875 -0.859375 C 2.144531 -0.691406 2.359375 -0.609375 2.609375 -0.609375 Z M 4.15625 -0.609375 "/></g></g><g style="fill:#737373;fill-opacity:1;"><g transform="translate(198.334312, 268.528518)"><path style="stroke:none" d="M 1.109375 -7.75 L 1.9375 -7.75 L 1.9375 -0.71875 L 5.375 -0.71875 L 5.375 0 L 1.109375 0 Z M 1.109375 -7.75 "/></g></g><g style="fill:#737373;fill-opacity:1;"><g transform="translate(206.653033, 268.528518)"><path style="stroke:none" d="M 2.609375 0.109375 C 2.078125 0.109375 1.65625 -0.0351562 1.34375 -0.328125 C 1.039062 -0.628906 0.890625 -1.019531 0.890625 -1.5 L 0.890625 -6.265625 C 0.890625 -6.734375 1.039062 -7.113281 1.34375 -7.40625 C 1.65625 -7.707031 2.078125 -7.859375 2.609375 -7.859375 L 4.15625 -7.859375 C 4.6875 -7.859375 5.101562 -7.707031 5.40625 -7.40625 C 5.71875 -7.113281 5.875 -6.734375 5.875 -6.265625 L 5.875 -1.5 C 5.875 -1.019531 5.71875 -0.628906 5.40625 -0.328125 C 5.101562 -0.0351562 4.6875 0.109375 4.15625 0.109375 Z M 4.15625 -0.609375 C 4.40625 -0.609375 4.613281 -0.691406 4.78125 -0.859375 C 4.957031 -1.035156 5.046875 -1.25 5.046875 -1.5 L 5.046875 -6.265625 C 5.046875 -6.515625 4.957031 -6.722656 4.78125 -6.890625 C 4.613281 -7.054688 4.40625 -7.140625 4.15625 -7.140625 L 2.609375 -7.140625 C 2.359375 -7.140625 2.144531 -7.054688 1.96875 -6.890625 C 1.800781 -6.722656 1.71875 -6.515625 1.71875 -6.265625 L 1.71875 -1.5 C 1.71875 -1.25 1.800781 -1.035156 1.96875 -0.859375 C 2.144531 -0.691406 2.359375 -0.609375 2.609375 -0.609375 Z M 4.15625 -0.609375 "/></g></g><g style="fill:#737373;fill-opacity:1;"><g transform="translate(216.245299, 268.528518)"><path style="stroke:none" d="M 2.609375 0 C 2.078125 0 1.65625 -0.144531 1.34375 -0.4375 C 1.039062 -0.738281 0.890625 -1.128906 0.890625 -1.609375 L 0.890625 -6.140625 C 0.890625 -6.617188 1.039062 -7.003906 1.34375 -7.296875 C 1.65625 -7.597656 2.078125 -7.75 2.609375 -7.75 L 5.3125 -7.75 L 5.3125 -7.25 L 5.09375 -7.03125 L 2.609375 -7.03125 C 2.359375 -7.03125 2.144531 -6.945312 1.96875 -6.78125 C 1.800781 -6.613281 1.71875 -6.398438 1.71875 -6.140625 L 1.71875 -1.609375 C 1.71875 -1.359375 1.800781 -1.144531 1.96875 -0.96875 C 2.144531 -0.800781 2.359375 -0.71875 2.609375 -0.71875 L 4.703125 -0.71875 L 4.703125 -4.203125 L 5.53125 -4.203125 L 5.53125 0 Z M 2.609375 0 "/></g></g><g style="fill:#737373;fill-opacity:1;"><g transform="translate(225.505342, 268.528518)"><path style="stroke:none" d="M 2.265625 -2.375 L 0.109375 -7.421875 L 0.109375 -7.75 L 0.9375 -7.75 L 2.65625 -3.4375 L 2.71875 -3.4375 L 4.4375 -7.75 L 5.265625 -7.75 L 5.265625 -7.421875 L 3.109375 -2.375 L 3.109375 0 L 2.265625 0 Z M 2.265625 -2.375 "/></g></g><g clip-rule="nonzero" clip-path="url(#b0980bba2f)"><path style=" stroke:none;fill-rule:nonzero;fill:#ffffff;fill-opacity:1;" d="M 188.570312 116.28125 C 190.621094 117.152344 192.402344 118.351562 193.925781 119.867188 C 195.441406 121.386719 196.636719 123.171875 197.511719 125.222656 C 198.386719 127.269531 198.824219 129.4375 198.824219 131.714844 L 198.824219 155.976562 C 198.746094 158.179688 198.234375 160.246094 197.285156 162.183594 C 196.335938 164.121094 195.121094 165.808594 193.640625 167.25 C 192.160156 168.695312 190.429688 169.832031 188.457031 170.667969 C 186.480469 171.503906 184.359375 171.921875 182.078125 171.921875 L 175.929688 171.921875 C 177.523438 171.695312 178.964844 170.746094 180.257812 169.074219 C 181.320312 167.632812 182.289062 165.390625 183.164062 162.351562 C 184.035156 159.316406 184.472656 154.988281 184.472656 149.367188 L 184.472656 129.320312 C 184.472656 127.574219 184.148438 125.941406 183.503906 124.421875 C 182.859375 122.90625 181.984375 121.59375 180.882812 120.496094 C 179.785156 119.394531 178.472656 118.519531 176.957031 117.875 C 175.4375 117.230469 173.804688 116.90625 172.058594 116.90625 L 156 116.90625 L 156 214.746094 C 156 215.355469 156.300781 215.65625 156.910156 215.65625 L 167.390625 215.65625 L 167.390625 217.59375 L 130.367188 217.59375 L 130.367188 215.65625 L 140.734375 215.65625 C 141.417969 215.65625 141.757812 215.355469 141.757812 214.746094 L 141.757812 117.816406 C 141.757812 117.210938 141.417969 116.90625 140.734375 116.90625 L 130.367188 116.90625 L 130.367188 114.96875 L 182.078125 114.96875 C 184.359375 114.96875 186.519531 115.40625 188.570312 116.28125 Z M 220.519531 124.535156 C 219.648438 121.5 218.675781 119.257812 217.613281 117.816406 C 216.324219 116.148438 214.882812 115.195312 213.285156 114.96875 L 219.324219 114.96875 C 221.601562 114.96875 223.765625 115.40625 225.816406 116.28125 C 227.867188 117.152344 229.652344 118.351562 231.171875 119.867188 C 232.6875 121.386719 233.882812 123.171875 234.757812 125.222656 C 235.632812 127.269531 236.070312 129.4375 236.070312 131.714844 L 236.070312 149.140625 L 221.832031 149.140625 L 221.832031 137.636719 C 221.828125 131.9375 221.390625 127.574219 220.519531 124.535156 Z M 241.761719 171.917969 L 241.761719 173.855469 L 236.976562 173.855469 C 236.367188 173.855469 236.066406 174.199219 236.066406 174.882812 L 236.066406 200.851562 C 236.066406 203.128906 235.628906 205.292969 234.757812 207.34375 C 233.882812 209.394531 232.6875 211.179688 231.167969 212.695312 C 229.648438 214.21875 227.863281 215.414062 225.8125 216.285156 C 223.765625 217.15625 221.597656 217.59375 219.320312 217.59375 L 213.285156 217.59375 C 214.878906 217.367188 216.320312 216.417969 217.613281 214.746094 C 218.675781 213.304688 219.640625 211.046875 220.515625 207.96875 C 221.390625 204.894531 221.828125 200.546875 221.828125 194.929688 L 221.828125 177.046875 C 220.839844 176.441406 219.871094 175.757812 218.921875 174.996094 C 217.972656 174.238281 217.042969 173.859375 216.132812 173.859375 L 216.132812 171.921875 L 241.761719 171.921875 Z M 241.761719 171.917969 "/></g><g clip-rule="nonzero" clip-path="url(#ad62d29e17)"><g clip-rule="nonzero" clip-path="url(#fc2d7974a0)"><g clip-rule="nonzero" clip-path="url(#2d4df807c4)"><path style=" stroke:none;fill-rule:nonzero;fill:#d9d9d9;fill-opacity:1;" d="M 215.921875 107.519531 L 182.425781 150.4375 L 236.472656 143.777344 L 222.90625 131.28125 L 235.355469 124.230469 L 232.128906 118.527344 L 219.679688 125.578125 Z M 215.921875 107.519531 "/></g></g></g><g clip-rule="nonzero" clip-path="url(#ecf5336c99)"><g clip-rule="nonzero" clip-path="url(#be2859f707)"><g clip-rule="nonzero" clip-path="url(#13a9e312d5)"><path style=" stroke:none;fill-rule:nonzero;fill:#d9d9d9;fill-opacity:1;" d="M 236.875 124.042969 C 236.949219 124.632812 236.664062 125.242188 236.117188 125.5625 L 225.492188 131.574219 L 237.507812 142.65625 C 237.941406 143.066406 238.113281 143.679688 237.929688 144.242188 C 237.738281 144.816406 237.25 145.222656 236.648438 145.296875 L 182.613281 151.960938 C 182 152.035156 181.402344 151.738281 181.09375 151.199219 C 180.789062 150.664062 180.839844 150 181.222656 149.511719 L 214.71875 106.578125 C 215.078125 106.105469 215.6875 105.898438 216.265625 106.03125 C 216.84375 106.164062 217.296875 106.621094 217.414062 107.203125 L 220.742188 123.210938 L 231.363281 117.1875 C 231.722656 116.988281 232.132812 116.9375 232.53125 117.042969 C 232.925781 117.148438 233.257812 117.40625 233.457031 117.765625 L 236.683594 123.46875 C 236.789062 123.648438 236.851562 123.84375 236.875 124.042969 Z M 221.386719 131.46875 C 221.375 131.351562 221.371094 131.230469 221.390625 131.109375 C 221.449219 130.625 221.734375 130.195312 222.15625 129.949219 L 233.273438 123.652344 L 231.546875 120.609375 L 220.429688 126.910156 C 220.007812 127.152344 219.492188 127.167969 219.050781 126.972656 C 218.609375 126.773438 218.28125 126.359375 218.1875 125.894531 L 215.117188 111.066406 L 185.902344 148.464844 L 233.007812 142.660156 L 221.875 132.402344 C 221.605469 132.160156 221.429688 131.824219 221.386719 131.46875 Z M 221.386719 131.46875 "/></g></g></g><g clip-rule="nonzero" clip-path="url(#a6d351a5da)"><g clip-rule="nonzero" clip-path="url(#8969d70392)"><path style=" stroke:none;fill-rule:nonzero;fill:#d9d9d9;fill-opacity:1;" d="M 124.703125 92.570312 L 164.664062 92.570312 L 164.664062 129.769531 L 124.703125 129.769531 Z M 124.703125 92.570312 "/></g></g><g clip-rule="nonzero" clip-path="url(#b959963440)"><g clip-rule="nonzero" clip-path="url(#7c27c40b72)"><path style=" stroke:none;fill-rule:nonzero;fill:#d9d9d9;fill-opacity:1;" d="M 127.949219 204.75 L 175.882812 204.75 L 175.882812 230.476562 L 127.949219 230.476562 Z M 127.949219 204.75 "/></g></g><g clip-rule="nonzero" clip-path="url(#944dd079f6)"><g clip-rule="nonzero" clip-path="url(#85b9dfa099)"><path style=" stroke:none;fill-rule:nonzero;fill:#d9d9d9;fill-opacity:1;" d="M 154.949219 205.5 L 171.226562 205.5 L 171.226562 227.878906 L 154.949219 227.878906 Z M 154.949219 205.5 "/></g></g><g clip-rule="nonzero" clip-path="url(#4bf3350f04)"><g clip-rule="nonzero" clip-path="url(#4461dd0642)"><path style=" stroke:none;fill-rule:nonzero;fill:#d9d9d9;fill-opacity:1;" d="M 201.804688 153.84375 L 221.003906 153.84375 L 221.003906 183.769531 L 201.804688 183.769531 Z M 201.804688 153.84375 "/></g></g><g clip-rule="nonzero" clip-path="url(#cde6c6dfd9)"><g clip-rule="nonzero" clip-path="url(#9bf86ecda3)"><path style=" stroke:none;fill-rule:nonzero;fill:#d9d9d9;fill-opacity:1;" d="M 210.652344 156.84375 L 225.054688 156.84375 L 225.054688 186.261719 L 210.652344 186.261719 Z M 210.652344 156.84375 "/></g></g><g clip-rule="nonzero" clip-path="url(#54a8f52a0e)"><g clip-rule="nonzero" clip-path="url(#a20d0484cf)"><path style=" stroke:none;fill-rule:nonzero;fill:#d9d9d9;fill-opacity:1;" d="M 153.976562 200.625 L 166.125 200.625 L 166.125 225.019531 L 153.976562 225.019531 Z M 153.976562 200.625 "/></g></g><g clip-rule="nonzero" clip-path="url(#5521535dfb)"><g clip-rule="nonzero" clip-path="url(#c2921295c2)"><path style=" stroke:none;fill-rule:nonzero;fill:#d9d9d9;fill-opacity:1;" d="M 125.324219 204.074219 L 137.398438 204.074219 L 137.398438 227.988281 L 125.324219 227.988281 Z M 125.324219 204.074219 "/></g></g><g clip-rule="nonzero" clip-path="url(#d64b5add9b)"><g clip-rule="nonzero" clip-path="url(#b6b8e7751c)"><path style=" stroke:none;fill-rule:nonzero;fill:#ffffff;fill-opacity:1;" d="M 138 205.5 L 158.558594 205.5 L 158.558594 221.023438 L 138 221.023438 Z M 138 205.5 "/></g></g><g clip-rule="nonzero" clip-path="url(#29c1982b57)"><g clip-rule="nonzero" clip-path="url(#1989712d75)"><path style=" stroke:none;fill-rule:nonzero;fill:#d9d9d9;fill-opacity:1;" d="M 137.476562 211.351562 L 152.117188 211.351562 L 152.117188 222 L 137.476562 222 Z M 137.476562 211.351562 "/></g></g><g clip-rule="nonzero" clip-path="url(#e10679d8d6)"><g clip-rule="nonzero" clip-path="url(#c28bcf0ede)"><path style=" stroke:none;fill-rule:nonzero;fill:#d9d9d9;fill-opacity:1;" d="M 135.523438 199.5 L 144.300781 199.5 L 144.300781 222.910156 L 135.523438 222.910156 Z M 135.523438 199.5 "/></g></g><g clip-rule="nonzero" clip-path="url(#e14681f586)"><g clip-rule="nonzero" clip-path="url(#a7c607f0ab)"><path style=" stroke:none;fill-rule:nonzero;fill:#d9d9d9;fill-opacity:1;" d="M 136.273438 198.675781 L 144.449219 198.675781 L 144.449219 224.191406 L 136.273438 224.191406 Z M 136.273438 198.675781 "/></g></g><g clip-rule="nonzero" clip-path="url(#6a135297e7)"><g clip-rule="nonzero" clip-path="url(#caf5288d74)"><path style=" stroke:none;fill-rule:nonzero;fill:#d9d9d9;fill-opacity:1;" d="M 135.074219 196.425781 L 144.75 196.425781 L 144.75 218.195312 L 135.074219 218.195312 Z M 135.074219 196.425781 "/></g></g><g clip-rule="nonzero" clip-path="url(#998b24eb44)"><g clip-rule="nonzero" clip-path="url(#69a08b47f9)"><path style=" stroke:none;fill-rule:nonzero;fill:#d9d9d9;fill-opacity:1;" d="M 137.324219 214.425781 L 152.71875 214.425781 L 152.71875 223.875 L 137.324219 223.875 Z M 137.324219 214.425781 "/></g></g><g clip-rule="nonzero" clip-path="url(#fcfefe979e)"><g clip-rule="nonzero" clip-path="url(#0dc5d26e52)"><path style=" stroke:none;fill-rule:nonzero;fill:#d9d9d9;fill-opacity:1;" d="M 132 198.226562 L 150.75 198.226562 L 150.75 224.957031 L 132 224.957031 Z M 132 198.226562 "/></g></g><g clip-rule="nonzero" clip-path="url(#6436e7401d)"><g clip-rule="nonzero" clip-path="url(#bd16cd86ce)"><path style=" stroke:none;fill-rule:nonzero;fill:#d9d9d9;fill-opacity:1;" d="M 135.074219 194.925781 L 144.074219 194.925781 L 144.074219 221.46875 L 135.074219 221.46875 Z M 135.074219 194.925781 "/></g></g><g clip-rule="nonzero" clip-path="url(#5d55393ea6)"><g clip-rule="nonzero" clip-path="url(#970e28055d)"><path style=" stroke:none;fill-rule:nonzero;fill:#d9d9d9;fill-opacity:1;" d="M 137.25 213 L 162.835938 213 L 162.835938 223.648438 L 137.25 223.648438 Z M 137.25 213 "/></g></g><g clip-rule="nonzero" clip-path="url(#d02592dcc9)"><g clip-rule="nonzero" clip-path="url(#c44ab90981)"><path style=" stroke:none;fill-rule:nonzero;fill:#d9d9d9;fill-opacity:1;" d="M 150 209.398438 L 162.375 209.398438 L 162.375 225.691406 L 150 225.691406 Z M 150 209.398438 "/></g></g><g clip-rule="nonzero" clip-path="url(#9e71e156b1)"><g clip-rule="nonzero" clip-path="url(#4a0ad588b3)"><path style=" stroke:none;fill-rule:nonzero;fill:#d9d9d9;fill-opacity:1;" d="M 116.324219 206.023438 L 156.171875 206.023438 L 156.171875 224.175781 L 116.324219 224.175781 Z M 116.324219 206.023438 "/></g></g><g clip-rule="nonzero" clip-path="url(#9bc1a9b767)"><g clip-rule="nonzero" clip-path="url(#6e8472be40)"><path style=" stroke:none;fill-rule:nonzero;fill:#d9d9d9;fill-opacity:1;" d="M 135.375 196.875 L 144.75 196.875 L 144.75 219.140625 L 135.375 219.140625 Z M 135.375 196.875 "/></g></g></g></svg>