<svg width="440" height="956" viewBox="0 0 440 956" fill="none" xmlns="http://www.w3.org/2000/svg">
<g clip-path="url(#clip0_1_2)">
<rect width="440" height="956" fill="#222831"/>
<ellipse cx="219.5" cy="446" rx="277.5" ry="289" fill="#EEEEEE"/>
<path opacity="0.38" d="M167.596 601.876C167.596 603.484 166.756 604.288 165.076 604.288C164.26 604.288 163.612 604.084 163.132 603.676C162.652 603.268 162.412 602.668 162.412 601.876V587.62C162.412 584.308 163.084 581.944 164.428 580.528C165.772 579.112 167.872 578.404 170.728 578.404C173.656 578.404 175.816 579.124 177.208 580.564C178.6 582.004 179.296 584.356 179.296 587.62V601.876C179.296 603.484 178.456 604.288 176.776 604.288C175.96 604.288 175.312 604.084 174.832 603.676C174.352 603.268 174.112 602.668 174.112 601.876V593.2C173.656 593.608 173.152 593.956 172.6 594.244C172.072 594.532 171.448 594.676 170.728 594.676C169.672 594.676 168.88 594.868 168.352 595.252C167.848 595.636 167.596 596.32 167.596 597.304V601.876ZM167.38 591.328C167.764 590.944 168.22 590.644 168.748 590.428C169.3 590.212 169.96 590.104 170.728 590.104C171.64 590.104 172.336 590.032 172.816 589.888C173.32 589.744 173.668 589.468 173.86 589.06C174.052 588.652 174.148 588.052 174.148 587.26C174.148 585.484 173.896 584.272 173.392 583.624C172.888 582.952 171.988 582.616 170.692 582.616C169.492 582.616 168.664 582.964 168.208 583.66C167.776 584.332 167.56 585.58 167.56 587.404C167.56 588.34 167.548 589.132 167.524 589.78C167.5 590.428 167.452 590.944 167.38 591.328ZM186.058 604.288C184.33 604.288 183.466 603.472 183.466 601.84V588.196C183.466 586.54 184.33 585.712 186.058 585.712C186.922 585.712 187.546 585.904 187.93 586.288C188.314 586.648 188.506 587.248 188.506 588.088C188.938 587.296 189.55 586.708 190.342 586.324C191.158 585.916 192.106 585.712 193.186 585.712C195.25 585.712 196.282 586.612 196.282 588.412C196.282 589.084 196.03 589.588 195.526 589.924C195.022 590.26 194.194 590.428 193.042 590.428C191.914 590.428 191.026 590.536 190.378 590.752C189.73 590.944 189.274 591.316 189.01 591.868C188.77 592.396 188.65 593.164 188.65 594.172V601.84C188.65 603.472 187.786 604.288 186.058 604.288ZM199.979 604.288C198.251 604.288 197.387 603.472 197.387 601.84V588.196C197.387 586.54 198.251 585.712 199.979 585.712C200.843 585.712 201.467 585.904 201.851 586.288C202.235 586.648 202.427 587.248 202.427 588.088C202.859 587.296 203.471 586.708 204.263 586.324C205.079 585.916 206.027 585.712 207.107 585.712C209.171 585.712 210.203 586.612 210.203 588.412C210.203 589.084 209.951 589.588 209.447 589.924C208.943 590.26 208.115 590.428 206.963 590.428C205.835 590.428 204.947 590.536 204.299 590.752C203.651 590.944 203.195 591.316 202.931 591.868C202.691 592.396 202.571 593.164 202.571 594.172V601.84C202.571 603.472 201.707 604.288 199.979 604.288ZM217.718 604.288C215.318 604.288 213.446 603.736 212.102 602.632C210.758 601.504 210.086 600.052 210.086 598.276C210.086 596.188 210.962 594.676 212.714 593.74C214.49 592.804 217.082 592.48 220.49 592.768C220.322 591.664 219.974 590.92 219.446 590.536C218.918 590.128 218.282 589.924 217.538 589.924C216.938 589.924 216.434 589.96 216.026 590.032C215.642 590.08 215.282 590.14 214.946 590.212C214.61 590.284 214.202 590.32 213.722 590.32C213.074 590.32 212.558 590.212 212.174 589.996C211.79 589.756 211.598 589.288 211.598 588.592C211.598 587.608 212.018 586.888 212.858 586.432C213.722 585.952 215.078 585.712 216.926 585.712C219.854 585.712 222.026 586.552 223.442 588.232C224.858 589.888 225.566 592.108 225.566 594.892C225.566 598.108 224.978 600.484 223.802 602.02C222.65 603.532 220.622 604.288 217.718 604.288ZM215.27 598.276C215.27 599.644 216.194 600.328 218.042 600.328C218.642 600.328 219.11 600.22 219.446 600.004C219.782 599.788 220.022 599.356 220.166 598.708C220.334 598.06 220.454 597.088 220.526 595.792C220.406 595.912 220.25 595.996 220.058 596.044C219.866 596.092 219.674 596.116 219.482 596.116C217.898 596.116 216.794 596.272 216.17 596.584C215.57 596.872 215.27 597.436 215.27 598.276ZM235.074 604.288C230.562 604.288 228.306 603.292 228.306 601.3C228.306 600.676 228.474 600.184 228.81 599.824C229.146 599.464 229.59 599.284 230.142 599.284C230.382 599.284 230.61 599.32 230.826 599.392C231.066 599.44 231.522 599.572 232.194 599.788C232.482 599.884 232.866 599.98 233.346 600.076C233.826 600.172 234.294 600.22 234.75 600.22C235.614 600.22 236.226 600.112 236.586 599.896C236.946 599.68 237.126 599.32 237.126 598.816C237.126 598.408 237.03 598.096 236.838 597.88C236.646 597.64 236.238 597.412 235.614 597.196C234.99 596.98 234.018 596.68 232.698 596.296C231.498 595.96 230.526 595.36 229.782 594.496C229.062 593.608 228.702 592.516 228.702 591.22C228.702 589.396 229.362 588.004 230.682 587.044C232.002 586.084 233.814 585.604 236.118 585.604C237.846 585.604 239.202 585.844 240.186 586.324C241.17 586.804 241.662 587.5 241.662 588.412C241.662 588.988 241.494 589.468 241.158 589.852C240.822 590.236 240.366 590.428 239.79 590.428C239.55 590.428 239.262 590.392 238.926 590.32C238.614 590.248 238.23 590.152 237.774 590.032C237.438 589.912 237.078 589.816 236.694 589.744C236.334 589.672 235.95 589.636 235.542 589.636C234.39 589.636 233.814 590.044 233.814 590.86C233.814 591.34 234.042 591.748 234.498 592.084C234.954 592.396 235.83 592.744 237.126 593.128C238.902 593.656 240.21 594.364 241.05 595.252C241.89 596.116 242.31 597.268 242.31 598.708C242.31 600.388 241.662 601.744 240.366 602.776C239.094 603.784 237.33 604.288 235.074 604.288ZM253.583 604.288C251.351 604.288 249.695 603.76 248.615 602.704C247.559 601.648 247.031 600.028 247.031 597.844V590.356H246.095C244.463 590.356 243.647 589.624 243.647 588.16C243.647 586.72 244.463 586 246.095 586H247.031V582.112C247.031 581.32 247.271 580.672 247.751 580.168C248.255 579.664 248.903 579.412 249.695 579.412C250.463 579.412 251.075 579.652 251.531 580.132C251.987 580.588 252.215 581.224 252.215 582.04V583.804C252.215 584.692 252.071 585.424 251.783 586H255.203C256.835 586 257.651 586.72 257.651 588.16C257.651 589.624 256.835 590.356 255.203 590.356H252.215V597.952C252.215 598.672 252.299 599.188 252.467 599.5C252.635 599.788 252.911 599.932 253.295 599.932C253.799 599.932 254.171 599.896 254.411 599.824C254.675 599.728 254.999 599.68 255.383 599.68C256.031 599.68 256.547 599.8 256.931 600.04C257.315 600.256 257.507 600.712 257.507 601.408C257.507 602.392 257.195 603.124 256.571 603.604C255.947 604.06 254.951 604.288 253.583 604.288ZM269.374 604.288C266.974 604.288 265.09 603.892 263.722 603.1C262.378 602.308 261.418 601.216 260.842 599.824C260.29 598.432 260.014 596.836 260.014 595.036C260.014 591.724 260.746 589.348 262.21 587.908C263.674 586.444 265.642 585.712 268.114 585.712C269.602 585.712 270.922 585.964 272.074 586.468C273.226 586.972 274.126 587.692 274.774 588.628C275.422 589.54 275.746 590.656 275.746 591.976C275.746 595.816 273.01 597.736 267.538 597.736H265.45C265.642 598.48 265.954 599.068 266.386 599.5C266.842 599.908 267.634 600.112 268.762 600.112C269.386 600.112 269.89 600.076 270.274 600.004C270.658 599.932 271.018 599.86 271.354 599.788C271.714 599.716 272.122 599.68 272.578 599.68C273.226 599.68 273.742 599.8 274.126 600.04C274.51 600.256 274.702 600.712 274.702 601.408C274.702 602.392 274.27 603.124 273.406 603.604C272.566 604.06 271.222 604.288 269.374 604.288ZM265.198 595.072C265.39 594.808 265.606 594.64 265.846 594.568C266.086 594.472 266.458 594.424 266.962 594.424C268.378 594.424 269.35 594.292 269.878 594.028C270.43 593.74 270.706 593.236 270.706 592.516C270.706 591.604 270.454 590.908 269.95 590.428C269.446 589.924 268.81 589.672 268.042 589.672C267.154 589.672 266.458 590.044 265.954 590.788C265.45 591.532 265.198 592.96 265.198 595.072Z" fill="#6D7889"/>
<path d="M66.5625 266.062L64.8125 279.25C64.2083 279.083 63.6042 278.969 63 278.906C62.3958 278.844 61.7917 278.812 61.1875 278.812C59.6458 278.812 58.1771 279.021 56.7812 279.438C55.3854 279.833 54.1458 280.448 53.0625 281.281C52 282.115 51.1458 283.156 50.5 284.406C49.875 285.656 49.5625 287.125 49.5625 288.812C49.5625 289.896 49.7292 290.833 50.0625 291.625C50.4167 292.417 50.9062 293.073 51.5312 293.594C52.1562 294.115 52.8958 294.5 53.75 294.75C54.6042 295 55.5417 295.125 56.5625 295.125C57.3333 295.125 58.1354 295.042 58.9688 294.875C59.8021 294.708 60.625 294.49 61.4375 294.219C62.25 293.948 63.0417 293.635 63.8125 293.281C64.5833 292.927 65.2917 292.562 65.9375 292.188L64.6875 306.875C63.875 307.292 62.9896 307.667 62.0312 308C61.0938 308.312 60.125 308.594 59.125 308.844C58.125 309.073 57.125 309.25 56.125 309.375C55.125 309.5 54.1667 309.562 53.25 309.562C50.6042 309.562 48.1354 309.073 45.8438 308.094C43.5521 307.115 41.5625 305.771 39.875 304.062C38.1875 302.354 36.8542 300.344 35.875 298.031C34.9167 295.698 34.4375 293.188 34.4375 290.5C34.4375 286.938 34.9479 283.583 35.9688 280.438C36.9896 277.271 38.4896 274.5 40.4688 272.125C42.4479 269.75 44.8958 267.875 47.8125 266.5C50.75 265.125 54.125 264.438 57.9375 264.438C59.375 264.438 60.8438 264.552 62.3438 264.781C63.8646 265.01 65.2708 265.438 66.5625 266.062ZM105.781 266C104.844 273.333 104.042 280.635 103.375 287.906C102.708 295.156 102.073 302.458 101.469 309.812L88.6562 310.75L89.2188 305.938C88.8021 306.417 88.3125 306.833 87.75 307.188C87.2083 307.542 86.625 307.833 86 308.062C85.375 308.271 84.7292 308.427 84.0625 308.531C83.3958 308.615 82.7604 308.646 82.1562 308.625C80.7396 308.604 79.4062 308.333 78.1562 307.812C76.9062 307.271 75.7604 306.562 74.7188 305.688C73.6771 304.792 72.7396 303.76 71.9062 302.594C71.0729 301.406 70.3646 300.167 69.7812 298.875C69.2188 297.562 68.7812 296.229 68.4688 294.875C68.1771 293.521 68.0312 292.208 68.0312 290.938C68.0312 289.062 68.0625 287.125 68.125 285.125C68.2083 283.104 68.3438 281.083 68.5312 279.062C68.7188 277.042 68.9583 275.042 69.25 273.062C69.5625 271.083 69.9479 269.188 70.4062 267.375C72.9479 267.5 75.5 267.615 78.0625 267.719C80.625 267.823 83.1771 267.854 85.7188 267.812C85.2396 269.625 84.7604 271.448 84.2812 273.281C83.8229 275.094 83.4062 276.927 83.0312 278.781C82.6562 280.615 82.3542 282.458 82.125 284.312C81.8958 286.167 81.7812 288.042 81.7812 289.938C81.7812 290.375 81.8021 291 81.8438 291.812C81.8854 292.625 81.9896 293.427 82.1562 294.219C82.3438 295.01 82.6146 295.708 82.9688 296.312C83.3438 296.896 83.8646 297.188 84.5312 297.188C85.3229 297.188 86.0312 296.854 86.6562 296.188C87.2812 295.5 87.8333 294.583 88.3125 293.438C88.7917 292.292 89.1979 290.969 89.5312 289.469C89.8854 287.969 90.1771 286.406 90.4062 284.781C90.6562 283.135 90.8542 281.479 91 279.812C91.1458 278.146 91.25 276.583 91.3125 275.125C91.3958 273.646 91.4479 272.323 91.4688 271.156C91.5104 269.99 91.5312 269.083 91.5312 268.438C91.5312 268.021 91.5208 267.615 91.5 267.219C91.4792 266.823 91.4479 266.417 91.4062 266C92.7604 266.042 94.1042 266.073 95.4375 266.094C96.7708 266.115 98.1146 266.125 99.4688 266.125C100.51 266.125 101.552 266.125 102.594 266.125C103.656 266.104 104.719 266.062 105.781 266ZM144.281 279.875C144.281 281.5 144.135 282.979 143.844 284.312C143.573 285.625 143.135 286.833 142.531 287.938C141.927 289.042 141.146 290.062 140.188 291C139.229 291.938 138.073 292.833 136.719 293.688L144.156 306.938L130.094 309.688L125.281 296.375L121.406 296.5L120.844 309.5H107.406C107.51 304.75 107.604 300.021 107.688 295.312C107.792 290.604 107.906 285.875 108.031 281.125C108.073 278.729 108.115 276.354 108.156 274C108.198 271.646 108.281 269.271 108.406 266.875C109.865 266.333 111.302 265.885 112.719 265.531C114.135 265.177 115.552 264.906 116.969 264.719C118.406 264.51 119.854 264.375 121.312 264.312C122.792 264.229 124.302 264.188 125.844 264.188C128.219 264.188 130.51 264.521 132.719 265.188C134.948 265.833 136.917 266.812 138.625 268.125C140.333 269.438 141.698 271.073 142.719 273.031C143.76 274.99 144.281 277.271 144.281 279.875ZM130.281 280.875C130.281 280 130.156 279.198 129.906 278.469C129.677 277.74 129.323 277.115 128.844 276.594C128.385 276.052 127.802 275.635 127.094 275.344C126.406 275.031 125.594 274.875 124.656 274.875C124.24 274.875 123.833 274.906 123.438 274.969C123.042 275.01 122.656 275.083 122.281 275.188L121.781 286.812H122.531C123.427 286.812 124.333 286.698 125.25 286.469C126.188 286.24 127.021 285.885 127.75 285.406C128.5 284.927 129.104 284.312 129.562 283.562C130.042 282.812 130.281 281.917 130.281 280.875ZM178.5 294C178.5 296.854 178 299.323 177 301.406C176.021 303.469 174.667 305.177 172.938 306.531C171.229 307.865 169.219 308.854 166.906 309.5C164.615 310.125 162.146 310.438 159.5 310.438C158.479 310.438 157.354 310.302 156.125 310.031C154.917 309.76 153.688 309.427 152.438 309.031C151.188 308.615 149.979 308.177 148.812 307.719C147.667 307.24 146.646 306.792 145.75 306.375L147.125 294.125C148.896 295.188 150.854 296 153 296.562C155.167 297.104 157.292 297.375 159.375 297.375C159.771 297.375 160.25 297.365 160.812 297.344C161.375 297.302 161.906 297.208 162.406 297.062C162.927 296.896 163.365 296.656 163.719 296.344C164.073 296.031 164.25 295.583 164.25 295C164.25 294.604 164.125 294.271 163.875 294C163.625 293.708 163.302 293.479 162.906 293.312C162.51 293.125 162.062 292.99 161.562 292.906C161.062 292.802 160.573 292.729 160.094 292.688C159.615 292.646 159.167 292.625 158.75 292.625C158.333 292.625 158 292.625 157.75 292.625C155.958 292.625 154.323 292.344 152.844 291.781C151.385 291.219 150.125 290.427 149.062 289.406C148.021 288.365 147.208 287.115 146.625 285.656C146.042 284.177 145.75 282.542 145.75 280.75C145.75 278.292 146.24 276.094 147.219 274.156C148.219 272.198 149.542 270.542 151.188 269.188C152.854 267.812 154.76 266.76 156.906 266.031C159.052 265.302 161.271 264.938 163.562 264.938C164.583 264.938 165.635 264.979 166.719 265.062C167.802 265.125 168.875 265.25 169.938 265.438C171.021 265.625 172.073 265.865 173.094 266.156C174.115 266.448 175.083 266.812 176 267.25L174.812 279.938C173.396 279.458 171.906 279.062 170.344 278.75C168.802 278.417 167.292 278.25 165.812 278.25C165.542 278.25 165.188 278.26 164.75 278.281C164.333 278.281 163.885 278.312 163.406 278.375C162.948 278.417 162.479 278.49 162 278.594C161.521 278.698 161.094 278.844 160.719 279.031C160.344 279.198 160.042 279.427 159.812 279.719C159.583 280.01 159.479 280.354 159.5 280.75C159.521 281.208 159.688 281.562 160 281.812C160.333 282.062 160.75 282.25 161.25 282.375C161.771 282.479 162.333 282.531 162.938 282.531C163.562 282.531 164.177 282.521 164.781 282.5C165.385 282.458 165.948 282.427 166.469 282.406C166.99 282.365 167.417 282.354 167.75 282.375C169.417 282.479 170.917 282.833 172.25 283.438C173.583 284.042 174.708 284.844 175.625 285.844C176.562 286.844 177.271 288.042 177.75 289.438C178.25 290.812 178.5 292.333 178.5 294ZM219.156 286.062C219.156 287.958 218.938 289.792 218.5 291.562C218.062 293.312 217.427 294.958 216.594 296.5C215.781 298.042 214.781 299.458 213.594 300.75C212.427 302.021 211.104 303.115 209.625 304.031C208.167 304.948 206.573 305.667 204.844 306.188C203.115 306.688 201.281 306.938 199.344 306.938C197.469 306.938 195.677 306.698 193.969 306.219C192.281 305.74 190.698 305.073 189.219 304.219C187.74 303.344 186.396 302.302 185.188 301.094C184 299.865 182.979 298.51 182.125 297.031C181.292 295.531 180.635 293.927 180.156 292.219C179.698 290.51 179.469 288.729 179.469 286.875C179.469 285.062 179.688 283.292 180.125 281.562C180.562 279.812 181.188 278.167 182 276.625C182.833 275.083 183.833 273.667 185 272.375C186.167 271.083 187.469 269.969 188.906 269.031C190.365 268.094 191.938 267.365 193.625 266.844C195.312 266.323 197.094 266.062 198.969 266.062C201.99 266.062 204.74 266.531 207.219 267.469C209.719 268.406 211.844 269.75 213.594 271.5C215.365 273.229 216.729 275.333 217.688 277.812C218.667 280.271 219.156 283.021 219.156 286.062ZM205.281 286.875C205.281 285.979 205.146 285.115 204.875 284.281C204.625 283.427 204.25 282.677 203.75 282.031C203.25 281.365 202.625 280.833 201.875 280.438C201.146 280.021 200.302 279.812 199.344 279.812C198.365 279.812 197.49 279.99 196.719 280.344C195.948 280.698 195.281 281.188 194.719 281.812C194.177 282.417 193.76 283.135 193.469 283.969C193.177 284.781 193.031 285.646 193.031 286.562C193.031 287.438 193.156 288.312 193.406 289.188C193.656 290.062 194.031 290.854 194.531 291.562C195.031 292.271 195.646 292.844 196.375 293.281C197.125 293.719 197.99 293.938 198.969 293.938C199.948 293.938 200.823 293.75 201.594 293.375C202.385 292.979 203.052 292.458 203.594 291.812C204.135 291.146 204.552 290.385 204.844 289.531C205.135 288.677 205.281 287.792 205.281 286.875ZM269.25 285.188C269.25 288.104 268.875 290.719 268.125 293.031C267.375 295.344 266.323 297.396 264.969 299.188C263.635 300.958 262.042 302.469 260.188 303.719C258.333 304.969 256.302 306 254.094 306.812C251.885 307.604 249.531 308.188 247.031 308.562C244.552 308.938 242 309.125 239.375 309.125C238.396 309.125 237.438 309.104 236.5 309.062C235.562 309 234.604 308.917 233.625 308.812L234.5 268.125C236.792 267.396 239.146 266.885 241.562 266.594C244 266.281 246.417 266.125 248.812 266.125C251.792 266.125 254.531 266.542 257.031 267.375C259.531 268.208 261.688 269.438 263.5 271.062C265.312 272.667 266.719 274.656 267.719 277.031C268.74 279.385 269.25 282.104 269.25 285.188ZM248 297.188C249.25 297 250.385 296.625 251.406 296.062C252.448 295.479 253.344 294.771 254.094 293.938C254.844 293.083 255.417 292.125 255.812 291.062C256.229 289.979 256.438 288.833 256.438 287.625C256.438 286.438 256.312 285.333 256.062 284.312C255.812 283.271 255.406 282.375 254.844 281.625C254.281 280.854 253.542 280.25 252.625 279.812C251.708 279.354 250.583 279.104 249.25 279.062L248 297.188ZM306.094 284.75C306.094 286.562 305.969 288.375 305.719 290.188C302.156 290.417 298.615 290.792 295.094 291.312C291.573 291.812 288.052 292.312 284.531 292.812C285.073 294.312 285.917 295.51 287.062 296.406C288.229 297.302 289.615 297.75 291.219 297.75C292.052 297.75 292.958 297.594 293.938 297.281C294.938 296.969 295.927 296.583 296.906 296.125C297.885 295.646 298.823 295.135 299.719 294.594C300.615 294.052 301.385 293.562 302.031 293.125L300.531 307.312C299.719 307.938 298.833 308.469 297.875 308.906C296.938 309.344 295.958 309.698 294.938 309.969C293.917 310.24 292.885 310.438 291.844 310.562C290.802 310.688 289.781 310.75 288.781 310.75C286.719 310.75 284.833 310.469 283.125 309.906C281.417 309.344 279.865 308.562 278.469 307.562C277.094 306.542 275.885 305.344 274.844 303.969C273.802 302.594 272.938 301.094 272.25 299.469C271.562 297.844 271.042 296.125 270.688 294.312C270.333 292.5 270.156 290.667 270.156 288.812C270.156 286.875 270.333 284.938 270.688 283C271.042 281.062 271.573 279.198 272.281 277.406C273.01 275.615 273.917 273.958 275 272.438C276.104 270.896 277.385 269.552 278.844 268.406C280.302 267.26 281.948 266.365 283.781 265.719C285.635 265.073 287.677 264.75 289.906 264.75C291.76 264.75 293.448 265.01 294.969 265.531C296.51 266.031 297.875 266.74 299.062 267.656C300.271 268.552 301.312 269.625 302.188 270.875C303.083 272.125 303.812 273.5 304.375 275C304.958 276.479 305.385 278.052 305.656 279.719C305.948 281.365 306.094 283.042 306.094 284.75ZM293.594 283.125C293.594 282.542 293.531 281.948 293.406 281.344C293.281 280.719 293.073 280.156 292.781 279.656C292.51 279.156 292.146 278.75 291.688 278.438C291.229 278.104 290.656 277.938 289.969 277.938C289.135 277.938 288.396 278.167 287.75 278.625C287.125 279.062 286.583 279.625 286.125 280.312C285.667 280.979 285.292 281.708 285 282.5C284.708 283.292 284.49 284.021 284.344 284.688L293.594 283.812V283.125ZM356.062 285.188C356.062 288.104 355.688 290.74 354.938 293.094C354.188 295.427 353.135 297.51 351.781 299.344C350.448 301.156 348.854 302.719 347 304.031C345.146 305.344 343.115 306.427 340.906 307.281C338.698 308.115 336.344 308.74 333.844 309.156C331.365 309.552 328.812 309.75 326.188 309.75C325.208 309.75 324.25 309.729 323.312 309.688C322.375 309.625 321.417 309.542 320.438 309.438L321.312 267.5C323.604 266.771 325.958 266.26 328.375 265.969C330.812 265.656 333.229 265.5 335.625 265.5C338.604 265.5 341.344 265.948 343.844 266.844C346.344 267.74 348.5 269.031 350.312 270.719C352.125 272.406 353.531 274.469 354.531 276.906C355.552 279.344 356.062 282.104 356.062 285.188ZM343.25 287.188C343.271 286.062 343.146 284.979 342.875 283.938C342.625 282.896 342.198 281.979 341.594 281.188C341.01 280.375 340.26 279.729 339.344 279.25C338.427 278.75 337.333 278.479 336.062 278.438L334.812 297.812C336.062 297.625 337.198 297.219 338.219 296.594C339.24 295.948 340.115 295.167 340.844 294.25C341.594 293.312 342.167 292.281 342.562 291.156C342.979 290.01 343.208 288.833 343.25 287.625V287.188ZM390 294C390 296.854 389.5 299.323 388.5 301.406C387.521 303.469 386.167 305.177 384.438 306.531C382.729 307.865 380.719 308.854 378.406 309.5C376.115 310.125 373.646 310.438 371 310.438C369.979 310.438 368.854 310.302 367.625 310.031C366.417 309.76 365.188 309.427 363.938 309.031C362.688 308.615 361.479 308.177 360.312 307.719C359.167 307.24 358.146 306.792 357.25 306.375L358.625 294.125C360.396 295.188 362.354 296 364.5 296.562C366.667 297.104 368.792 297.375 370.875 297.375C371.271 297.375 371.75 297.365 372.312 297.344C372.875 297.302 373.406 297.208 373.906 297.062C374.427 296.896 374.865 296.656 375.219 296.344C375.573 296.031 375.75 295.583 375.75 295C375.75 294.604 375.625 294.271 375.375 294C375.125 293.708 374.802 293.479 374.406 293.312C374.01 293.125 373.562 292.99 373.062 292.906C372.562 292.802 372.073 292.729 371.594 292.688C371.115 292.646 370.667 292.625 370.25 292.625C369.833 292.625 369.5 292.625 369.25 292.625C367.458 292.625 365.823 292.344 364.344 291.781C362.885 291.219 361.625 290.427 360.562 289.406C359.521 288.365 358.708 287.115 358.125 285.656C357.542 284.177 357.25 282.542 357.25 280.75C357.25 278.292 357.74 276.094 358.719 274.156C359.719 272.198 361.042 270.542 362.688 269.188C364.354 267.812 366.26 266.76 368.406 266.031C370.552 265.302 372.771 264.938 375.062 264.938C376.083 264.938 377.135 264.979 378.219 265.062C379.302 265.125 380.375 265.25 381.438 265.438C382.521 265.625 383.573 265.865 384.594 266.156C385.615 266.448 386.583 266.812 387.5 267.25L386.312 279.938C384.896 279.458 383.406 279.062 381.844 278.75C380.302 278.417 378.792 278.25 377.312 278.25C377.042 278.25 376.688 278.26 376.25 278.281C375.833 278.281 375.385 278.312 374.906 278.375C374.448 278.417 373.979 278.49 373.5 278.594C373.021 278.698 372.594 278.844 372.219 279.031C371.844 279.198 371.542 279.427 371.312 279.719C371.083 280.01 370.979 280.354 371 280.75C371.021 281.208 371.188 281.562 371.5 281.812C371.833 282.062 372.25 282.25 372.75 282.375C373.271 282.479 373.833 282.531 374.438 282.531C375.062 282.531 375.677 282.521 376.281 282.5C376.885 282.458 377.448 282.427 377.969 282.406C378.49 282.365 378.917 282.354 379.25 282.375C380.917 282.479 382.417 282.833 383.75 283.438C385.083 284.042 386.208 284.844 387.125 285.844C388.062 286.844 388.771 288.042 389.25 289.438C389.75 290.812 390 292.333 390 294Z" fill="#393E46"/>
<path d="M165.172 409.094C165.172 411.031 164.859 412.656 164.234 413.969C163.609 415.281 162.742 416.336 161.633 417.133C160.539 417.93 159.242 418.508 157.742 418.867C156.258 419.211 154.641 419.391 152.891 419.406H151.578L151.484 428.453L154.766 428.359L154.531 432.578L144.875 432.812L144.734 428.453H147.5L147.453 403.891L144.781 403.984L144.547 399.438C146.297 399.359 148.031 399.312 149.75 399.297C151.469 399.266 153.203 399.25 154.953 399.25C156.375 399.25 157.711 399.492 158.961 399.977C160.211 400.445 161.289 401.117 162.195 401.992C163.117 402.852 163.844 403.883 164.375 405.086C164.906 406.289 165.172 407.625 165.172 409.094ZM160.859 409.281C160.859 408.484 160.711 407.742 160.414 407.055C160.133 406.367 159.742 405.773 159.242 405.273C158.742 404.773 158.148 404.383 157.461 404.102C156.773 403.805 156.031 403.656 155.234 403.656H153.734H151.719L151.625 415.422H152.75C153.828 415.422 154.852 415.359 155.82 415.234C156.805 415.094 157.672 414.812 158.422 414.391C159.172 413.969 159.766 413.352 160.203 412.539C160.641 411.727 160.859 410.641 160.859 409.281ZM187.625 414.766C187.625 416.031 187.586 417.383 187.508 418.82C187.43 420.258 187.258 421.68 186.992 423.086C186.742 424.492 186.367 425.852 185.867 427.164C185.383 428.461 184.727 429.602 183.898 430.586C183.086 431.57 182.078 432.359 180.875 432.953C179.672 433.547 178.234 433.844 176.562 433.844C175.25 433.844 174.109 433.602 173.141 433.117C172.172 432.648 171.336 432.016 170.633 431.219C169.945 430.422 169.375 429.5 168.922 428.453C168.469 427.406 168.109 426.32 167.844 425.195C167.578 424.055 167.391 422.906 167.281 421.75C167.188 420.594 167.141 419.516 167.141 418.516C167.141 417.25 167.188 415.883 167.281 414.414C167.375 412.945 167.562 411.484 167.844 410.031C168.125 408.578 168.516 407.18 169.016 405.836C169.531 404.492 170.203 403.305 171.031 402.273C171.875 401.242 172.898 400.422 174.102 399.812C175.305 399.188 176.734 398.875 178.391 398.875C179.703 398.875 180.844 399.133 181.812 399.648C182.797 400.148 183.625 400.828 184.297 401.688C184.984 402.531 185.539 403.5 185.961 404.594C186.398 405.688 186.742 406.828 186.992 408.016C187.242 409.188 187.406 410.359 187.484 411.531C187.578 412.688 187.625 413.766 187.625 414.766ZM183.031 415.047C183.031 414.516 183.016 413.859 182.984 413.078C182.953 412.281 182.883 411.453 182.773 410.594C182.664 409.719 182.5 408.844 182.281 407.969C182.062 407.094 181.758 406.312 181.367 405.625C180.992 404.922 180.516 404.359 179.938 403.938C179.375 403.5 178.688 403.281 177.875 403.281C176.844 403.281 175.969 403.562 175.25 404.125C174.547 404.672 173.961 405.398 173.492 406.305C173.023 407.211 172.656 408.234 172.391 409.375C172.125 410.5 171.93 411.641 171.805 412.797C171.68 413.953 171.602 415.07 171.57 416.148C171.555 417.211 171.547 418.125 171.547 418.891C171.547 419.469 171.562 420.133 171.594 420.883C171.625 421.617 171.695 422.375 171.805 423.156C171.93 423.922 172.109 424.68 172.344 425.43C172.578 426.164 172.883 426.82 173.258 427.398C173.648 427.977 174.133 428.445 174.711 428.805C175.289 429.164 175.984 429.344 176.797 429.344C177.812 429.344 178.672 429.086 179.375 428.57C180.078 428.055 180.656 427.383 181.109 426.555C181.578 425.711 181.938 424.766 182.188 423.719C182.453 422.672 182.648 421.625 182.773 420.578C182.898 419.516 182.969 418.5 182.984 417.531C183.016 416.562 183.031 415.734 183.031 415.047ZM215.727 403.797L213.008 404.031L212.305 433.188L208.227 433.281L197.68 407.781L197.914 428.453L201.102 428.359V432.578L191.07 432.812L190.93 428.453H193.695L193.414 404.5L190.508 404.594L190.742 400.047H198.617L208.555 424.938V404.031L205.602 404.125L205.836 399.578H215.398L215.727 403.797ZM237.312 409.516L233.703 409.984L233.469 403.656L229.578 403.797L229.344 428.453L232.625 428.359L232.391 432.578L222.734 432.812L222.594 428.453H225.359L225.312 404.031L221.094 404.312L221.328 410.219H217.438L217.672 400.047L236.844 399.344L237.312 409.516ZM260.094 414.766C260.094 416.031 260.055 417.383 259.977 418.82C259.898 420.258 259.727 421.68 259.461 423.086C259.211 424.492 258.836 425.852 258.336 427.164C257.852 428.461 257.195 429.602 256.367 430.586C255.555 431.57 254.547 432.359 253.344 432.953C252.141 433.547 250.703 433.844 249.031 433.844C247.719 433.844 246.578 433.602 245.609 433.117C244.641 432.648 243.805 432.016 243.102 431.219C242.414 430.422 241.844 429.5 241.391 428.453C240.938 427.406 240.578 426.32 240.312 425.195C240.047 424.055 239.859 422.906 239.75 421.75C239.656 420.594 239.609 419.516 239.609 418.516C239.609 417.25 239.656 415.883 239.75 414.414C239.844 412.945 240.031 411.484 240.312 410.031C240.594 408.578 240.984 407.18 241.484 405.836C242 404.492 242.672 403.305 243.5 402.273C244.344 401.242 245.367 400.422 246.57 399.812C247.773 399.188 249.203 398.875 250.859 398.875C252.172 398.875 253.312 399.133 254.281 399.648C255.266 400.148 256.094 400.828 256.766 401.688C257.453 402.531 258.008 403.5 258.43 404.594C258.867 405.688 259.211 406.828 259.461 408.016C259.711 409.188 259.875 410.359 259.953 411.531C260.047 412.688 260.094 413.766 260.094 414.766ZM255.5 415.047C255.5 414.516 255.484 413.859 255.453 413.078C255.422 412.281 255.352 411.453 255.242 410.594C255.133 409.719 254.969 408.844 254.75 407.969C254.531 407.094 254.227 406.312 253.836 405.625C253.461 404.922 252.984 404.359 252.406 403.938C251.844 403.5 251.156 403.281 250.344 403.281C249.312 403.281 248.438 403.562 247.719 404.125C247.016 404.672 246.43 405.398 245.961 406.305C245.492 407.211 245.125 408.234 244.859 409.375C244.594 410.5 244.398 411.641 244.273 412.797C244.148 413.953 244.07 415.07 244.039 416.148C244.023 417.211 244.016 418.125 244.016 418.891C244.016 419.469 244.031 420.133 244.062 420.883C244.094 421.617 244.164 422.375 244.273 423.156C244.398 423.922 244.578 424.68 244.812 425.43C245.047 426.164 245.352 426.82 245.727 427.398C246.117 427.977 246.602 428.445 247.18 428.805C247.758 429.164 248.453 429.344 249.266 429.344C250.281 429.344 251.141 429.086 251.844 428.57C252.547 428.055 253.125 427.383 253.578 426.555C254.047 425.711 254.406 424.766 254.656 423.719C254.922 422.672 255.117 421.625 255.242 420.578C255.367 419.516 255.438 418.5 255.453 417.531C255.484 416.562 255.5 415.734 255.5 415.047ZM282.172 424.094C282.172 425.359 282.008 426.555 281.68 427.68C281.367 428.789 280.883 429.758 280.227 430.586C279.57 431.414 278.734 432.07 277.719 432.555C276.719 433.039 275.531 433.281 274.156 433.281C273.328 433.281 272.586 433.203 271.93 433.047C271.273 432.906 270.672 432.68 270.125 432.367C269.594 432.039 269.094 431.625 268.625 431.125C268.172 430.625 267.734 430.031 267.312 429.344L267.266 432.953L263.141 432.391L263.891 421.656L267.359 421.797C267.5 422.625 267.719 423.492 268.016 424.398C268.312 425.289 268.703 426.109 269.188 426.859C269.688 427.609 270.297 428.227 271.016 428.711C271.75 429.195 272.625 429.438 273.641 429.438C274.453 429.438 275.133 429.305 275.68 429.039C276.242 428.773 276.695 428.406 277.039 427.938C277.383 427.469 277.625 426.914 277.766 426.273C277.922 425.633 278 424.938 278 424.188C278 423.344 277.859 422.594 277.578 421.938C277.312 421.266 276.938 420.68 276.453 420.18C275.969 419.664 275.398 419.227 274.742 418.867C274.102 418.492 273.406 418.172 272.656 417.906C271.797 417.609 270.969 417.297 270.172 416.969C269.391 416.641 268.656 416.281 267.969 415.891C267.281 415.484 266.648 415.039 266.07 414.555C265.508 414.055 265.023 413.484 264.617 412.844C264.211 412.203 263.891 411.477 263.656 410.664C263.438 409.852 263.328 408.922 263.328 407.875C263.328 406.578 263.523 405.383 263.914 404.289C264.305 403.195 264.867 402.258 265.602 401.477C266.336 400.68 267.227 400.062 268.273 399.625C269.32 399.188 270.5 398.969 271.812 398.969C272.641 398.969 273.352 399.047 273.945 399.203C274.555 399.359 275.094 399.602 275.562 399.93C276.031 400.258 276.461 400.672 276.852 401.172C277.242 401.656 277.641 402.234 278.047 402.906L278.094 399.062L282.172 399.156L281.656 411.109L278 410.969C277.891 410.391 277.766 409.797 277.625 409.188C277.5 408.562 277.328 407.961 277.109 407.383C276.891 406.805 276.633 406.258 276.336 405.742C276.039 405.211 275.68 404.75 275.258 404.359C274.852 403.969 274.375 403.664 273.828 403.445C273.281 403.211 272.656 403.094 271.953 403.094C271.234 403.094 270.609 403.234 270.078 403.516C269.562 403.781 269.133 404.148 268.789 404.617C268.445 405.07 268.188 405.602 268.016 406.211C267.859 406.805 267.781 407.422 267.781 408.062C267.781 408.969 267.93 409.742 268.227 410.383C268.523 411.023 268.922 411.578 269.422 412.047C269.938 412.5 270.531 412.891 271.203 413.219C271.875 413.547 272.594 413.844 273.359 414.109C274.531 414.531 275.648 415.031 276.711 415.609C277.773 416.188 278.711 416.875 279.523 417.672C280.336 418.469 280.977 419.398 281.445 420.461C281.93 421.508 282.172 422.719 282.172 424.094Z" fill="#393E46"/>
<path d="M165.376 502C164.768 502 164.256 501.76 163.84 501.28C163.424 500.8 163.216 500.192 163.216 499.456V477.856C163.216 476.8 163.36 475.696 163.648 474.544C163.968 473.392 164.544 472.32 165.376 471.328C166.24 470.304 167.456 469.472 169.024 468.832C170.592 468.192 172.64 467.872 175.168 467.872C178.528 467.872 181.136 468.704 182.992 470.368C184.848 472.032 185.776 474.528 185.776 477.856C185.776 479.2 185.52 480.432 185.008 481.552C184.528 482.672 183.792 483.52 182.8 484.096C184.368 484.8 185.488 485.776 186.16 487.024C186.864 488.272 187.216 490 187.216 492.208C187.216 495.408 186.224 497.84 184.24 499.504C182.288 501.168 179.264 502 175.168 502H165.376ZM169.792 483.232C170.208 482.72 170.88 482.32 171.808 482.032C172.768 481.744 173.888 481.6 175.168 481.6C176.672 481.6 177.696 481.328 178.24 480.784C178.816 480.208 179.104 479.232 179.104 477.856C179.104 476.256 178.768 475.12 178.096 474.448C177.456 473.744 176.48 473.392 175.168 473.392C173.312 473.392 172 473.728 171.232 474.4C170.496 475.072 170.128 476.224 170.128 477.856C170.128 478.848 170.112 479.648 170.08 480.256C170.08 480.832 170.048 481.344 169.984 481.792C169.952 482.24 169.888 482.72 169.792 483.232ZM170.128 496.432H175.168C177.088 496.432 178.416 496.096 179.152 495.424C179.92 494.752 180.304 493.68 180.304 492.208C180.304 490.128 179.904 488.64 179.104 487.744C178.336 486.848 177.024 486.4 175.168 486.4C173.856 486.4 172.832 486.576 172.096 486.928C171.36 487.248 170.848 487.824 170.56 488.656C170.272 489.488 170.128 490.672 170.128 492.208V496.432ZM201.924 502.384C198.5 502.384 195.796 501.408 193.812 499.456C191.828 497.504 190.836 494.352 190.836 490C190.836 485.616 191.828 482.464 193.812 480.544C195.796 478.592 198.5 477.616 201.924 477.616C205.348 477.616 208.052 478.592 210.036 480.544C212.02 482.464 213.012 485.616 213.012 490C213.012 494.352 212.02 497.504 210.036 499.456C208.052 501.408 205.348 502.384 201.924 502.384ZM201.924 496.624C202.82 496.624 203.572 496.448 204.18 496.096C204.788 495.712 205.252 495.04 205.572 494.08C205.924 493.12 206.1 491.76 206.1 490C206.1 488.24 205.924 486.88 205.572 485.92C205.252 484.96 204.788 484.304 204.18 483.952C203.572 483.568 202.82 483.376 201.924 483.376C201.06 483.376 200.308 483.568 199.668 483.952C199.06 484.304 198.58 484.96 198.228 485.92C197.908 486.88 197.748 488.24 197.748 490C197.748 491.76 197.908 493.12 198.228 494.08C198.58 495.04 199.06 495.712 199.668 496.096C200.308 496.448 201.06 496.624 201.924 496.624ZM221.087 502.384C218.783 502.384 217.631 501.296 217.631 499.12V487.6C217.631 484.528 218.607 482.096 220.559 480.304C222.543 478.512 225.151 477.616 228.383 477.616C231.615 477.616 234.207 478.512 236.159 480.304C238.143 482.096 239.135 484.528 239.135 487.6V499.12C239.135 501.296 237.983 502.384 235.679 502.384C233.375 502.384 232.223 501.296 232.223 499.12V487.984C232.223 486.48 231.887 485.344 231.215 484.576C230.543 483.776 229.599 483.376 228.383 483.376C227.167 483.376 226.223 483.776 225.551 484.576C224.879 485.344 224.543 486.48 224.543 487.984V499.12C224.543 501.296 223.391 502.384 221.087 502.384ZM252.411 502.384C246.395 502.384 243.387 501.056 243.387 498.4C243.387 497.568 243.611 496.912 244.059 496.432C244.507 495.952 245.099 495.712 245.835 495.712C246.155 495.712 246.459 495.76 246.747 495.856C247.067 495.92 247.675 496.096 248.571 496.384C248.955 496.512 249.467 496.64 250.107 496.768C250.747 496.896 251.371 496.96 251.979 496.96C253.131 496.96 253.947 496.816 254.427 496.528C254.907 496.24 255.147 495.76 255.147 495.088C255.147 494.544 255.019 494.128 254.763 493.84C254.507 493.52 253.963 493.216 253.131 492.928C252.299 492.64 251.003 492.24 249.243 491.728C247.643 491.28 246.347 490.48 245.355 489.328C244.395 488.144 243.915 486.688 243.915 484.96C243.915 482.528 244.795 480.672 246.555 479.392C248.315 478.112 250.731 477.472 253.803 477.472C256.107 477.472 257.915 477.792 259.227 478.432C260.539 479.072 261.195 480 261.195 481.216C261.195 481.984 260.971 482.624 260.523 483.136C260.075 483.648 259.467 483.904 258.699 483.904C258.379 483.904 257.995 483.856 257.547 483.76C257.131 483.664 256.619 483.536 256.011 483.376C255.563 483.216 255.083 483.088 254.571 482.992C254.091 482.896 253.579 482.848 253.035 482.848C251.499 482.848 250.731 483.392 250.731 484.48C250.731 485.12 251.035 485.664 251.643 486.112C252.251 486.528 253.419 486.992 255.147 487.504C257.515 488.208 259.259 489.152 260.379 490.336C261.499 491.488 262.059 493.024 262.059 494.944C262.059 497.184 261.195 498.992 259.467 500.368C257.771 501.712 255.419 502.384 252.411 502.384Z" fill="#5B5B5B"/>
<path opacity="0.59" d="M267.51 521.14C267.035 520.858 266.422 521.015 266.14 521.49L261.548 529.23C261.266 529.705 261.423 530.319 261.898 530.601C262.373 530.882 262.986 530.726 263.268 530.251L267.35 523.37L274.23 527.452C274.705 527.734 275.319 527.577 275.601 527.102C275.882 526.627 275.726 526.014 275.251 525.732L267.51 521.14ZM279.969 568.753L267.969 521.753L266.031 522.247L278.031 569.247L279.969 568.753Z" fill="#A49393"/>
<g opacity="0.49" filter="url(#filter0_d_1_2)">
<path d="M168.921 524.61C168.705 524.101 168.118 523.864 167.61 524.079L159.323 527.591C158.815 527.806 158.577 528.393 158.792 528.901C159.008 529.41 159.595 529.648 160.103 529.432L167.469 526.311L170.591 533.677C170.806 534.185 171.393 534.423 171.901 534.208C172.41 533.992 172.648 533.405 172.432 532.897L168.921 524.61ZM151.927 567.375L168.927 525.375L167.073 524.625L150.073 566.625L151.927 567.375Z" fill="#A49393"/>
</g>
</g>
<defs>
<filter id="filter0_d_1_2" x="146.073" y="524" width="30.4385" height="51.3754" filterUnits="userSpaceOnUse" color-interpolation-filters="sRGB">
<feFlood flood-opacity="0" result="BackgroundImageFix"/>
<feColorMatrix in="SourceAlpha" type="matrix" values="0 0 0 0 0 0 0 0 0 0 0 0 0 0 0 0 0 0 127 0" result="hardAlpha"/>
<feOffset dy="4"/>
<feGaussianBlur stdDeviation="2"/>
<feComposite in2="hardAlpha" operator="out"/>
<feColorMatrix type="matrix" values="0 0 0 0 0 0 0 0 0 0 0 0 0 0 0 0 0 0 0.25 0"/>
<feBlend mode="normal" in2="BackgroundImageFix" result="effect1_dropShadow_1_2"/>
<feBlend mode="normal" in="SourceGraphic" in2="effect1_dropShadow_1_2" result="shape"/>
</filter>
<clipPath id="clip0_1_2">
<rect width="440" height="956" fill="white"/>
</clipPath>
</defs>
</svg>
